<mxfile host="app.diagrams.net" modified="2023-03-23T06:13:39.267Z" agent="5.0 (Windows NT 10.0; WOW64) AppleWebKit/537.36 (KHTML, like Gecko) Chrome/102.0.0.0 Safari/537.36" etag="NfBdrXAW8qxhObdYQHNN" version="21.0.10" type="github">
  <diagram name="第 1 页" id="I_1Xx4UbyOUZm9mtm-XI">
    <mxGraphModel dx="1420" dy="1942" grid="0" gridSize="10" guides="1" tooltips="1" connect="1" arrows="1" fold="1" page="1" pageScale="1" pageWidth="827" pageHeight="1169" math="0" shadow="0">
      <root>
        <mxCell id="0" />
        <mxCell id="1" parent="0" />
        <mxCell id="DAmpRFK_-s57hyBg2NIy-118" value="" style="group" vertex="1" connectable="0" parent="1">
          <mxGeometry x="216" y="-749" width="498" height="515" as="geometry" />
        </mxCell>
        <mxCell id="DAmpRFK_-s57hyBg2NIy-53" value="" style="rounded=1;whiteSpace=wrap;html=1;" vertex="1" parent="DAmpRFK_-s57hyBg2NIy-118">
          <mxGeometry y="75" width="498" height="321" as="geometry" />
        </mxCell>
        <mxCell id="DAmpRFK_-s57hyBg2NIy-61" value="Sentence" style="text;strokeColor=none;align=center;fillColor=none;html=1;verticalAlign=middle;whiteSpace=wrap;rounded=0;" vertex="1" parent="DAmpRFK_-s57hyBg2NIy-118">
          <mxGeometry x="136" y="485" width="300" height="30" as="geometry" />
        </mxCell>
        <mxCell id="DAmpRFK_-s57hyBg2NIy-62" value="" style="strokeWidth=2;html=1;shape=mxgraph.flowchart.annotation_2;align=left;labelPosition=right;pointerEvents=1;direction=north;" vertex="1" parent="DAmpRFK_-s57hyBg2NIy-118">
          <mxGeometry x="85" y="455" width="390" height="30" as="geometry" />
        </mxCell>
        <mxCell id="DAmpRFK_-s57hyBg2NIy-63" style="edgeStyle=orthogonalEdgeStyle;rounded=0;orthogonalLoop=1;jettySize=auto;html=1;exitX=0;exitY=0.5;exitDx=0;exitDy=0;exitPerimeter=0;" edge="1" parent="DAmpRFK_-s57hyBg2NIy-118" source="DAmpRFK_-s57hyBg2NIy-62" target="DAmpRFK_-s57hyBg2NIy-62">
          <mxGeometry relative="1" as="geometry" />
        </mxCell>
        <mxCell id="DAmpRFK_-s57hyBg2NIy-64" value="" style="group" vertex="1" connectable="0" parent="DAmpRFK_-s57hyBg2NIy-118">
          <mxGeometry x="15.310000000000002" y="413" width="458.69" height="33" as="geometry" />
        </mxCell>
        <mxCell id="DAmpRFK_-s57hyBg2NIy-54" value="tok1" style="rounded=1;whiteSpace=wrap;html=1;fillColor=#fff2cc;strokeColor=#d6b656;" vertex="1" parent="DAmpRFK_-s57hyBg2NIy-64">
          <mxGeometry x="69.69" width="51" height="33" as="geometry" />
        </mxCell>
        <mxCell id="DAmpRFK_-s57hyBg2NIy-55" value="tok2" style="rounded=1;whiteSpace=wrap;html=1;fillColor=#fff2cc;strokeColor=#d6b656;" vertex="1" parent="DAmpRFK_-s57hyBg2NIy-64">
          <mxGeometry x="139.69" width="51" height="33" as="geometry" />
        </mxCell>
        <mxCell id="DAmpRFK_-s57hyBg2NIy-56" value="tok3" style="rounded=1;whiteSpace=wrap;html=1;fillColor=#fff2cc;strokeColor=#d6b656;" vertex="1" parent="DAmpRFK_-s57hyBg2NIy-64">
          <mxGeometry x="208.69" width="51" height="33" as="geometry" />
        </mxCell>
        <mxCell id="DAmpRFK_-s57hyBg2NIy-57" value="tok4" style="rounded=1;whiteSpace=wrap;html=1;fillColor=#fff2cc;strokeColor=#d6b656;" vertex="1" parent="DAmpRFK_-s57hyBg2NIy-64">
          <mxGeometry x="279.69" width="51" height="33" as="geometry" />
        </mxCell>
        <mxCell id="DAmpRFK_-s57hyBg2NIy-58" value="tokN" style="rounded=1;whiteSpace=wrap;html=1;fillColor=#fff2cc;strokeColor=#d6b656;" vertex="1" parent="DAmpRFK_-s57hyBg2NIy-64">
          <mxGeometry x="407.69" width="51" height="33" as="geometry" />
        </mxCell>
        <mxCell id="DAmpRFK_-s57hyBg2NIy-59" value="CLS" style="rounded=1;whiteSpace=wrap;html=1;fillColor=#fff2cc;strokeColor=#d6b656;" vertex="1" parent="DAmpRFK_-s57hyBg2NIy-64">
          <mxGeometry width="51" height="33" as="geometry" />
        </mxCell>
        <mxCell id="DAmpRFK_-s57hyBg2NIy-60" value="" style="endArrow=none;dashed=1;html=1;dashPattern=1 3;strokeWidth=2;rounded=0;" edge="1" parent="DAmpRFK_-s57hyBg2NIy-64">
          <mxGeometry width="50" height="50" relative="1" as="geometry">
            <mxPoint x="348.69" y="16" as="sourcePoint" />
            <mxPoint x="389.69" y="16" as="targetPoint" />
          </mxGeometry>
        </mxCell>
        <mxCell id="DAmpRFK_-s57hyBg2NIy-65" value="" style="group" vertex="1" connectable="0" parent="DAmpRFK_-s57hyBg2NIy-118">
          <mxGeometry x="15.310000000000002" y="345" width="458.69" height="70" as="geometry" />
        </mxCell>
        <mxCell id="DAmpRFK_-s57hyBg2NIy-66" value="E1" style="rounded=1;whiteSpace=wrap;html=1;fillColor=#f8cecc;strokeColor=#b85450;" vertex="1" parent="DAmpRFK_-s57hyBg2NIy-65">
          <mxGeometry x="69.69" width="51" height="33" as="geometry" />
        </mxCell>
        <mxCell id="DAmpRFK_-s57hyBg2NIy-67" value="E2" style="rounded=1;whiteSpace=wrap;html=1;fillColor=#f8cecc;strokeColor=#b85450;" vertex="1" parent="DAmpRFK_-s57hyBg2NIy-65">
          <mxGeometry x="139.69" width="51" height="33" as="geometry" />
        </mxCell>
        <mxCell id="DAmpRFK_-s57hyBg2NIy-68" value="E3" style="rounded=1;whiteSpace=wrap;html=1;fillColor=#f8cecc;strokeColor=#b85450;" vertex="1" parent="DAmpRFK_-s57hyBg2NIy-65">
          <mxGeometry x="208.69" width="51" height="33" as="geometry" />
        </mxCell>
        <mxCell id="DAmpRFK_-s57hyBg2NIy-69" value="E4" style="rounded=1;whiteSpace=wrap;html=1;fillColor=#f8cecc;strokeColor=#b85450;" vertex="1" parent="DAmpRFK_-s57hyBg2NIy-65">
          <mxGeometry x="279.69" width="51" height="33" as="geometry" />
        </mxCell>
        <mxCell id="DAmpRFK_-s57hyBg2NIy-70" value="EN" style="rounded=1;whiteSpace=wrap;html=1;fillColor=#f8cecc;strokeColor=#b85450;" vertex="1" parent="DAmpRFK_-s57hyBg2NIy-65">
          <mxGeometry x="407.69" width="51" height="33" as="geometry" />
        </mxCell>
        <mxCell id="DAmpRFK_-s57hyBg2NIy-71" value="Ecls" style="rounded=1;whiteSpace=wrap;html=1;fillColor=#f8cecc;strokeColor=#b85450;" vertex="1" parent="DAmpRFK_-s57hyBg2NIy-65">
          <mxGeometry width="51" height="33" as="geometry" />
        </mxCell>
        <mxCell id="DAmpRFK_-s57hyBg2NIy-72" value="" style="endArrow=none;dashed=1;html=1;dashPattern=1 3;strokeWidth=2;rounded=0;" edge="1" parent="DAmpRFK_-s57hyBg2NIy-65">
          <mxGeometry width="50" height="50" relative="1" as="geometry">
            <mxPoint x="348.69" y="16" as="sourcePoint" />
            <mxPoint x="389.69" y="16" as="targetPoint" />
          </mxGeometry>
        </mxCell>
        <mxCell id="DAmpRFK_-s57hyBg2NIy-75" value="" style="shape=singleArrow;direction=north;whiteSpace=wrap;html=1;arrowWidth=0.3;arrowSize=0.36;fillColor=#f5f5f5;fontColor=#333333;strokeColor=#666666;" vertex="1" parent="DAmpRFK_-s57hyBg2NIy-65">
          <mxGeometry x="18.25" y="33" width="14.5" height="30" as="geometry" />
        </mxCell>
        <mxCell id="DAmpRFK_-s57hyBg2NIy-86" value="" style="shape=singleArrow;direction=north;whiteSpace=wrap;html=1;arrowWidth=0.3;arrowSize=0.36;fillColor=#f5f5f5;fontColor=#333333;strokeColor=#666666;" vertex="1" parent="DAmpRFK_-s57hyBg2NIy-65">
          <mxGeometry x="87.94" y="33" width="14.5" height="30" as="geometry" />
        </mxCell>
        <mxCell id="DAmpRFK_-s57hyBg2NIy-89" value="" style="shape=singleArrow;direction=north;whiteSpace=wrap;html=1;arrowWidth=0.3;arrowSize=0.36;fillColor=#f5f5f5;fontColor=#333333;strokeColor=#666666;" vertex="1" parent="DAmpRFK_-s57hyBg2NIy-65">
          <mxGeometry x="157.94" y="33" width="14.5" height="30" as="geometry" />
        </mxCell>
        <mxCell id="DAmpRFK_-s57hyBg2NIy-90" value="" style="shape=singleArrow;direction=north;whiteSpace=wrap;html=1;arrowWidth=0.3;arrowSize=0.36;fillColor=#f5f5f5;fontColor=#333333;strokeColor=#666666;" vertex="1" parent="DAmpRFK_-s57hyBg2NIy-65">
          <mxGeometry x="226.94" y="33" width="14.5" height="30" as="geometry" />
        </mxCell>
        <mxCell id="DAmpRFK_-s57hyBg2NIy-91" value="" style="shape=singleArrow;direction=north;whiteSpace=wrap;html=1;arrowWidth=0.3;arrowSize=0.36;fillColor=#f5f5f5;fontColor=#333333;strokeColor=#666666;" vertex="1" parent="DAmpRFK_-s57hyBg2NIy-65">
          <mxGeometry x="297.94" y="33" width="14.5" height="30" as="geometry" />
        </mxCell>
        <mxCell id="DAmpRFK_-s57hyBg2NIy-92" value="" style="shape=singleArrow;direction=north;whiteSpace=wrap;html=1;arrowWidth=0.3;arrowSize=0.36;fillColor=#f5f5f5;fontColor=#333333;strokeColor=#666666;" vertex="1" parent="DAmpRFK_-s57hyBg2NIy-65">
          <mxGeometry x="425.94" y="33" width="14.5" height="30" as="geometry" />
        </mxCell>
        <mxCell id="DAmpRFK_-s57hyBg2NIy-93" value="Encoder" style="rounded=1;whiteSpace=wrap;html=1;fillColor=#ffe6cc;strokeColor=#d79b00;" vertex="1" parent="DAmpRFK_-s57hyBg2NIy-118">
          <mxGeometry x="94" y="275" width="330" height="30" as="geometry" />
        </mxCell>
        <mxCell id="DAmpRFK_-s57hyBg2NIy-95" value="" style="shape=singleArrow;direction=north;whiteSpace=wrap;html=1;arrowWidth=0.3;arrowSize=0.36;fillColor=#f5f5f5;fontColor=#333333;strokeColor=#666666;" vertex="1" parent="DAmpRFK_-s57hyBg2NIy-118">
          <mxGeometry x="237.75" y="305" width="14.5" height="30" as="geometry" />
        </mxCell>
        <mxCell id="DAmpRFK_-s57hyBg2NIy-96" value="Encoder" style="rounded=1;whiteSpace=wrap;html=1;fillColor=#ffe6cc;strokeColor=#d79b00;" vertex="1" parent="DAmpRFK_-s57hyBg2NIy-118">
          <mxGeometry x="94" y="175" width="330" height="30" as="geometry" />
        </mxCell>
        <mxCell id="DAmpRFK_-s57hyBg2NIy-99" value="" style="endArrow=none;dashed=1;html=1;dashPattern=1 3;strokeWidth=2;rounded=0;exitX=0.461;exitY=0.033;exitDx=0;exitDy=0;exitPerimeter=0;entryX=0.461;entryY=1.033;entryDx=0;entryDy=0;entryPerimeter=0;" edge="1" parent="DAmpRFK_-s57hyBg2NIy-118" source="DAmpRFK_-s57hyBg2NIy-93" target="DAmpRFK_-s57hyBg2NIy-96">
          <mxGeometry width="50" height="50" relative="1" as="geometry">
            <mxPoint x="235" y="255" as="sourcePoint" />
            <mxPoint x="255" y="205" as="targetPoint" />
          </mxGeometry>
        </mxCell>
        <mxCell id="DAmpRFK_-s57hyBg2NIy-100" value="" style="shape=singleArrow;direction=north;whiteSpace=wrap;html=1;arrowWidth=0.3;arrowSize=0.36;fillColor=#f5f5f5;fontColor=#333333;strokeColor=#666666;" vertex="1" parent="DAmpRFK_-s57hyBg2NIy-118">
          <mxGeometry x="241.75" y="135" width="14.5" height="30" as="geometry" />
        </mxCell>
        <mxCell id="DAmpRFK_-s57hyBg2NIy-101" value="" style="group" vertex="1" connectable="0" parent="DAmpRFK_-s57hyBg2NIy-118">
          <mxGeometry x="19.659999999999997" y="90" width="458.69" height="70" as="geometry" />
        </mxCell>
        <mxCell id="DAmpRFK_-s57hyBg2NIy-102" value="T1" style="rounded=1;whiteSpace=wrap;html=1;fillColor=#dae8fc;strokeColor=#6c8ebf;" vertex="1" parent="DAmpRFK_-s57hyBg2NIy-101">
          <mxGeometry x="69.69" width="51" height="33" as="geometry" />
        </mxCell>
        <mxCell id="DAmpRFK_-s57hyBg2NIy-103" value="T2" style="rounded=1;whiteSpace=wrap;html=1;fillColor=#dae8fc;strokeColor=#6c8ebf;" vertex="1" parent="DAmpRFK_-s57hyBg2NIy-101">
          <mxGeometry x="139.69" width="51" height="33" as="geometry" />
        </mxCell>
        <mxCell id="DAmpRFK_-s57hyBg2NIy-104" value="T3" style="rounded=1;whiteSpace=wrap;html=1;fillColor=#dae8fc;strokeColor=#6c8ebf;" vertex="1" parent="DAmpRFK_-s57hyBg2NIy-101">
          <mxGeometry x="208.69" width="51" height="33" as="geometry" />
        </mxCell>
        <mxCell id="DAmpRFK_-s57hyBg2NIy-105" value="T4" style="rounded=1;whiteSpace=wrap;html=1;fillColor=#dae8fc;strokeColor=#6c8ebf;" vertex="1" parent="DAmpRFK_-s57hyBg2NIy-101">
          <mxGeometry x="279.69" width="51" height="33" as="geometry" />
        </mxCell>
        <mxCell id="DAmpRFK_-s57hyBg2NIy-106" value="EN" style="rounded=1;whiteSpace=wrap;html=1;fillColor=#dae8fc;strokeColor=#6c8ebf;" vertex="1" parent="DAmpRFK_-s57hyBg2NIy-101">
          <mxGeometry x="407.69" width="51" height="33" as="geometry" />
        </mxCell>
        <mxCell id="DAmpRFK_-s57hyBg2NIy-107" value="C" style="rounded=1;whiteSpace=wrap;html=1;fillColor=#dae8fc;strokeColor=#6c8ebf;" vertex="1" parent="DAmpRFK_-s57hyBg2NIy-101">
          <mxGeometry width="51" height="33" as="geometry" />
        </mxCell>
        <mxCell id="DAmpRFK_-s57hyBg2NIy-108" value="" style="endArrow=none;dashed=1;html=1;dashPattern=1 3;strokeWidth=2;rounded=0;" edge="1" parent="DAmpRFK_-s57hyBg2NIy-101">
          <mxGeometry width="50" height="50" relative="1" as="geometry">
            <mxPoint x="348.69" y="16" as="sourcePoint" />
            <mxPoint x="389.69" y="16" as="targetPoint" />
          </mxGeometry>
        </mxCell>
        <mxCell id="DAmpRFK_-s57hyBg2NIy-115" value="" style="shape=singleArrow;direction=north;whiteSpace=wrap;html=1;arrowWidth=0.3;arrowSize=0.36;fillColor=#f5f5f5;fontColor=#333333;strokeColor=#666666;" vertex="1" parent="DAmpRFK_-s57hyBg2NIy-118">
          <mxGeometry x="241.76" y="35" width="14.5" height="30" as="geometry" />
        </mxCell>
        <mxCell id="DAmpRFK_-s57hyBg2NIy-116" value="特征向量" style="rounded=1;whiteSpace=wrap;html=1;" vertex="1" parent="DAmpRFK_-s57hyBg2NIy-118">
          <mxGeometry x="204.51" width="89" height="35" as="geometry" />
        </mxCell>
        <mxCell id="DAmpRFK_-s57hyBg2NIy-119" value="" style="group" vertex="1" connectable="0" parent="1">
          <mxGeometry x="27" y="-1161" width="935" height="379" as="geometry" />
        </mxCell>
        <mxCell id="DAmpRFK_-s57hyBg2NIy-46" value="" style="rounded=1;whiteSpace=wrap;html=1;" vertex="1" parent="DAmpRFK_-s57hyBg2NIy-119">
          <mxGeometry width="935" height="379" as="geometry" />
        </mxCell>
        <mxCell id="DAmpRFK_-s57hyBg2NIy-1" value="" style="shape=image;verticalLabelPosition=bottom;labelBackgroundColor=default;verticalAlign=top;aspect=fixed;imageAspect=0;image=data:image/png,iVBORw0KGgoAAAANSUhEUgAAALAAAACuCAYAAACWa4e1AAAgAElEQVR4nKS9ye9tS5bf9VkRsfc+3a+5zWvyZb6Xr5yZlQg3qMC2PEECGQzlkgEhwEz4Byz+B5D4C/DEQjJUwcBmwggxYcAQCVDJgzIMLFeXma+73a89zW4igsFaEXuf370vqywf6d577jn77B07YsVa3/VdzZbT6ZTfvHnDV199xePjI9/3EiB/77f/4sd1Xcc4jOSczo534sg5k+1TQf4cZ/vAOETIOb83oPq5DbacPy/+fu+V9RuRMhY5//LDI7BL53pdPU/GOQdASumD4z47pXzge5jv4UO//5d6yXv/e28t6hDLJ/NvnIOU/mwJkOU7KdeZ/wbQW/nA/Sw+Cr/3e7/Hf/n3/h5kiDkhUCe4Dj9nUs4IgogQgiflTIrxvQlLOdOEQIyxTvKHJrVtO6ZpQoCYks2Knj+ljEgGscXOwves1wdfzjmcc8QUZ4HNeh8hBKYpIk6v5WQW4JQzyYbqFtfLORNTpm1aXcwsi1k8F0K9Z0HEIZLtfhI56720bUvKGciMwzividhC1vHO58v6Rs/hHSklnPO8Nyny4bkW/WJ5GDnns2P1vY5bTytAQgRyTnaMt8nR82UcgkMygCMTaRrHNE0sd6GIO7uOAGK6RdfcgRNizOQcEZfxZQ5d2SJSp7ycA0C++Pzz/PVXX+lSpFRv6kxT1dVZTtL361pByJjAO1cnoJ6mCrYzjeMW34kdn+oxZ+cWXbc/S9MUgcimDco1u65ltI1T7lFEyDqXpAwOznZ5TiqETdOQs5sFRwBSmZYzodDFzohAjFE/c07Hn3JdmOU8Pr3XedzZ7rl8tlQyv34Oyn1++LzLY319HyME78kkigIr53DO6Vw50fXNgs1YnQu97wy4ek/LMbiiuYsQC2SKVZpw3unWqJuKxb/lvc1zcLOuyencdGd04MuL5zzfUJlEEUcybeecQgDVouU8703ffCtl0XIxjfOi6bnPf+lcuUYRGDu+7Er7d7ngoNqVnPHeE1PCiZRLno2qCGOZA5B6Le89toPPtu+sD8r8Jfvd4gjbec47hRJPNOD3vbKNqG44m6Sna5LyPN/1O7vmUiktfzO/TAsWQCBO5ylOFc4VOahjEKnzU85RIJIeV2b0yWyKs3HOEygiOJwtmFpeMSU1j/18/HVzLgXYOU+KkZRT1Y4iy6WaFyPnxGq10uuJcDyddJFdIKbp7IY/uDALU5tzRtAJPJtYUaGbtdX827KgFRPaVC1xaozT2aZ6D+58D75c3ut7mHChJZ1Zj2LmndnGnKMJXtU1Z2P4ELR6XyOeH1eFJ+fvPV6tjlQrNR9nQoXH7P1iMt18L/ruyXzYpixrIN+n2R05YbLjcW6GLs6VeXxfFtxCiH3FCLPFFhuPWq9ZUYiCl/c18OKX7y1omcCiAb1ziPdMcQIzJ1KEUJYQ4M8w9/hZAz/BlDpRmGBkRBxNE+iHoU66CqlnmsYqKE3TkMmM46TvUzpzmkTkPQEGdSIXRl3/LCGO3dd8bV8xq8q2auAiwE4cZxJVzvM9+HV2KnPFfTrv56cppre6Ub9WWRTsISCZJKats5sFhFnIMnEeS12AxTiLFcrzaVmcZ4mnAcRlnYcPycFib7gFtrWbAsPY5xrYEEB2TwT4vV0dFjO29Dgz3gdiTjgnpGRClM10O4BEYqGFn9jrIqhSTQcL07qcfMzh4kwjnWkxEbxzhjUVO4lbYi/Vz9mcqeXC22UX93yu6aj3vJjT81k6/+4p5DFLVpmVp3iqWvv3Ma2a2icLv7DK3vsK6eaxzyfNOZGznJ+7SANFAIuwiSodmS3FfNWyRgmFffo7Z/5sXhy31M7n0EUWxyxu0iy4k6fXnOelavBcNC91DOH84CcaFxDvcaLMQFn4lBNt19IPg2m/hRbAQZ5AbHfLvAGWL8XPhi8Xml/8uSY5Q1B1sWcnYP5YEOdJKeq1TWiiMSViE30m2ClXk3t274JisqeDKNd8b5LnDfP05Rbnzblg2ve/T4sNo1qsHnHmsOUn0/nUmTuHJTrHZ36GmwXYLZSKYttMltmhdFLGVcy3na/83wRqqZtmoV34Nyzh23JDZpuDQmzMqz3Pj6vrV7S1jV6v0TifEcUv7wmwOUzCQjsXzKmuMOI8JJl3XoacI0giiZ/PmZ9MtEvzeQDvPCmnpYKZj2XhNNXzzUaep+bT7O2HMORipt+XhsVXkv3ig7T4zbwoBdY4cTjnP4hLl/8uMfASKjx9LReyQDB5cmw9d93Vy02+nKPZl8kohMguq/llIdgo7MsLLfgU487nUpkoCuCpM1wU2dIBm8+3wLIFZmJ6zq69VG71fKJ+jxPDvqYgAwTapiHlRJpyJezVDJw7G0p/FsHwJliCeBUG55SjLNqkaAeHwJILXNxsNnQRczK8eD4ZSz7W2QJlqVNP2zSM07RgBEybTBHXNCQz3U6cYSzVNAnwC+1XflevVGFPXoy9CIZQoC1ZFszNQujt8CUkmbXmezjEzj1v3yWFVBZe4QJnFuN9uLP4TIzuMoFSHJqUpqxaGX0vibKmqjGXTtOsxZ3zM84Vm8ml9ixa353/Tr/W65/fq0OMdhNTeCo3rh5XdbbouFyhaMURRJwS+6KOECxlLdfJyjlXAVZtqRvcmW3OTs1oTqNyreP4BAstzFW2iBuZaMLjQ1iKyHxsMvEQ1OSZvXEIMSebJDMx4hAbZ2N8L07wxZyJqONS5hoQMl4KIwKz0zk7VLNXvFgkoWJUdbh0gWZtaxYj2zLUGyvbxxZjMTcF5pSxFLxYnCZQuDazjB/AM2WkzoIA9aRlXAIoHZjqXQpzQGZhvl2Zh1mLFyETcZDMWZUz9THPn5vncMbmZZMvHP1qCxyCrxoYbLnrGpSNZfyOeKRrt1mcKLmeTUuJIzPVg0UsyOGWGrKYA+N9c4Kc8F7mY/LSkZp3fBlQzhm8V+z1PaG2xbrjnaubyJWJoWyuWSByzuSY8E3Qc1d4pJ5rsjVVAzvTTDrWMmbjfMm21GUYDsomEHNqKFrR17EuTeD5K5OJ9ZrOBZsbM+F20zNEKNrI5qNOyBPHrJ5+1sxFgJfqI7Fwhp/AumrtXN2OVVnMsqDzUpVaTswbabkZTWEYbJEy+AWmzUx2OfM48syzk13Fxk5MpkTp1qpeRAjOm+wHX+dC0ZI33ATiHRDPuLjKqxrp7MWTsuBEYUTbthpSLBrk6Us0FKoe6IdM6uJl81O87iWG0ndlV89mt6yvEwFvcKCY8Ccnn7XcQnAX0cKl552zmAbWqGUyD1034ewxO85ZHWUhUt1oeu6iBOy8VZMv8frMJS81sYirEEeK5GXDo1kwIna2fiJm+TRc7ozxqQqlzGA9v1ShE7NcrvrkSkFmg1nvYeA6l0qBaZBCpz+54hclmwdTI8XpX7jP6m+6es9KDPi6TZxA8M4/ufj8crIw2Vm94fOgwvJ9xmWPCHgXqsb+tcL5xMl5+n6hygEIoTFWwS0mYHncUtdQzZ7SfO697/WYVLXajFfnsdXPLYIshvHIHkStgg5xIVzlSmWzkxdO55Pr4WxhIOdm4ajOQlsRfxEqCsMj9Zx1Pg3T5iK0T86iNqOMb562jAZ2CgOiyLTclgp/lnljJeE9wT2fV7umiOmOQtsVZiRDjggZJ94Es3xXJsgspegcZXFk8cWdJIsQ3qNhctkTNnjT0D74KjB/psb8c7y+X2iX/58dgJwTTjzZGQ78vhObg6lvDT9XrejOrK2ZF7voEucV0ziPZ7YitvxnxHwxe1IAieHrxYaRhCsLYqPPppZKGDVVxmEWzmxjq8M2IXCLHASRp7NRQs5CsrFLFiIaQU0ya92ikBKONO+sOvIifE4giZjvYoi5HF4MwPKzChPmLeRsngqTAJOOVDyz2XT1fqONMYkDp8d4QwYehR5BnDujpHINGsysQxnQvOP/5QX4Qy8pWKdoOQHMSSpotTiNqXjMUqdujgRWHTObLpmPqtdTszULpvm2+t3i6GwTm8UZflWQJQXTFYGRgpjtLIuwWRlr/R0ztRWLhkEq9lvo8eUMVUuS8HWuRIQsxQ+Yj3Vl/rIJUgZccSIX8yICFCzuKuJ3thSSS/DA5qbcx9nIzkPzztajGLNs1lzPUzDvhCOb36XrJXWeHcnmRFxQSIQz4dfzezIhODeHGm3hCrZfDtC5mdOV73G4/kVeSyjiziJFVAHOmAbJGYc3Daa6TbVWSSk08TSBKAJcKKQ5pybbe6nHVgEsGhidj0TWKBYGF8rYlqbTNFL5MIvYQrlKEhTovQwE5HIi8Xq84T/Fta5qzeUqKIzx4GzzOK/3KsXplrNgSBFsHYaDhI1vqdvOVqRajjMLWzT44sjCHlHvSOFBcY6fbr0si++yW5xvxEtCnLfN5inEgG5QZ9o3VAvpivbNgpNEKLH6Ag8SiVT438Wwlf/T4VeTZV/nim2W952KCgdK1Ge+rYLrlmanTo841SiLqZDsERqbPoMzYrKeLZfXBLFosyyWlld1ZKr/U88t2PVkNtPiK3504k0jBtOehdIzbSGFepwFGBNglVxn2s0ggQhkpQtTdsbqzJxnlqWAl+vMM5bPplRNahRjG4wnTphDWDl1qT/STZXMiixWWAptN2NeFkdIMV95hkCFzV0uX6YEaZ4IMCrAqSRwJWVcJCfVwM4b7C88dJFJIUtQelZU0XkRpmyiniFgTtwssg5/llAjC3Ez0XPBsu6V1sjlokWQC2dn36lZXZLTMjsJFGpHzr4vYdBiwCcXSQTTOGY+idVLdQYpclk4025egpml4up4E9xgNFOZaWMTirPgdMxSNL2YZrboFuIR8cQSNTJBULhtBq78DlcTXrKU+VYN7JxqU1ddfNN4zmmkU5Yqn7oRioOdqwCfi9IMVT7wWhitYrk+HFwpwmzY2dZcE/yTDasIv4NkdCwLdbbA55qbQRXylNTXKJq1hvmLmrHN5J1ZyELpFe2fIcxBhnLZWO5sMSkFI0nNGHKy0LxV+MofJbgVK6nwZLyKYuFIbaBJCiVjXqg4DXNm1bJOdLtlicSac+ERCVUz6fswwwInZKfmyEsgSUPGqzmSQHYBkaCbp+wiCbrjndc/oFDAeSShVR4+mGI1sy8B8fo7SoUHmljkxFfTLuZ4qsCZqnCiDnJZvKrm9J5cFeDZWZRchLNIiGn9Io85Iym9lzH5RCRtDn/NEcuoadHiUMeXUtYqExMNVyxetjEmgTydi5G9NF5gZ6tULCjGKdf0RucqTar8vygedxqsKvcYnGtMEMuvC52hWrEIacGLVZOKOgcpZ61iMM0FziBswXmzQ1UxYjluYfK9d5YwDuprOtWqEshiwi+BLAF8INOouXQenK/jo0bdAjhPFG8YSgXaOYd4wfky+6b9XFDIICo4CUzwghHpBhckzcLq/OJ6OoVeqR28COKNHyabHigpoeh5ZNYyJTmmrERJHRVXrI1ue00JLXjfaDHjW3PKGowoGWpLxV2xv6qXanjK5wsEuAwS6eacf1uy33J6eg0hFUuRIKdAJi2HUCS4vq3vxDZdBdBL/iabNtY1EDc7mUgmJLdC02RzvZk59l48VFedhyKMggM/R8aKtlCNG0yjBgPohkK9I3uxYwyw4xHXINJQwrJOWsATEZzT90rbtGQXyF69Uu8dLjgkePB2DtHEGu88oWk0iIHdh62Yc2jE0DaaFLMvlrxUGRfbyjKb48IJi8s4l5ASAXROBdfwXIyjCRqId4SuxXndJCG0PN4/EKdsJtIRQoP3eu0YE4fDnpQSITQUPBuC03HnpErDOy4uLlmvNty8u+H29o48KbeqjpPRVXX/ZJJTXjbHaKtpONisQU65evqCBmbEC9VHyFZtAxZKNictRrKocMWYkCTMAaZ5E9k+thwYUV+JbAySQh+L1Ffmw8hbZrhSrFUmjGxUM2ZMm3gl57MgQbVxqtGQ2fFwrjH85WwBAyJeoYJriCbEmJnN4olknVQfqtbM4gi+09/T4L3gXaP/d4J4xZopC3gPPuCC3qwIhKDpnhlv2lRqaDIT8U2hq8zhQ/BO8x9m7CU47/Eu4IOl6VXNWKyRbV8nunG8CnCJyDlxNG2LeF30Vdfig66E99CsOvaHE9MQyVOi81umIepm87rJS3GrCKxbdcpWq7VZOAiNkHOck6XE4bwjEPn4xTVp1IT+aRg5jgPJ0kmD1021ajskeLpVh4hjt93yJ3/4R6SciFNCJOF90PB2ETYzbN7r5o5ThCBM00TOiWBObBJhMo8nC0hcOvXFA9QsuKIItK6ugNSEy1JlogZC6u/PlUgV4BCuLNrmgaDm1t6LsW2zIxPI0oD3JPFkZxhPFDcqNmzwTavphc7bhKgZF+8VMxq+c85b0kmpXIBSyauOoApHzpqPrFA14/2MC4P3eHHgBe9USzlvPKE0il3FI94bcNdIWOMrAbQw7UIIwSxJnIXWNnjOSVM+00hKxXwLPjgSiX46gROaNjD2Pd42SLdqOD4c2W53HKeBoe+53LSkTrXZOI6knDU7ThxxSgSv8+MkM/Q9fd+z2axJOTJNE3EaFXPiLOHfM/Y9XbdivVnT5hWIMAwD0zjNBjbBfn8gp0x/OOF8wAtc7TZstxtiTBwPR3LMxDRBTuy2O66vrogxcnt7y3qzZpwmHh8eCK4hhMDj/pEUk5HH6sCHoOVlNYvuiTWjrICxE7nmnNvGKeKfSrJ7BWT1u+B3P9KTekeSQPYNyQdS9qrWxakwSwOuNVJZd6kPAec94gulpOom+GD4zSG1frpoMTFBNf7S2Xuv5rEQ3SE4mqZRDGhgqZp3tNK3n0Y9xrRoipMiBgXnmqaZElMeQaQ6ECEE+qz1e0XVzAKsdWNFcJ1hZM0Cy6Qc53sxzR9CaxlUGd84ulVDjlGxKBAnvebD3SOHw4Gu64iTCtIwDgzjRIxZ2wC4QPCtQUWtMpnGkXEcub3fa8Wu85ATMUZiTHVuAMYpwn5PTFromXNimiJt0+G9J4TEECNxGJDNlpy1UtsJvHr1mjRpkpU4r5bGZXKMnI5HTqcTrQ+s2o4XL17yJ6cTw2kk58w0RYahV8XkvdVXTqQ4kcl453jx8iOOp57j/jgLKhaZsyBMFkscy2b0M4SSa52tPUFQSrfxAXnxV/+bLE4FIHtH8l6hgy+sg+JJRPGdmujC1+kr2Y4pnLLzxQwvYmJeqpCrSfI0weMaR9M2BB9mmAI0TaOClfSGYkyM40jf91p1ATOEARXYpPhPTUuhpkra5fkrp4RSYbluDDFPOpmWLv0cRMAHV5NfFF6UBB81t6VixXtH23q6TrFrzlqOfzyeeHy4B1TLb3c74jjivGeMoxXFwjBNtG3H82cv6PuRYTip0Irw+Liv8M/5QPCacxLTSIqJKU6IlA1fkoZUXzknlBzfaZrouo7Ly0v6vrc8j8R+/1gz95wLeC+ExhOcI6eEt3zv1WrFGCPjMFT6cxhHEknzutF122537PcPtF2Ld579YU9KBn1KrnjxAZzUNNtoOHyufldpX61anHgiE8EHckyE1bNPjcI1WqeAdkQlPRuBbwvpzFuuXnMhlZ1FSUxwZrxCxZnFq1Xv3jRzgv40cMynuim0jksnNcZU85RjVL/bmfOVs9MmBhXUqwA2TWCzWXM6nRineMZhOq+bL8ZEJrHq2hrfBzW5Keda4qKc54SMBUbE2j9DsauyOOM4Vk3ovefi6hKRbHnOjhQ9KTWsupbtbsM0TYRmhRPP42GkCRtSSvgAwzDw9t0N/akH4OLygv3hkWma2O52nE49QRyr1Zrj8UCKyZgBrCLccKYrIRFlL1Ia0eSmxDRNHA4Ha5KigjoMgzJB2SEu4aNnnEbImThFmhAIznE6DboeKRFjxoVQIVYmWpTO8fDwAGT606AOKlIVzDKrcCqWJFKb0uSFo5ayZU5MHu9giCOEzDSNyOf/we9mMROpZILCAvWI7eZzsoLIRYKLczUTK1glMGiIr1T/lrQ50wH22aydxZJsUo61fCmVLj1kYhwJoa3hXxXsRAiCDw0xa3cgDcLrZsopM+V5obxz1jNBz98EhT5939MExW8qeJ5h7BmHkRizCWm522jUjo675BWU8wbvSUkX0DlH23WK60NQrYiQJk1cGYe+FgyoExZIzFl7U9bq6RwzWNmVZuAlq7yOeB8o7o8PnmkalBcyFqCmBkjhaHX95vuZKzZUEUG3ahin0cy3w4dgXYwG7aBkTVlcLkJoIXuhbn59F7XSqLhnYjb1SdL7nDjFLFdphhRenKrxBZlc6UZvlKFkguIJjXaIKmCKxxhjxDnTuk4ZigrICzEBVXjrOGJSSEKpe0MxjpuToDMRzWdOiBc8JfSp13dOWG8uEByn04njsa+CP03g/AQ2Hi8OlmXzKZM9tiGMfM+JZHhSzWikl746aMqiKL+TMhWm1NxV5xDRNJ04KSwgRVLKTIuNXZ0g87BznfhseChqcoy39lzTNKfW5JIPYUKSa0gIslPzW9NfFZylKWl3nGpy5xYFZNXCuXBdlMTyOs2Ve+6Pw5y/LJlpGImjdjAiS3WkkliBQGEWxNIwM2SZcyzyQoklu6iABnLMQ0sxUfKOncgi17jkNSdq3YiwEPoS4EmEsKgiyFF7Bii/aRxi0nq1ikeK+siWN5FSJacFRzRNZ5ibbE1OJlsKTdTIlhKpk98Ez4+//IJ3b9+xPx4VE4fAbrfj8fHAer02bz1a1TFWyZDJKdGs1sRpIibFlDEPpKk4WxieLZlaSkWVxJlsrIf3Ae8cUxyQNDfg894xjhFStto/ncwYZyjxwWqSmCvXmXMkjRNNowlRqUTMiuXKJSvOJGERSnM1ASiadz9rNkvrsZyNXIzzXO6Wco0b1JRQwTow2bjPomFFsvXf8yZ9lmVXAiU2KkULZQ40CaoSaKXmXgqQoQqvIHjxJrzlW7PIaJi4pPYq5ChCbPctStmFGhPOqkljnEASMlnOgb289xY+LPhX8SDk6khJuWnTss55mrYjo57wulurWW8DbRtomsZ6OURev37FMAwEYxVySrx98xbnAw8Pj8UoIOJYr1Z4HzgeDnTdiuPxiCDa82yayLaxSpOTYjVS0uZ+c/adjToLQz8iAqFxFT6V+dA2S5GlnC6bpKQUTYsvymVsPnNK+ODxbcNutybGSNt2FTOXqma9N9U8wzAoI4Gb1z8XD6GGHuoGC+K0o1JSm1egk2vC3LLAnNKyo8+UcJWu+VXGX4RvFsHz69eDy28kG9KV+cizc6uVy5IrX1/3a7EkQEyxZtm8l9ORyz9CoMamjSWolJiz0Kr+2IkzL1eq1qnHU/pGaFpc13WERmmw/ngiThPOmmbsLneM00jbtBxPJ0LjGIYBUqJptHPjMAyAWPfGkaEv9XmCkLi7e6gachimmsxShLVsjnEcq6C1bQsou9H3p1kjq7+hmsyx0JJJnSM0bOqco+tayO5M++prhirOOeOShSYEmrZhvV7Rtp7dxZbD4UDTdBwOBx1zSurpNxqQmaaJU3/idDwxjplT35PJuNBoPZ8xI8kkxiF0qxVxnFivVjSrluPxRBMC4zRx3B90YzvBi1juxyxwLMLCtb9HyTxcprma4CxlqQSIimbUag/TqgUpmBZdwPL6d2nZoIOaYY8TLFc7caY1zl56fCiVDmKUj+76aC0yNZY918IlZKEtVFMqvowxaRBBhCn2xOQYx5GcEqtuRco9Gbi9uyfFzAOPqqnixBQH4x5L5EopvHFUwdU0woTgdYziUIiazElwVdjIQOtrQxPtHJStT5qj73tmWsk0imBIMwFBuWA8k4V4x2lUClEc4xTrpkiGu2eHV5mJ1WplwRb9bJomYux53D8wDD0xQpwmfAi0bcP19SUi0LSBEITQOGIciWng5cvnvH7zljxNDLF0QkpKQ7Ytu8sdp/2BYZzYnw5klDedpklhT5GuhRwsnfEKe6svcA6JzoIOxYnCrBP1x1Wr1z/aFYXSNmEWuXItZTaKI+mW18rzec52DOfXdwghTRPZKK1iMUo0TKMp2s2RXDogapdGZ17p8XgixYQPQQntmCAqY9G2LZLh9vaGmAGc9iA2U+PFGYKxXAkT1JTUc++6FXHSRhw5J1I8n9hlBYWU8nlrMbWkaeZFmXtXzPOiQty2irkLX60Q5cgwaE7DOA6klGmaDu9LKwI14SnlKlgxjuz3kwVN1JKFxuvmdtD3vdGBs0y9evVWC2G7lvV6zX7/wDge8T5wdb3j6tklN29uGU6TUlfTxE9++hOOfc/X33xD35+IcS4WTclqQqqjXRArZ8JZkoyqJapzmxeOUvlNyRkpiqzk+Jjwzh59zf0peSiz+C2E07T3wt88AyZnpEUZb07EODMYmUxoQqNE18IZqW01U2QcpTaKhsx6vWKz2XA6nRBxXF9f4V3Lw+ODaT3sXKpBU0xGTxTN7aqHrQLli2+ME0uv1CpM+n4g+PY9MzIvwqxdCu50lFavSuLPGmQZwswVq4qIBU0ywzjgIqxWK2IcGKfehqlwIQRP0zTKPIxmjcyhKCbYext/jpQQeJwUujTBczpNiOgGG4fBNojqm35M7A8D3iWGYWSz8Xz36lv6YSCPQhptszUdv/jFVxoYMAzka2WN5tzOLb2MEciVYppfi/+XWjMA54zNQFh231yyDFWWFTCgdRIRRDVjYVaeavMlgo6FpUqlsHOxPuX3dWcVFLCQeDJhyqlGPeI00rSB9Xqni+FaTqcTKSe6rmO/3zP0E0d/YrVa4bxnv98zjY9nHXnK8Nq248XLj4gx8vDwoHyibTXnXTVD1Syg4d0UJzDzH9Ps7GTTaNU5M35W70WdAuWOXYU1TaN4VAzTF4ycsnatXK02imnjBDmy2Wx5/uI5+8cjL1++5KuvvqbP2uUyeM849azXG7tO4PLyipcvX3A47NkfHulPR7TnReKjjz4mxsSrV68VOkyBtuno+5NRRDquMUY26w1N24t1VJcAACAASURBVDEOJ15+/DE/+ekXvHv9inEceP36DavLDY8PR4ZR+13EOOGdo/UNwzAo9CtqrCS62zqnDJt1x+XVZfVvvvnuG4ILteO7ZpiZMw9kc0xFPOICUloY1L88HuWCS2/izWbDqT8CEEQYhrFauhLEqP4K4HLWahdn0U9zqMU8dq0MKuyV8huy2GiRjPz87/7P2TnHOE1s1h39MCgTkdF0RFR7bNZb7u7uGceBTDKBn9hdXJDN8VIqa86wX63XeO/ZbXfc3d+RYtRM/qztT8dhrBtq2RY1Fpy5MPOF4/Te8pBjUjrMgjAxjqzXgSmOvHjxnO1ux/XVNTHCV7/6hpgSXbuibVt8gINFtrpuZQ7qSNN6Xr54zpu3r+lPA1OMXF1e03Ur9vu9RRnh408+4vH+kZvbO6ZxYpoSTWgYxpHNZk0Ijvv7W8Yxst1ubfzaFgAcQ98zTVGZmc2a3eUFr1+/pms7Uo54DxdXG55fXbDb7VitVpz6nsP+COgmfPXqFYfDUQUugQ8NKSaLjim3LkiNPKqGTtUZn1JEJLPZbplGjcypA+WYpoGYJhrvGadEFnXIIZFypLToojjITcs0RVbrNS44xmnk8x99Rj8O3N/fcDzsefH8Rc3paJqG66trTTMVdTb7vufwcCDnORV1vV3TdppXczgcuLm5Uzp1mGqzcfnpf/KPcgktei+KH1FBImORngmyCuTl5SVv37yuDETOWRcxTufxa2tCUrzmEILlH8iMQQ1SINSknFW3omkCt3d3lVUQgcvLCy4uriz6J4zTyPF4JKXE7mJN1wV8SGy3KkC/+tXXfP7FD/num0fevb2v3r4q65Ex9gTv6bo1MSruXm9ajscHnr94wWa9Yxgmtpsdp9OJ0+nIx5+8YLXquLq+5PHxnpw9v/zFV7x7+w4Rz2azZbVaIZLpuhYR4eLi0iJcE90qsNttWK87cp4Yx562a7l/eOD25oHDQdiut8Q4kpjYbdcaQXPqixyPB5z3XF9dMQwjh8OBcYx47y1PxfPwsOf+7sGq3pzeW4yQoq2HNjB3Qb9brzu22wvatmEaJ4Zh5Kc/+TEA+/2eu7tbxinSNC0xTxwfD6rxnbDpVlxcbvmL/+rP+Gf/7I85HnqabkWWREw9m82KZ9eXNE3Ddr2hbVf0/Yn1ekPTthyOB9qgrMlhf2L/sCebtd9sOnzrzQGO3N3fIzhubu4IIXB7c8ft7SPyw9/53ZyStvjxQRNNinfYNo3i2Cclct7pA1SKp/20C6Q3M5+MognBa7JHSuoUGrfqnBBCo3kBoa2eaX2oiFMmw3vHs2fXQFanMSVjP7Jp+o6PP3lOjBOn04nbu1sExzTO5Lj3wnrTAZmPP/6Ipgkcj0ec83z22Q8Zx57Xr7/j9vZGedopQlaHqOvWdF2jCUJew66bzUYDBUkx6P39I48P+pSnzWZNSc0cx5Htds04jUbRZcZJ+8eFRvjss4959/Yt05g4HCa60BJJHE8H2raroW+RZRROGZRC101TZL8/sl6tOBx6UsyVSy1WrGsC2+0WcdC1Ht94ppgtSarndDgQ40Tbtay6FZ/+4FP604FupT5IGxoeD0dib1sjQE4jV1cXbLcrxCX+5E9+ydhrWgDO137Mq9Va4YoL3N3dKhQMXnvXZWGaFPPnmDns91xcbNluN7SrVgFEgmmK3Nzc4l1j8+t59d1b5Id/+/cMoqdqqtXJKUkV6ut7H2pAYLtdE6OZg1ZhRpwiU4yV5ipRO+c1V2AYRyPxtbL4dDpxdXXJbnfBw8MDm80W7zzjNLDf7wHhcDjys5/9jJubt6Q0MQwDx+OJOeFcLYD3mn45TRHnnTqhyRxkl9luV7z86AVXlzs22y33Dw+kCV69emMhaqFpOk6nI05E2RMztdlyE1Ka8N6xu9jy8uVzttsN+/2BV6/e1KSb0ZiJynrYhm2C9mhrVyvipPO83e44HB85nu756V/4ktdvXrFZrfgbf+Ov8Qd/8P/xeBxZrTZst1vevHnDarVmu9mR0U0ek96jc2KUp+Pq6pqbmxvNZ3El80wVQNuFeg9dF/joo08Z+pFXr99wd3dPfxxYb9aaiG/BnMP+ERHh+vqKJjiCdzx/9gzvYbfbEBrheDqQ0sT+4ZFXr97w7Po519fXiqmd53TqeXjY8+bNW969u+XF85c4y+W4e3zkk48/5c2bN7x+/Yapn3jx4iMuL3f88R//Kb7xGgTyDU1oub9/0HA6wmq14vrqCvnst383zxjTyHirKkhxLp5OSeGEYmLHNI6GCT05KeQYhtFS4TQjKzRBzWFMTHHg+voZq1XL8ahmSL39yGrVcTgc8S6Q0WSVlBJXV9fs948cjnuEjG88x0Nvzo/FxNHss7bVxw6kNNG0DV3b8OkPPuZwfOT29h0ff/wRn3zyCUM/mZl9BALH05GxH7i8eg45892r18YDg7csLdWCwuXVJbuLLa9ffYeW/ihfLlK6wysF1XYNq66jDQ2ffvoJ0zjSj5FxGvDBcXl5weXVjvv7G3zIrLqWw2HPumsY+oHrZx8TU8NXX3/F8aBJ6jFqKP3h/oH1ek3TaDPv0+nEfn/geDrRtSuOpwGHZ71eM46Kc0MTaFpvCUOJ27tb2qbjdDrhnFemB7N2zuGC2OMahKvLS66vLxjHnnUX2O0Ul5ZsQm0MGc0Bg7bp6LqOKap/dHNzx7Pnz0kxcX934M3bt6QI725uCW1LExq89+wf96QIOWkO9qtXr2vHUqUOE03TEZxnHCc6gzTy2b/3D3Mx/97rjWcy/amndKEpfGbJJUVq75kagNhutxwOGtJFNF2xa7X8R2unSlRL8W7XaYL11fU1p+PRAg3Qdq1BCi0vUnoss153bDYbHh4eyVkq7BASTdtweXnJH/3RH3L97JrLix3H04H7+1uOxwOCsNluGIaRh4c93jcMw1SdxWfPnuGcp21b3r59OwcVvDbd3qw3ZBKn05G2ben7I19++WVNdjr1PTlpvur1s0syI47Myxcf40Pgm6+/5tvv3oB4Up7YbtZcXCrWvb2946OPPqIfBoJ3PNzdc3F1Bdnx5u07m3vP0I/kLKzXa7xvCI2zfNzMt99+o2VHztM2aj2++OLHvHt3w2h41Rn7kKwkaf/4SAiBL774XBOb+pH7u3tCaKyuVSOh4jThvVgyR+bycqvBnRBYtS3H01HTSMWxWq0US8fR4MnEy5cv2W42/OqX3/L6zRucOG4fdCOu1xv2j4daCfP4eNC8ZzAopKHnAk+X/UWEjHz+O7+bnTjWmw1939dJWUZA3u+FlmYiOkUSycKCGeeF1apjt9vxyScf0a0afvGLX9I2Lev1jm+/fcUwTBa7n/NqNaEsWvK8OnjaiDlzcbEjNIH+dMI5hTK3t3cVgz979sxCxKNagXFivd3w9s0bmibgnHB5dcGLF88REW5v7wih4eHhARExOHPF4XC0yNg1Xddwf39P27a8ev1KQ65G7/jg6fsj18+eMfRHcs78rb/1N/njP/4TNtsVoVHMuek6SpW3axp++atvuLu75+Hhlru7e3KGzfqStlmz3mw4HY9VSejDGEvJUsB7T9d16vFHdbbevnnDb/3rv8Xv//7v85Of/AWmqefq6pqXHz3n7u6G129emxA6yN74XU1E2m52/PjLL/nm6++4ubnjdBwZx54QWo7HY+0Eenl5yTgNrNdr+tOJ42nPMAw453j+/DnjOOnap8TQ92w3O1KKDEYGIOpw7/d7Uky8fPmSx/2e7WZNSppHfXl5ac7bimEY+Pabb/nkk0/YH06kGOmHnmlMhBA0WJVlfvDLF7/zeznnTNO2lebQtMdZhksWUzHZKdmgHapRtpqg/dkPfmCRrMww9BxPezabNYfDkeBb+n7isD9RSmVKLm6hzErZuFI/hY9MWgKfE6f+hPda8FlpIa9jvbi4YJoyu+0Fp9PAYa+5Bkr7RS1RahtAS1/WqxXjpIsbfIP3gWHoubjc8vFHH3E8Hrm6vtJyG+eN/ml5fHzkeDhwOD6yWrdA5vr6mv40cHP7jqZpuLjYMAw9/fHE9fUlofGs1jve3dxwfXXFOI7EOPHVV99xOgjJ8plrr+USBveOZ8+ueHxUym8cRwuYqDPZti3b7QYngcfHB9oucHl5QdsGxqnX3JIUSVEdqVPfI+SKqdu2o+/Hupm898QpqTV0loBudFFKGeebOQhl+Fqpz5Yco6VQqkIqjzwUJ1VRpZys/FIFa7e9MNZG5StOIxcXFyoTOXF7e095Zt3jw96KSieCd3Rty3azQ3702/9DLrH9yiY4OctiKhCjeMHeV4qc62dXbDZrC4Huub+716yoPOK8JpBr3qfHh8A4quc5TtNZzmjBlE2zfPJOSZyJTJNyxt57Li+ujV4Zjf5a8fzZR3z99beIeOI0VQakBOs0YKfVHC8/esZnP/iUpmm5vb3l4eGR29s7xvHEi5cvuNhtOZ6OfPrpp0zTxPF0IsXM6TQCSbPPUqbp1BdYb7bstjseHx9pmhVv375lu12z3W64urrC+8zdwz37xweapqU/DTgJ+NCyfzxyc3M/Bx0WPDo1gd6UCHP0UJtDuwrxylqJlMfolueOMD/AMuumz1mroZcpplrp4q1pSUmecudWUsIZ41RLu3JJPZD6XTbuu2yAOfppNXze1ydLdV1XS5uKrV9vNkhdf6piTTHiJLPZaGaffPbv/8MSe7EbsHChZT6JFSuWOibnnFIrZLbbLTlP7E3b9X2PE6VHls8FK7kTzkHKkdAEuq6puzclGPqBYezJVjRZEoxWKw2GHA571us1Xdfx+PjIqe9JaTTTruS9tyYtJelZH7yi5+u6jvWmY71ec329Y7XulOYB7u8eWK1X9P3Afn+vvKp3NKElhIb9/pEpRp4/f0GMkV/+4pekpM7jer1hiiPXV1da9Niqc+SDsFlvmKaRw/FgDl/CSaA/DZR0xdW6o++Ps8UxzeVw82McnMKQEv4+C5EL6vzU6oVsGHZuF6tpAaW6e7TC1IIlbX2d5UsYNambpZQmuTmdtljLZf7De68PfWeNvTy1Cl3TDUa6ruHy6pJxGDidTsSo3LaGwbOxKkoIeF/wcGbse4Imd8PaymBiVOpjt13jnGZ1DcOgkS8z7/3xRAaOpxMiWNmM0/CftkE0pZANS2l+Rd+rF55J5Bi5ur5i6HuGQfsZ7DYbnBdePH/Od9+9wrtGS9FPB0LwjEPP8bDXHZ81wfv5s2fs9w84D5eXl3jfMA6Rx8cDfa/P6cg5s+5WXF9csT888tWvvmGMEz6o1miblr4f6PveNgN4lxiHxBQ1FznGzOtXbzke96SUubp6rjSWaFn/3d1e68z2J1brFTfv7riVe0QgNC1DP9ZK3WGM1a+IUyInIZZH85qVSzlDLRyFZbbNWQJ9hXrFqaYKYhGmnMpv5iSt+fhkfHfGO+3Z4ZwY3WfaNCWtOqka9Xwc7wtrPh/jUow1YZkpzxUv5eHlh+OBnLM53ANDP5jV13o+UD44xaj90jLIT/7j/yl3jYYhV13Hq9dvCD5YYo6veTRlV3jvail3dkq2TlZC7tBu6F2ndFho5hKkGLWStB9OXF5e8OMffcm3337L4+Mju92Wn//855q4chp48/a1Qo+cCD7QtJ3hMV3Qw+FIjAM/+9nP+PiTT3j37i0vXl5zf3eL9w3fffeGd29vFXsHjTCFEAhNQ4wDLgQiWbVzzGy263qPRXNdXV3z7t1bNV1S8gUSm82ax8dH2rZjs94iosWQw3BSTI1iPbUsU10454LmRVu+dU6ZFy9f8mhJUJvN1nDuoCFgVxqdFDG0vmKm3eSDgjO/xBWT7ec2UFXo9AGIuQgwQs6J7XZD03T0p5PVwf06Lbu41p/jmHIX5824C8wocySM02BtGYofpqigth0TzQkvlKD8xb/7j/PxeFTNM2WLnCjvOI2ppibWucxZM46cQ7wGOqZRE92D0+40zmfGOCiXPE3kpJ77brvTXNbgmMbI1dUVq1XLzdtb2qbhcNrjm4a+P/DZDz8h58TpqMzDMCRSgsPjkW61wjnhxYsXfPvddwz9wGThWucDKeaa4ti2rUb3sN4JOWsbJZfrs8k26w05Kx1XomnelwfE6Ca1+lM1/dbcLqZIEzrFaTnXubG1AbJu4jTjwRACm+2Gw+HIZH0tyvWKgJUI1kLnnhUU/DqhKY72XD92nhG2FOSlAJcGgzYllkcxd9GZBfD8usvc4j/PaymsORuQsQSfvh8onZWQ0uui3Mc8dr+wSqFxgRPC8dhr6NLM3VyvpYkzqTzV0n4aY0Rs8NrjVTvUrDrP9bNrfKvPMjgeDhxPR+I4EceR/WHPbndBjIn723tupolTf7AK2ImLiwtCaLi4uKJtdVH/9E9/qVGYKJoMnjLjEHn37s5uDIu8NUwxV+wUs4aenS95wqoRc5xou06jbDExTpFV15lpdXM0Ee0vNgwD2RqJbHcbnHeqoVB2ogSsM0DSJChNWNeWW1MaKcn2x9ORKU7Kl05TfZbzOA6UB+Rkg15x0vEmC8f/+TXdrxOgOV9Fxzxj5SJYT4//MKatR3zP5/nsmLZpNJWg8UBmvda2B6XYAFALEBqurq959eoVMUYuLnZsNhuOx5M5oJlV2zAMvW6AL//2f5eHUR/W3XYd/Wkws6mgv3QpLymJy5xafSKnELwuevAO74Smawldw2H/wI+/+FwLI/uBX/3yK8ZxYndxye7ikndv33B9fc3z59d88803xKhmrFtv2B80sWMcRo7HkwmROWdiLa9E2yoVR04rSJZP2CxOjdC02vgvWrJ9CA3kXLPnUoqUB4aLld8n04alfKnr2irIziJCGEZcthIITcM0jpS+aaIUiAmmBkh8UOEvORU5az5ytrq9ZLV02vCFGq4uPTpm4VqIjOVTuoX2faqxn2LTQmGVMZZrPBXg8r5u1IWgfhjuLtJks1agKPWqx7d1PaYzGAFUZmKaJkpnpNKyIKXEdr1impTzl7/0n//jfHtzS5oSMWuTiXIuLcQQCy6cNyEuwYwQAq0PmnfrEqu25TSN9EMPkrncbXl+/Yzbmxv6vtc84tBwe3uPE8d2tyGlSNu23FkG2vE01RtHNKSteb3WztVouVIMmXIES7YO1uuhpFu2XcMUR9brDT50OFfK9E+s23ZuPzVpgWqBHiG4umm9c9ZdRwn+MkfL1NECtRCp/TKcnxdcK1Q6g2dTpZxSSgzjgLeexF3XMfQ9jfdWTJoYoi3WQjzeN+/nwlk66ms+C7P1tAzBkueCCXkpaxdgWvb1WAh3EWXtFMoHr1teTzdPUYIpT4uCWMX63rIa1ZkXmqatAq0pJaXCRo8rz/bz3iMf/9t/PyuIV+EdF5XBHl8jY07C2eCKdlBnQz3Ex8d7Li63OHHsTwfW7Yq2caQ0WUsojSppsnnm+voZh9ORxot56IlpGpkmqzfNS62h9E2ME03TslqtFhOo/O4wnIgpMvSKLT/55GMymcOp53g8YcjO0icTTeMIjfVHM228Xq/p+5EpKTOi2XBaf5ajRgq91zS/lBLb7VaFcFDL5UwDlzRS7x2T0XVGEOCRhW+RakDHh0A22CDiMGbLWtzO/TR0Y4WKHT+kXSuVKNoFEie0OOJJo336CAqvT0o1ZsIZk1Rq3ZwsoUO9A1gKcaI6ueS5HUGMidWq4+JCo2x9r+zMNGoa7PIRaSmVynGDTnHuLlQo2GUhbUmuF4TQtMp1lnL4i09/wOl41KrcMTPFqS4GzE3kpnHSroeAJuB4ttsd3nkeHx/BCdvtlv50ZBoTbdOx213gvOf2/o6uDRpeJNH4luPhaOY9a7M8cUzTXPmrm1arPPS7qVYLi2ROg1ZibHcbLi+v6bqWrm15eHikH5TmcyKkmCnPDBZxxHGyVk8RsdzTYdDoXXaey8tLyGi18DgS0VRQdbTg8eGBpm2VlLcstNPpZGPWBijRWInSMCGNytp407IFk6Yp1h4bKU/W3HqGH5p3cl7Y+OtwsYbiIWShG2Erns16g/eZMSb6NNHniX6MRATxrba7PXvsRN0SlI48SGGP1QFrQku36jgeDkQr6b+4WNP3A7e3t2Z9GhNce0xDjkZxqiiWzV60rXPC1dWlllMlbbLjg69RQAy2yWd/6x9kzUiyBstg/JvjeOgXkyFVeHVxokVOCk+nk+W9VNJ7tW5150xRzbxtgpgSbbcyCm4iiLcwoyPG0sRCaEJjbZ6Uq97utuSctS2UVXRksgVfEt1Ks8BO/UATAofDnhAaw7bKYqSYqyPjfOmWnqu20geHO5qgmjQaea/5BNqIpW7iSYs3nS9PMXpSA4ZGnDKlIFYUdtjGK0xOTEk7ugPl2Tg551qkOutvY4DEKZNSrlOuK6LpVyK4nPE54iTxrF3zDEcYIj6N5ByRELTLjvdMPtA7uDv2DDnXrve4UKOALjh94GlM4Ap21SDDarXSjdurvFxdXhFN8Q2DVrZAtsDPmvu7O426tq1Bo1IWNvPCxWmdrEFN6f5ZghiCOurym//h/5gf9nsyQp4Walq3l/Fwue5m7Rch1sHRAgFtqylxhz3a7idUM5VK9W5wBK8ZX4f9ARFfzUJogpaAI4yxOE2ag1xMbQ0vn3H4uZa66AKmin9BbIOJdhxK2vDeJUd5CA2LZ+0oLAoVMojHAi2DMiTjREpaEhXHqWq/Yt6lmGrd7bMwl/EWc8/cIHFKidA0eHOOc7ZHBIgGgryXet9d12lldAmRu5kiE+sYOglEIivnCcPEtffsvGMjDpkmfNInA+njX2EYI03bMEomemH7/JrN1RX//Je/ZJ8S0rTEBFGUjQniLTnKczgdDJ9mbfBXcL9TLXpxcalW63Skdvgxh2CutJkZkSXXq7nEigiKz1XmUgMb1mjSOeTTf+u/zcl4Wm+ZXslyekPQJ76PxlKU1qg550rYF76w1LRNU28CoSFnEe2NK177FTRNQ3/qLfcXTscTw9iTphIjt12/cACUJlPt5comMlykbfZ3HI8H2rahbVtrnNKx3x+UUTHuNoN1CFfGYm5COwcGCrb+6NOPePfuRrdJytpBseZvLJwSERDtG1wexVpZgrJuC46VfF5e1W1WtQ2Wcw6itijFfAt1xGYcSDHjZ3SXXqhrW7qUuHCBS+cIw0Q4DQTBHu0Q688DmlM9DAOXVxesL7acpoGHxz0ZR2wC0TeMZI4x8TD1pCaw2e6UqZrMsXLa2LBoyhnyzW23spX5i5SA8vkrJ2V2mhAqJlf0NN9jilEtnRV9ighNE/CXv/Hb/7UmcGfbHQrGSzRo9qKxLpWWGIKrAY5oTZF//OXnHI97Li8vNNvJEs23mw05Jk6nE01QB8fhaIKvGuk3fuM3+M3f/DnjoPV1l5eXGl7e7TiZA1Zi8SkXjauDG8cBEaHve+7v7xnHiePxRPAahSuhVEFqu9iy7rNg6eMK4qTpe3d3dziBw36vDu441t+XaS35HsqOxKVxsFlPBL/AkwYTnGjXHgRNIRxHzeay+rWYs+aTOKmBhmUrq0ptie2/HCEOPF+v+ZFvuTieaMdBAx85a4/9DJLtMVck4jSS8sTPflPTMN++fsNw6pEh4oaJJkI+nZBpYN0ErrYbmrbh5u0b3WQxGgukVmQYYn0OyWhKrCRrqcZdiO4T3C6gsiDCi5cvubm9xQfBkfAy4EjgW8acYILWN7XwWP6V/+i/z5osrY3ggszlKDHDOEbGoVAfeZ685e6XbPSHtl+aJuVJ1xai7bqWd+/e6jPbRFT4ibWLZeu19i7jtDaqYKEczbksaYY2CVISQzz1eXVSMqakWoPSz6ywGU896kroS6mK1ioMQciSLKFEhWgpQIXS0QcgWuDEIEm9hu36tmmUdUmlxmlmdEo0zBkMWTb1S2Y+XTlX7RqvykMab8Wc2ln0xcWGSydc3ZzoH+4sl2IBr1BnO+XM7uKC9XoFZG5u3qn184KzZ+oJ1lLXgTg4Dj3bq0uazZbVxSW/+vYVKbTcnA5El9ldXfP63QGhJdGDDDbkYI7aPNdFgDWNtfSfjtYeVivPh5yJ6Z7V9BV/8y9nbt4J/9fXP2b12Sf4Q2Z4PJCyEgjh5Yvn7B/3PDzsab1nt720zKlIjCBZ+5bFSbvuOEq7TNWGbauL2LYe8ULXtbStshSPBtY32zXPr6/JCW5v7xA8u93akoGkCuNmveP127fGOMwVHNm63OTZCdZFXghVCMGghQYYinWYSf/iQ+a66+czzWY/Zw0bp7oBTGCKOUSbhOjzQEQDDQ6mqBUKY69ecxs0U22YRiTl6m0rf7xoECIlfLvA0otIWVHrJakmWjm8TGoxJTgeDgeG057Lzz/nl+mBH/zkS2ToOX79htPxSBdapmlku17xycuPePPmrXHhR+s1rA5qts6kU54fjxUQvvzhj3jcHzi+uWX/zTsaEaTLXE8Z1zWEfmJ31XLxyXP+yT/9p4SwArGNm3OlvMQ2ZiTisjIKwTt8XkMKTOkOF9/w088v+Ot/7ed8cfEFP1n/v7z+LvP//ME/4dj+FWTa0joT/JyRH/+7fz9rjoAQQkvbrhQuRGvnlLJhlIm+eIzeHsXkwHt9bFXTalXx7uKa/YN16UEsjzfx05/8lNvbB969fUfOmslWsKz2+mooj2sdp8QsaK6gmzmiswy2SWmMna1gFCsZGo3+W5DyT2CRqvpcLVpxNiokyHqf3jeVzNcyq9Ii3yOSiNmquNugEGmacEDbdlxc7Li5u9MSpgJAKWyMPUHIneO9IsClTYHzJc1VM8Y22x0P+z0iEHNke7mDnGizI6LZgW4a+cnumouVmv2Pnz/n4d077t/cqJUtc7vwX0SctadVi/vJxx/ReM/rV99aOkHC4evTTIcxkXBMeYKw50d/5UuO0vCHf/SOYXIkhCiQHYRGS4amlI2Z0ZQAlzN+SrQyIeEt/9nf+Tf4T/+d39KnBZy+Znr97appmQAAIABJREFUf9IPG+Tlv8l/9Q/+D/75Lw504YIhZiZJyF//L/5Rfv3da0t8dvVZFTlGElrO0zWt0iEp0ZmT9Pi45/JSe4mV6EmMkePxCAjb7YY0aYOKttXuMcfDid5qu8TMvffNwhNNnPqRYZjOtGMh5ZVWmUxTaWn/quvIGfOOnYWcZz6R+SzVmSrdxlVg7Tgz55Q8WpI17LZIVe3YmKuQaWhUndnQBFprGaDZeqVTZqcb35QEaDRK4/t7Smd8cXPTxLox0UoZcVZAankTU5zITiOk4oREJDivz2qzRtbOCeSJlEYudxs24gjHkVUSDm/ucPteIZjHmhNq48Smabh8dmUVFpn7h1s9nzXejtk69mRld0iCR1h1mWkNfQi8ve2hWUHjicER1is2V5dMqNN+PPVMOHXkD4988XHLX/2t5/zlv/Q5/9rPfsBzmXDW5DAECF1DpOPrdwP/y//2f/O//u9/wokd+xQJ4/COq+tA167Ybq44nQZub29w3tO1HU1oaLz25C3PiIu55Xjac3t3w8Vmy+F4ZLXqrL29CsM+JXbrNatVSyaxvrxgt9ko7WIdv9/d3pJz5PLiSkvdDSeW3NWl6Y5xnLvCGJZs7FEBq9UKkpYxDcNQGY4Fbjh70Esx2c6VrogLdi5Z+6Mn8YGS9yFI1dopTTV6NZ56Ruw5a6IPgkxM1htiouSUAHRtRwjWAnYa1GlO1pxUimcG/dTjQ+B0ONF2rWkx9SEkqSMGIE4Ys3XFF81fmaYyfytuHiL3REI/4NPE57/x/7P1ZjG2Zed932+ttaezzzl1ari37jz2wG6SzUEESZEUZVKiqIEUJDEI4MR2ECexjCRAXgIneUnQAWwgQeInB3EeAieBERtIlPghkZIYSmRRUCsS2aJENmmR7PH2vbdujafOsOe91srDt/apajpF1p26bt0zrOH7vv90l4nXHL71Dquzc6bTCev1Offv3WM2m/H44H2auhGLgSgKbko2vDwe6wfeSIuzPffu3KVY1Rw/OcPSo1QvcHQU4WODGo9wXcGqqoiyEaMoxmtFvXrGr3zpFX7ja58mNSWTsSahwqoICVlPSbMc6xyR65lFHV/7hZdp/Ij/+bf/FJPto/6VV3/HHx+fgTfYXrFaFeR5TlkUASzoiSMTjKE9yhi63rNcrul7S9cE69HI0HQtaZyys7MtnOK+Q2sJTIkiQxTFm/inKE45n59TVDVda2kaKfwHs42BTLQ5GZEGxgeugpyiZkOGaep6Q0NUOtqcYh/ogH+y+1UXC3iYvQ5zpo2LOyrkTPgw0tIbxUPXdUThOpSRopxUcSRexL23AV0iyJtkEduQCaLCSTnE3to+3HCBGxEZTWd7okRKmLZtwRPI7xcZI5veCA3hJB/KKq0ELHG+h6ZHa4uzLbFT3N+5gmo6mrJkd3vGyeFTFvM5WZSgrSNG0eI3CfbKB/KTVqhIk09zRqOY4+ND2kphXAz0eGrplSy0vqc30GlIpxPyrTGT7TG3bu/y1S9/nA89GJPFPaNomySCyPREWjap847xZErbdFTrkuVySWFbjjrDf/OP/5C3n8VEcZSxu32Vp08PWS0roihhuSgo14WUAWH+2XZL2rZhMpmyLmqcE/fJOBJJUN8ItNv5jrIQyDDNIryVXC/Ci5DEshmaXrRsAGtb0QY7+o3DvhezOR+aAO/lhdyQncNC67ou2Ln6kLDjueTCuql9/aXG5LJaYeiIN4PxMM6xwVaVAKhISeLEKyKEt6RxHE76AK32bJhl3iu8Fc6H44JBpo1BeY+3dsOZ6ALrSjLdOrI0lYwK64h0TFuG/LUAVUvnrthY+Gt18XScD5ROg47lzG+7BpwTES6gopTeOd5ezFFAEivOF2ds7+2wv7fN47ffJal7RkrRKdmI4vWhsLZn78oeGMXp6THHthXY2xss4lfmnUNzwZl23mEST6oV08Txta98mg9/5A5X91JS48mikSzcwUzHKazrsd7x9OAJbd1irQ+5eh2+r/n0S9d4+/13iP74D/88kFs8RsdYW5PnI3a2dynLEq01Ozs7eN+DgrIo6ZqFQM9KFpDWMc5akjRlNMoYjUZUVUFZtAzhdKIxC3FZzgUHbnE3vFhUChPqwYHgIV8joIPSir5vieMYowM7re8xaOJQow5AzHBib3gDl2qCQSWiFHhzISAdjUZkWcpyuQrVx8BtKMjHOTeu3+TZswO0hgjxQFitCrRR2MAPBkXf2U3TqYPHwsDzcM6DkcfXd53kFzsXssg12iuqdQleNn7nggGid2gtJ7HY1loiLaT7ywHaw0QlDjeEUlqC0xVgRLqEZOJgjQAiPRoizfl6TaLh6ssvknvP8vFTmtO5+MhFmsgoHr74gPffe5/VaiW+0Eb6E+97nG03JAmvQpCPgXSUs3NlxGTS8K//m7/CSy/dRqkWrRyjOJH4rigijaS+F8fTnrZrWC4X1HVN31m63ooDVLfk/tU9ovYMdf/L/6V3jpATLHO7ru+ZTHK6rgXlMQa2tnLyfMRqWeC8pyprGZU4CZxeFwVNU4c37UKxavuWvmuFvRZFQhdsW3pnSZOM3noRJdrQ5SswQRhq+15qbmfDIpb6EdiMyLTWuP4iS0ErFXLKLp/A4ufmCPFVIcYWdMg2Fr6CxBAIL3cg2EdGDL6TJJGETduRJhkeGbPJDN2FjRxtmG5JIj5sA8gy+Dr0fY/FhtgrmfMaE9EFifrATtNaci/UYKBtLkoDef5u49R5UUJIYvwQa6VCaTMgqGmIcHDh8XoloSyKwF+xwtn1kSLuLFeznKxvKVen5Lmi6Za8/957REDsNIaI3gnHWZDKjjiNaW0D2kME165fYXdvn4+/co+f/UsfYWtLszVNSaIIrCFNcuI4Ioo0OE/V1KzLlTR7RUFVVxTrNWUpkLRSCtesKd2E//WPDlD3vvR3/TB2woEOMQEoT2/lBI3iYP2vVKh3I5TXUkb0lsnWNqvVkshEIXFSiDlxEoe40ZaXXn6Zqiw5OHiGc5a6bYN5X08cjdAInVLHCqzUezINMPSuRweS0MCTsFZQwdBzX8YAcFxAsyo0ckopkiwDK5uh62vAhNPeoaOYKBbDksFdPgqooXOW7e0dzs7OyLKUpmk32L2zQoMkLL7d3T3W6/UGLUySRKDooDFzzoGWRTbAw8MoEAIXdxh4cxEXe6Ey/hd5wDDwK9gkCSnYRKF5hBzvQ2+hdTjFlczfcS6cpibA2IbIJyQ+xrs5senIUs/2bEwWGX7w+uu4YhVOEYF5o1gBDQ+fu83Pf/XLLBZzXvn4K5hYgerRuidNPE27wijNnVu3uXntRogzlpu1KEvWVUFRrSjWa6qioCxK6qraOJEC2Lalby1vnMSoOz/7X3gVLP6zNKWqa5pejIlVACwGPoIOkQB5PiJSmlVRoKOIJqiKRbEw4OAwzscU5ZrBMtOFgX7btsRpFE5ZBxi8HXwcnPAVfJgcBNK6CZnMhKvZWS+sLmmtPmCU7Qa+6DCxQK7gKDKMkpSyWhPHhjgd0VtH2/chRtWTpIat6RbrqrwQco4mZKOM5XJJXZdEURJuB2FLKS7ssnrbB26ylDqD9Khpm83Ya9hUXraQLEgtq80pAW6GuWwURRvfNR1YYJvAm0sTmw3MrcympAhbQH6hhUc7HAAXMbofJJ7bvue5G5aqVhwtJRcOFaF9HOByy43tKXl1zunxAV1zTrE44MreNp/53Av86q/+HLOtCeN8RJomZElEb2uOj86Yn69kBIjFuZ7ZdMLdO3ewvWe9LqjqhrIpqZuCdVHIwi0K6rKirRvqug7B4idEzQKXXUfd/vx/7o0xQmcO5PWyKiWcHkL3rWUaDcRJjLe9TBbiCB1JVNbAA23alizNaLtGBu1WnHvquubWrTvUdS38ghC+0tRNSHY0eCc1jlYmnDwep7Q0RmFTbEZjYSylw49OhXcsXJ+bS3XAYsWPNRD0hVyyvbtL23X01lLVNSCnUBRFm6s1SbIgN4pCNKsNbpME6me4giMd2FSWvb1d2rYL2cCDaDL4Kng21MrNQ0bGdpsx5PDog9GHUpCNZNoi7jxysHhPkFSx2aSSf/eBw3ljdDIQ58Nq3XBqh7+gjWJdFPy9/+SX+JM/+R6/9QePcDamJyFSMU4rTJzSlTVTenLdMjZHfPSlbb74+S/w8OEeWeZ49vSpvFfO88LzDzGRIYlTnFW8+eO3WK2XdF1DZ6VsunXrDnXTUdctTVtTtyVFsaYpS6qqoq1ryqIUtyXvWDfHfPa65eCsIOrblj6cIJGJqdtWXhzrQasLipsd7J8GaffAEJL08qqu8M5xZXeXoijR4XryTk63ra0pB0+fYoz8erEqJAtMg7deamVrSaOENB1RNUIK77sgcQrFng/XlgqNlw/jqA3deljEmyUc3lvvQ6DM4G+hOTs5wykpF7yXLr23PX3XMZ1thQmLeNZ2nd2ADoPKWU5CSfiMTMR0OmW5Ome5XApSGc5GjdqYhA/zaXUJtIDNGtrMiuVFDwZNWlGFWK7wB2ETwsXO9eH/7oPfY7NexX5W4PBwW11iiQ3Pq61r3njrjJPTir5PMRZUZIl7S681vo1JVU7PCeOtBX/jr/wyr3zoHrZvGY8SsswwGeebkma6tcVqtaSzjjROuHX7Bj/43glN01C1NWXVslyV7O5epSiKgPiWIgauCspCJmJFsaZrWjGCpKK5fo3ffe1PULc+/be9QhEnYmTcB9Gi0mBiIStrranWUkRf+AXLi9b2Hdeu7ctOaRpu3rhO23a0Xcd6veLeg7tko5Tj42OKdQlKk6YZfSceDH1vQ2ZaQNq6Xrxz6yagWqKV8lygaTqQz4dsXQgTpQ3n9tIC3pzAXha9HA1hE+oPAByb/IbQLAyhiNYPc1yRdCtUKGvEMUakPnID9a5nMs3pbcvObMbp6Sl4TdNdzJXV5lS8IKX//384eaSXn9dw3YfVPJQawwL+F5fuxak+lIJcKrdAKAFy18r303FH7jpKdQXV1jSxJ7eKRCnafsW16xlf+OxDvvKFF9idKCZ5hlGKKI7EHAVFVdXMtrbEudNLoI0YwCxxneXtd9/l+PSQoqxpm5bdnV2MiWXRVivquqIohoXb0FU1zllW6xV1C6PZVd49Kogcnsho0FCXjZwORhhJRomaeHt7m2tX9jl4ekCxXpOMcmnyXM9onFE1a+q2Ejg1jVDG8fTZY7a2przzzpuMpyPapmW1Ktnducp6uRLiS9vRtb107GG2OZ6MRfaDhHhEkTSLA+nFe6ScMLGciOFtaIM7kIJAeJGvjXS0eaMEQbtokHxQiWwycQJrTasg9Ow6eT2Geir8+6GklO9i+2CGpyRiTMP8fE6WGA4PK2nyBvLJkMqjFMpBFAWuQ/jmbiB9bHZUeH4ujHuDcaIxMdaFhHfv4QOn7hCr/sEFPNBP1QYyv2DHXTwCuXHHccTOaMx64UicQauYFo8qjvnqL7/AV7/ygBtTw/Y4l5FmJK6kSSTAlzYCMDkvzWvT1DgrJedqtaauG2Y72zx6+j5dW9M0DW+99Sa3b91ivV6yXi1YFyuKsqRpOx7cv8dv/5N/Qtt3ZFsTxuOHzE8Sdm+8TKSNp7cdne2kFvUwyUcb23ltFEWh6PuSrl8RJ548V9RNB76jcz3VuicyitFozOMn7xPHMffu3cKYmOlszHK1pG1rtmYzmqpDGt+euhJT68Gqynm3CQIUsagEqFgfLPkDc8roBOecZEYE3658nIXoL0UcmGISujgogMX7Tcamkv6+OQG9jNQuWGDqYnMoGAzpZAcF5MsrvBt4GYOCRRZHHMXkecpsNuPk6EwMY5QLcWaSBprn42DZdWFkMgA5w8eQ+uQ9qGCUaJ2YGsYmxvf2YmARfrpYxsMD5uJkZejv/MVO9OqipEBKRdsume3voYqSJLUQNXzk4TV+9Ss/xwsvXGE66pkaQxKDiRUmThjkRcZIOVW2lcD6gfI6uO4vViu8h9PTEwDOTs+wzrJaLlFOZr+L5RlVWdGFUeEbb3wfk26J2Hh0lT6+Stcafvjd7xBF2tA5ETMSzDz6rhEYWIF3luXilDxPuXZtV0zYupa6SXBKcXR8RmcdSZbT9R3jPKfvHc+eHTGb7XB6dorDsr+/R123nJ6dkMYpiohI65CJ4YPGy9O3Dego6NfkZIl1TJYkYdziKNZiu6kVjLJ0k7mcxtHGtnWAescj0WuJYkAI64Ms5YI8o/B+GE9J06i5KJd8gIilrBsUBnro/QMQJqtPpmRCburqlq4R3wOCRObKlSvUdUPXtOKGbjwuNLu4i3HYsPBcmEF7JU6Yw2Rk+H7BFiN8ddCNbuB3mVAM4hMYeoeAMbqh5pD58ZCBZkzDKHfgznj++Rv88q/8DJ+4t8/O1GHUiJiIvq/ouoY0i0miKGwkkZeJYYmjaRqiKOLo6CiIfQuSJOPw8Blt222ISU3d4K3n+PiYpqsoqxW2DTN+Y9BRwo07L3F0Bjq9zuH5iuL8kNj3RFvTMcvVWthH4Ypr2mqze6fTKTdu3OXunRscHD3h2bP32d7Z4eT0mKJosE5mwsWqBBwrtwCElndUnGCF4EdXV+zu7fLw/n3O50uU16z6Nb1tg5RmsOpUREqg39l0wunpCUkmCF/T1CSJIR/tUAcDFvElazfX5AfJ7J66bsS2ySlBswCjNJ4oBEoPro1yQkcqxmqpafFBjOkVXgdlbKh/lRYxqfA7rJRTSYb2ms5b1ueljNq8xjtHmsagLNtbY9L9qyxXK46Pj4OlvtTGUaw2kiXvHdpK2SRu9BE4LdlqYWY+1NKDtGuYGoXze3OSDw2nbNBQLGzkgAaPlGPat0RYDCVJtORLr4z49/7mr5FoRx4pxokovY2OiKMtetuI61Jwy1+sFmEBN4xGIx49ekQUiep6sVyI/ayOWcznTKZjVgtZ4MtW4tvquqRsSmH3eQ3OYFVMWyXE2TW8qXn85H3q2gbltMZcfe4XXx24u4MV/fC0k1gIOadnxxw8eQoo9vZu8s5bj6lKhyIDJ4OsYbP70CUrxOhPaP3iwfDJT3yct996h9VKDJXFUG5MFMmISQE6isjHI7zrUMqxtSWJNWW1xjvP1nSL2XQqtlVNM/yDKCWasCSJg/gyqKC9R2HxTnjEWkOSxgxuh9ZJvNhkK6fvaqJYYWIxUh7e7CSJIdg7bW/PQEHbViRJSB3VXk6iJGGUZUzGIyKjAkzciVdcX7O3u4fyMJ+fcXx0HCT1wVA6/FtCZAoLLjhWevwFOBHGuiqcvgwb6vJq3TRqsPkvPzFak+I3AyK0alG+Iu5aYtvzmU9e59OffMDf/Ne+QaphOsok8yOJwTusBhuBjwwqeIOcLxaA8L+ttZyfzynLgq7rOXj6hDiKWS1XrFcrnPOcnp4G5qBmPj8L5uotvteypmKHMxm136Fux5ycFpyendO1HbExaC+hh9FiMQ+FOEzzCXZQ5SpF29YhE0yTj8cYE7NcLnDekmYpXedQzm4647Be0Jow8wyDTDRZlvP+e++TxDFb0+lGkbwuzkMZIVMIoyGKFbt7+yznZxjjsa6haxuydITrWg7mZ1g7TAtCKeeV6LwGuXcg6Zhge5WOY+LYkCQC50bxCGMUTdsy255RVmuS1BNFMgvev3qd46NjpE/qiSNBIb3vGI1i8vGMqiq4c+c2+XiLw6MTAWUc1HUhZi8a8klMEoy0p+MJbduyOF8AniwVK9gWkZyD3hiLC6su6O420WNDkzfU4fLSb2RHXJ44bM7en1y5m9PZqxqlIrAJia157g785m/+Irf2Z/z+7/0OO5mhDmNlHf4xFcXEeHTnRWOnPJ0XHODg8JCdrS3W6zXL5VJO1+WCUTri5Pg4PDfPYjHHeRf8M6RU620Htkf3LVmas9YppdtjXU/Z3b7JO0++i3MKo+NNLK7yYO6+8vVXb9y4JrxdJ1b8aRLT1hWrYr0Z03R9S92U9LblxQ894NOf/iR1tWaxWKDc4N4YYM/QuSvt6Z2gelkScXBwINd71/Lih54jSQ1XruzwysdeYX5+ztAQleuC+fyMtq35yEdewWiD7Rx960gTCX/Z3p5RrFdE5sLZRYUTLE1TIYIrEU3uX7tKU9fs71/Fe8dqtaTve9q2YjobUzclbrDLjwyu61itF0wmE6ztSOKIPM8wRnF+fh58IGSi0bYNzw4OqeqG5fk5YNnZmZFEkol2994drHOUVc1ycc7p2SmbQEkBGulb4VzoYCqigL2dXWHaKRiojP6SwmSDXQyLPdTgA3wsi1gPZy2baDI9bHqF7RWjqOfatOXrP/ci/9Zf/3lu3rIkquc7f/JtvvD5zwdgxwTcw2KNwjQN5Y9+yFv/wz/k4PU/ZnbrOi5JKNue9955B61EYFtXFa63nJyesF4u2d3Z5r333uP117/Fk6fvs7u7TdvWrJYL+raVRZxOifc/wklzlcPFLr2/TlnFPHzheWazbYxK0cT0jcc4TbS/f4Wz0zmr1RLX9Tjn5Rroe1AimfGRQesIjZg5P33yhMeP3gcMW9MJ61Up1yHSUYieTq4HowIfwEKW5PgelDa8/eYj2lZUAaNsisIxzlPKqsMokUzb3vGdP/2OBHzEaSC6aJRyLOanZFlGVdZESSxc2jRhPJ7QduLNJhyElsXinDiJOTw8QmvF9s4O6/WatvGcnp5w+9YtukbcDs9O54Bmd29PzikvPIjpdMbj9x+TpomEsWhI05g0GeGcoaoa8lFO17acz8+4euUqV6/u8/ab74abICbLMuK4R2tP0zUY7XC9RytP34mz0Cgf0TQN8/O5IIK9wyiN05AYTdN1KDVkPslYbRMxIGcIg+pkUAU7739yyWPwTBL46Aszfu0XX+aVF3PGowWxSug11HXF6ckZs+2Z8DAcxMYQVyu+94/+Ecf/5++i3vwx/SSnPZ2z/bWvUsQJO7MZJycnVHWN7YVZlsYJ5/M5sdHMz045PjpkPBVFSl039G1P0xpK9jHjuzx6lrFaJGg9xinoteK9Z+dkccT4yj3yHc++AluVmNntn311uVhQrgts1wlsGvBxhd5YHw2eu13rKNYNtje0taNte7I0I0nTTTwtl16w3lnKohDDukg8IZTSrFc1feeoq5b1es04z1gXS5IkQuHYv7JHVZcb763Bi6xYr9AKZtvbjEZjut6yvbUtuXNpysnxCZ3tNkpfo8UPoW07yqKgqSsWQWx69+5dnHMsFnPiKGJxvhQvYy0h5lf2drl//z5Pnx4wn5+zXCwhEJqMFp6tsPCC/VEr0QpV1VCWFVVZopUmyVK8dSSpaOS0Ea7EcOUP9E4TXCltkPOoMC/uug6jNJPxeNOkDTcOF8ODUE6EVs45CTAfyo1giQcWrRLoa3amh/zb/8aXubalpElLcxITEUUJn/3s50KaqZhdp0mKt57l47f487/3X7P947cYZy2+Knj39b+g2JvgdrbBRzx5/7Gw5bREgRWrNd/8/d/nrTff4u7du3zvje+SZhmzrSneQtN4TtcZh+WMZ8WU3uziXIv3Fo8QjHSU4E2KNRFl71jVHY0HoyYfe9UGj7ON2+PmZZLmbCBpO+c3uivnJHzFh7C/rm2xXUfbtxeNh1IYozfRs2qo75wXm6IwynLes7c346d+6hWgI00lBtYo2N6esT2bYrSmKstQn4tB9uJ8IS9QIWmR3ovb+mw6lfIikiARrcRoW5pMObEiE7NaLtmaiFHHarlmb3cXjaKpa+I0Zb0sOHj6TLwlrCeJE/LRCNsHXzgv5JdRmtJ3HUmaijmiNmiv2N7ZDuidDlZXa65fu0pVV+ztXaEJod/C9fDYTjgmbSOok+1lbGZUkC11ndh0OaGZJnEsTV9Av4wyG25IkHPLbH/wq1JKiE42IU3O+Ku/8RLXtoQllo4SkixF6YgkSYPqQ0g/69WKqmho+57J7eukzvPou98l6nuaRY1SOY+Xa3Ze/BCrXvL3jo6fURRrTo6O6G3HO2+/Td/17O7MWC4XbE3GIchwxPEq56x6joYZSuUih/KgkAbRRAa0TGRscALCyK0UmTB39EhRrJXa3EjaDx3uBztZpfwHSdTe4gDrA79UC7ZzuRazwVtBDugLWblGs3/lCtPJhG//yXdYrVYCFRtIEsUv/MLX+OGP3uLNN98Tt3MrmH3ZFiHPwWw4sQ/u3ePK1R2eHR1T1aXMI7sOVHC1CQvY43F9T9u3HNYNaZLw8Y98lOPTE86KQvgQZSnIXFDqdr0ghk0l2WUGyT978OAB3jkOnh5guxaweGWJ0owkjShKmTD0jViHHh8d0XQt52fnIcI1wllhtcVJgrMCu3oXGtHhZQ+ollLDKMzRt22YRugA3IRZdaCaCpdCRJ9KRTJnNj34lqs7IyYj4arIG69BR2DEHUfGd3ZD91ytzhgxpjhu0J/6FHzhM5z/36/hvGWeTSj6hHLdQSZE/ceP3qcoCpTWXLlyBWMMy8WStm25e/sOyjssnpUfcdwm1CisFaPGSIMnllslsPecdRe2UlIXARqzdf0Lr0rtdLEghyc/NCpClrn0+RN/tlniw8LFgXcXp7S/uOMu4/IgRnBxHPHuu+9IyIo1gKQN3by9R99XHJ08xXtP2zSkSSwARp7hXBfyzAbFbM/Z2TGHR89omzpMI3RwpAwXipOaEwRC355tMR7n/PhHP6KsKqbTKbPZjOvXrmOtqADiRMK9+64jieLNFe6sEMOXy+VmIqC0jP7yPON0fkZRrjecYPEmrkjShKtXr5KkCcW6oG06ur6jqmuJOwiBK+KCdCGvv3RiyKTHRhvHHeccvWMj9HTeCRUyHCSKkHeiGzSehzcNr3xoh1FqSNOMPB8zzsdBliVTpKZtqdpG+AzKsl4vKauWE+u5/9GX+eY3/5BnSrH7xZ/hpV/+Kme+p+wrnh0eoI3mje+/wbVrV8Fbzs5OyMcjdJqAFxpp5zLemyey3b9YAAAgAElEQVQs+120GpPnYwRUCYC42mzfEBIvMi8TQC/nHGbrxhdevahbh9fHB98AH1b8UNMOv+cDvx+gHjkxLjULagO3B0KKv5hxDovAO9brVaBPwmBgYkxClozZ39/jlU+8gFcVthVXyzzLmExStOnIRylJmlNVHd63aGO5cfMaWZrRtUE94RDiNJDEMXmeMRqlJKHE6LoO24u3g3WOuiwpqoqd2baorZ2jqWqMVqGcEI8GQRI7gvuTNE44trdnpIlEtnZdj3Jw9epVyrLEe0WaxMzP55RFyRDdoJX0Gm3VBEPtJETh+s1Yc1B843xQzySMRxqjJXHUKkOWxjJJQUAYg/CAVWAeO1piFXF7z/HigzF5GjPKRkRxxHSyxeB/IZu3p+2FbiqlDuAs1XnByapi/0Mv4W9fZ/+zn+RRvWBlK/7oj17jfHHO888/zxtvvMGPfvQjXvzQc8K/zhKcjvA2pu9jzldTivY6Tu+KbYEO9rcBNo/jmCzNQriN8C2GAPZhjZnZ9c+9enlSqMLpqMJiNMOfXfoM0MUHsPeLvx2+Rl22ug/r2RNcKH1IowgnRrAtxctQ04cwwTb4e73zzluszkv6OsI7jTKwXM75O3/nb+FwHD49xPaKtilpmxLw5FkuYEdZo0Lt7oLspe87fukXv8Lbb73F4nyJbUIWBYP3msdbz+J8zmq5ErmMdUGL5/G9u3juAfxRKPpw2xRFQV01TMdTuqbhlY98VBrYqpZm2Vmxhg2PS8wHQ3llHSrcNiD1s1AzA9a2GRlqNI66fpe///f/fY5On+L1Fovzc2netIy9BlBDBzMTVM80mXB92vLc3YwkMYzznDROyceTcIjI69A0NV3XYq1De+QE9I66KWhczZOyoE0S4jxjvl7SWss3/9nvkUYp48mYt99+m5/+zGcoyjVKe9q6ItU5VZWwbmesux0sW0AcYPgujFk7JtMpbSPSfqMVzvVkacLe7kyEwgoiA2Z2I5QQ6oNLkXACD43W5fN3QxgZAIzNn14s4GhIYhzSHKUb5GKcE5TFfuioFdPpFO8s4/FYEuKNpqkrDp8dsjivKdatEJ3bmju37nB4fMS3v/WnnJycUhYN43FGliVyitYNi/kiJIPKpvDek+cZUWR47913qes2zLi7S1sxoHdKkySJSI58cFrvOyIt+RY+6PR88JEYwvuMMSK1957VUkITT09OOTx4RpqlUg7g2N3ZEeGAkj4A5GcNGwPDoQFUAVr3Qd9mjMF5y2yWEccNq8UBf/5nhxyeLkP3b4Jmzkhjpz0M8LOxpCrh2lbHg7sZ0zzh5PSEP//edzk6OiIfj5iMJxTrNcW6CImowVrWusALt5yenGBaha4sv/U//mOK+TlGaZaLJc8OnvHg4UPquiFLUrSXQ6HqW1bFhHk5oXa7tH4LSOQwC0QqDyGLutncOtZKnV4UK+GqIPNzbRRmdvPzr8oJOVzvF5/hB1AiB9chPfEnF/BgEXX5PB44CYP53gexzAuEaFj8aZow295ib3ePs9Mz6qam7yR8UK6/4NSoZGoxP5vz9tuPWC1LusYGUz4Yj8c8//xD8jxnsViQmDjY1ttNvrINYdlieh1I45s4g0CgV5KFEcci7owjA95hMDRNye07t6jrip3t3c3TtsP3c15KknCSC+1RXDQHlBIFdVOjlaQ54eRr5aqUqYMZ3HrC66TDREesWS11U9DWlq7qOTua0NERTMMCZ1qjnHC30yQTcMdYYg9b6YIXHuYs5ieURcGjx4/49re+xZ9953W2JltsB3d0uFgPMj7UFGVBnua8+eM3OT095gd/8QNu3LqF1or5/JwPf/hlvIP5fM5sa0pVLqnbjFW3z6rfJ8ruUFUxSsXBEkBuZRNFYtVrBDgZ3ID6viOKDbOdWYikiFBa8/zzz2O2b37u1UFjdcErUJtPECAiy0YbgoxMGH7ixA4lwlB2Ox/k4l6YXUPJMCzzARGSxy9klL7rODs/pesasUYK46UBFZW/p6VLDrNSb9mYY4sfARwdH/H0yVMiI5b6Mg6yGzRpUP8ORZBS4jg0+L0N1b8xmvF4HEj98swio9nb2xOf46bh1q3bPH7yRIyvrQQnIobxw3ffbFXnxPfBYemahjROwVm0G5KXPPFgF2Adm8irS9f6xo1TB2GBsty+eYXjI0u2leD7DqNMMAcJJYqGpumZjCd4VZAoy4t3DNf2esb5iK3pjE9+8pPcvnmDw2cHvP6dP+XevfuMxyPSJEV5T11V1HXFcrmgLEuqsubJk6dMphPm53OOj0/Yms7Y2d6ma3umW1NOTk9J0hHnK8eyvk5R36ezCVmyzTi/wt6VHZarc8aTMVprAaRsHxyYdOC+TIL97j3ixFAVdVBuONZFgXnwytdfjaPoEo1vA6oDkoi+f3Vf6raulZPsJ5QElwDLTSERytmw+PwHvn4ASTYlR+AEWtsHmZHe1GKXcwMvrF2H7vpiIxktV0vXSUevlcRYZaMRXXsxm/ahkfTeBXd1+e5aa9COPB+LEgMdmFTQtt3Gh832Pc71nM1Pxe4pEh82yYeWDakjBd5uHrNS4rYeJ+IeHycpfdeTpWkI5PZBdyevn1ix+s37obTfRJypcBL3viNSEa6uePjchCcHp3TBv1l7fUG4x6OURXlF0zU4ClTf8PGXx1zZ6fjB937AX7zxY1768Mc5PnzCyy89xx9885ucHJ/y8LnnKYqSs/mc9XpNWZaiYXSOqm6o6prz5YKzxVwYg3kGAY6Ps4jzledkOWXV3sTpm3Qu5/rNm2xNpyhlKatzolSxtTWm64U7HMUXUbfee8qywPaO07Mzzs8XodmWg6UsK7SsZlk0SSreB1Ek3ygNXNuiKFiv1theZDHDbE4gS/WB/LhB9iP/C4wo5aUT3vgxDEzai0VvXYd1QhvUalAIDBsABp/bIdv3AxtI680fXfwsi3x+NqeqKgENuo4h981EEptrEoNJDd6IJi5JYtEHRlJ2FOVKxnX4YBkg89gszajKkuOTI7y3IbDboY0nihSTcc54PNoE+4l9lKO34rgzGuVIhkS/qXedd+L0GI5wh8DG4LGukxQm38vijTSpTjC958qWAnuM8S2J1sRKkeeTsNg9KIsy4H2/UYaPt0aYGL7759/h+PiMV174KHdv3qUpC27c2OePXntNQIz1mroWUlff9XR9R1PXNE2F9Y7les3d+/e5dvMmzskst2ocr7/+Y8pul8LfoHDXaLxhvOU5OX3Kuljw0svPMZnmaK04PTkReL0uWS0XsmiteGcMs3D8RfflvWK9FsFsZNueZCRk8bpuxEQksLlEyySd4XgsJn7eg3JuA3YMU4uLxeY3aJ72l6yhuOSS4y8sTSHYRQ0AQ3CwGcqBTVM1zDU9KHXJ9XwAYS7pxgZf4VDMihLCXZif9L2gduPpGLSmrCQpNNKGumlEStU1IsRUfmPt7/FsTbcxkdSoSZrQNi1xFLO3vUPXyN/x1qETRaw1RoMZj1BK0ou2t8VDo27bS2MuQRcZ+ohgg5WPRiTpiOVqJbNhc9Fr2L7H9T3jJGYr9rzy8CanVcL8vMY1HfWiw9GLpi4WfZ9y4FRHuZ5j3R6Hh88A6PuWd5+8xc39fZbzp4yShCRN+O533+DunbtY28sozTn6XtTdvQXXg3eK1aqU26/1aBdhraHu7tC0+/TRjHyq2J2MOT46BJ3w9MkBp8dnoITL7IG2HgQVCoKVrA6LdUAavFMBP7OkaUKcJUTGGOqmDplhbnOiZklClERsz2ZIoLWlbYPflW9x/RCMrXGEdCKF+AF7L28cokdzXqzzpXsUxMhtdhWb8ZDWUne4fvAxG2pyWTybUiVIgIYPjw+ujOH3fUD+pb2V03jYcP7CQLrvOvFxUOBtz3g6Ed6G69DIc+i6njiNSJOIvb09Dg4Og2Gfkw6968NkIYgkAr+xW/dB/WyC7Elg2TiO2N6e0TU9TdMyWK7a3osLULgNnQ8QvV3Ttg1plpFkMTgoyopIF9x/mPG3/t2/wo+//xo/9ckXeeHFj/H9H73Pf/sP/iG3b9xiazfnzSenvP9YBVeiGGdj0pEBDNd3n+Ov/dUXeHZ2zMnJIx6dr2janr29K5TVd5hOZpydzUMLLrC0NMGOumqoqxprNV0nnO/WxUynd9B+lxf3rnK0WHN4ckZvYd5YRukObSc8b2uHuaq+eKcHRYiWLEHnLyMQ0quksUbpmCQV/nX08U+8RN00PH36jDQVebzWmul0TD4eoZSiqVuOT44FaUSRmYRIS4pk31mUMWgTgZVruOu7DQNKgk80yZBchBLehHOYIDxv2watIIkT+mAGNyhtN+e3u8gvvsy+kp3qw66VTRFpw3iUsy4KnJfNogLcenELOGzfk6Qxy+WS8TgPkVBCyE6jhNEoZX9/n6IouHPnDh7Pe+8+2tweniEe4GI2vvnBO4a8aRvmyM45unDyJnESQnUceT6hqmqMQWxLuw7ve6zVtH1PksRo73F1iVIVz92b8fVf/TK//rVP8+TH3+fmrT1M5Ll3Z8r+tQ/xxS/+bf7g//k9Fusf8rnP3uf9xzN++//4IcfFmiTLMXFK04y49/wtDh7/kC/+zOd58/tv8e0/fo2v/fovUto11/b3Wa1X4uFxaTQlt6OQu9ZVQefXOAOLZcZqlfP2kxVONaDPSLIRxnuwhijL6No++IdcAmYuJUVJXyOLdTBe8SpkdquL11JugGC+8x//V7/nV4slh4eHNG0rFlMKRqOUa9f26bqe+fxcaptCvM9s1wcHd+gddJ1cLd4TDCgqiWMNRnImikKoXyz0ub7HcMG7GJKDNoEmm3Jj4E70m1Ik0FbCAhoWj0XhiA1c3d3l4b177G7v8fTZEW+994hFWeK8wqGJkhQdGXrbkaWSUt/13cb3Qho3txkDNk1NZIRb7LyDgcaxeezD8eHDgTLMIIdTZTj5+YkPKQUEFpUvGo1GeOcYjXO6rqOpQwyt0SRaE7Hmq1/5KN/4xqe5/+JVlG3xZcv5yYI4zdjZ2RHQxTuM9vy/f/S/ofsVuXmB771t+eZr3+dHj8+4fusui8N36IsDfvOvf50b2y3aVnhlODg65Gx1Tt0qFquOJI7DJaEgzJdFq6c4m6+o+o7FynM236Xtr4PSOF1IyhAxJpRHyocU+uHYGcrLTfkZjgCtcFrKPMfwWurgCj807wODz6H+w7/7v/gkSWialjhOZXY3m4VGJubpkwOSJBVaXefIsjFV2Ujdo2RAVpcdxbqkLGtWiyV1dUEVxGjhEfSOOIroupY02IoKkcVS1rLgL56g27zx3gkd0vsePQR5exn6+/DEcR17sy1++lMfZ5wK7U8M+xQqS/mz7/+A9x4fcOv2Haq2Yzzb4uTshGpdbCzvB6acyNXF2nN4gb33GGUugS7DApZWf7CDlbJKoS874Fz+8KAxeC2N1DCN0QHwGUy05TWbYHvPKIkpykNe/NCI/+w//Xd4/ua2PE4s2iuMN8HC1FPWNUlseHzwhGcHT3jxwV3eeeP7PHn6lHsv3Oatxye89mdrXv9uBf2IRhX48k3+xjc+wQs3r/Hdf/4DxlsTvvWdbzPb3QEVSZnVSb3vteT4oRTzVQ1mmydPLWWZYZmBGiO+/jVaDRZYmiiE+4hiXPzo+hCpy6ZPCm6lWqEiAYvqugvkMBXKCTWcHWHebonKqhSCSZJS12ucbcC3jLIR63VJFME4H9FUFZGW/N6iWLFcFliv6ayjbR3rZUFVlHjLxZQCRZTGIVvYUjcN08mY2IgdflWWUoOaiCwRaqDr7aZsAELgnTQ62oW5hffghXt7fX+PuzducPPqvkhS2iCSdOCVw9Y1n/7oR3nu9h1+9NabFMennBw+5uZzDzg9PsKjJCCcsBDCCGtgfQnT7QJQuHyCDM8RJVVNlMSbY3dAzy4dwptffYDdp0LSqPfgdfCFU9i6pmtW3L2+x1/7V7/E17/204xMx+nZCYcHz/jwyx8GL02QC021947T+Yp8NObB/fscPj1gsr3HO6+9hjYl7z895bvfecK6eUhkUqwBp2/yD/6nx9y5WjDeUhTN90miGLvsmOQx3kLvOtbzBQ5Pr3KqNmK5NtSdpq528WoMWFB1ULIDhAxqJR53Go3ynunu7gY6b9uWrhcnJJysmyRLqbuWJEpJMjFxHMaMm8buEpkhSuOU7dksCC09e7s7TKZjIqOIY9jd3RIf2r5HEXF+dipma03DfFnQWY/tRfKDD1Z7+uINbpt2M4iP44iiWOOtIzZGSDaDAZNXmxGXuEdJfTSAKSpcHco6jHfcvn6TOzdvMB2PSbRGNWKeB/I4vZbaWHnoVudsJZqvfOGzrNZr/uD113n25DGRDqwMJycagcIoMRPy+K3YT2KMYRI0bUapYGooo7nLcEWaxNgAlPhAINoMBRWbr92oh8MJJL+NUPREytKXp/zGr32ef/lf+hk+9MJN+ralqy1xkvLcg4ebnsB5H0g/TlzqrePk7BiFo60bzudzus7xT/+v3+XmvReoyhJvFHVTkaSGuk9pTIyrFb6Err/ClfSQSd5zfHLCKOvFgIWerncsKseymND2M7zeBR2Dbi7l5/nghqQ2N6gKvAyjDefn5+RpJgvbXmRGOyUIaRqNoFd0djD9ZqMsGQ6CwbILZYgUipPjE5y3JHFMXZdko4g4Udy6dZ1itaZpap574S6ahGfPTugeP6Mqa+7cus6jx4dEUUrT93Q4IiOcTmlcBAXq2hrQmzfbOxnFyWxUNmrXdeHXQlMZHHQ8fRiRaZJYkScpL9x7yFY2wncWX/dYbULtJN/TM6TpOIyBfJKxNZvx+OkBddvxmU9+kneeHvLDt96jbruN0bnXMvHQoQPWStT4uzvbmDghiROiSKK1kjjm8OiI1UpIOXGcsD2doWNDUZQ0ZSXO5oETghvQv2GO/UHo3SmN8gatV1zd7vnLf/lrPHz+Kk11zOmhYTaZ4HvH7/zT/52v/NwvYGYRg4dd2zYs10us7Tmbz2mahqYuKFcr+q4lyXJ+9M/f5jOf/RLePsUpgqmKwOvGGMpmzpf+0ufp6pZU9RwcvMmtG9s8fv+HnC4XWDLqMsfobbJ8F2011kcyglTglXh5bObsRuRRAylJOCPCyy7qSkxarEXpS/4cCsqyIJuMQ79UB3dMhwmHIuEGVhqs90SP339MHMfs7O4KjS1O6fqGK+Md+q4hSRSjPCfSMd5ptNlmPE3FzBnNZJbTNzGP3nuK0QlZmlHXnWRoWEffy6jID9MCYLDEH6K80kyAA/zg+wtiwWk36UPOe0ZZwodffAnTC+0wCi6WNox3tJOgxt5blHXs7+/T2wbbW9599wleeQwRxdmSG7Nttj4y5ujklEdPn1A2LWpILA3dsJgSbnHr5k0cCDfASxe9WC5p6hqjDF7D9mybJI5ZrJZ0XSegUJbiAik8ieNNsyg+DpdMEgGtHM7VGF3yS7/wOW5d1YxUT+xTFucLisWK7e0Z3/j1b8gYMsC7bdtRVRWrYknXtqxXK8qqoGtrlucLVusVcZbw8ME9pumMnelVVmtHPhlDV9Jah7MazZTXvvlD4thQtec8eHCH+y99iTd+3LEozqWRBhI1IUu2SSNNawM8bz1t16O0IIH5eERTt0QmIsrlPdIe4Xsj8HYbmrBImbDuYrTSdFbyUqJYil0N9AR0cuh6wq3lAfPwIz//qnOwXhU0dc21a1eYTMZkaUbf1cSRpNEslmdY35OkEd41JJmmacWt/eDZAeM8ZWc7Z7Y1I8szqqqmqkoGd/IouL+rSwskMhHZaETft+F0vvgwRrN3dQ9lpGDXStE3DYdPD9iZ7bCVT6mrahPAglbCeKoq8nzMnTt3ePL4gKpqaeoO5yS5p6s7NArXWeh7RknE8/fu4l0vwtYw9ht4zHESk6YJ54s5fd/inaVtarJRhjYRJjR5rpc8iHURUiSdpQmEJNmRNnBJxA9ZAJnh0wIW50uSZM3Xf+lTzNKSWMXk+ZgkNmitePL4gLqsmG3NOD07oSwL1usVURxxenLMer1mvV7SNjWnJ2cslyuqsmJdLLhzc4+mSHnziaVCSiHb14jmzApfJdZYOhxzVmXB977/NoulxboUT4LH0PeaqmpBiTNpUUpeXRRsdiMjJn9RJIqKcT4GLziBhOBAlqVoI9OmtuvwIWt6XRb0zpJP8pDsFBaul6xqH5pory5Y5+oTX/oPfByL/T3AeBLRu4LtWc729oznnnvAaBQTJ4bleo21PaM8pywriqKm62ISk6PQ1FXD6rykqFuOjk/pWjg9PRP4sg8BfEqipJSJyfMR0+kWdV1SlCVt02xojPl0gtKK5WIh1EXvwDoiNPQ9O9Mp16/uE2sxdE6ihMl0ynQyoakLVstVmBtHoTYQcHZg9RM4x1Eck+cTiCMOTk44XpyLKZ2Hsiq4ev0qaM3x0bHEACi5/ru2E1PuQMDX+kJ6PpjtbUKu/UU0gB94z0riqEwCV/a32N2boCNLPoKf/8JHuTnVzLamolJQjq6ztLVkOF+5coVsPAI869USpZVQSsuS1WoVDPQqikL8datyjUmm/PidhLee9jREaCJQItOJI0OWex4+f5Vr16bcv3+HK7t3+e/++9/i5LhEGjKp541KwlxWRqTeQxwlErFgLsJykiRlMpmEYKAJXdvI++vEXivOYsZbYgB4dHTCfH4OEAYHEUpFRHG8sQIzWlM3TTgE9KZHiYb57fn5KWkas1op4kTMNM6OnnF8sCCKNXtXrzDeGku5sb3Le+/8BWdnc65dvwm+Ix9P5CSxMZNZymSWUJWWnd0p5/MVxaqmKmpcCAKMlIyrynItU4pOCDNGyyy2LIugAQvjE6XxCjoPJok5rdYsHpfMplu8eP8hk2zM8dExp4tzTBBCGi2pRY7BYEUk/5LB7Lh96yZ13XJ2tqKsanpr2RttYbKE0STnbDnHGViu1+zubgt65yzHRycyCQmyH7zUeGIaGHAjdeFypALbLjCUsL4CVfGxj32Iz33xp7h1Z4dsZAIDL6JeLzgpz1m0C567t8XqfEEUaSF4G/HXuHnnBovFgrJc47znfD5nvS4oy0pIN03LcrnEOUvTe5brjreeNbhoDzMQsrSWm8t52rpmcb7k7t0rGBXxrT9+nWpdolUXUksVighHK9A3gdkHOG8wkRYwKGSCSG5IK4nykUKpmK6tMZGmbmq2r2yxuzdjMhXVzQ9/+GPWq4q6qkPQjyeNDTYEsE+mY7RRVFVFb6XZjqIYs3/38692XUeSxIzHU7SOyEdjuqYnjaWebRvHo0dPOJsvqaues5Mljx4d0DQdn/rUxxjnCU1TsV6t2N6eMJlkjPKMPE8ZT3Km06lMA9qGrmtI0pgojnC2p+s6qrpCKYjjBMIOjpMoMLS44IYC3jhMbEBDNEqom5rlakE+GdHYjrqu8WWP6zy2g852NF238VHre8soz7h39x7vvPOIs9MFZdkg2ka5RZqqYbk4ZzTKePzkMWVVURYFRbAHaKo2lABDsPjQhPSb01cPBy2gggpF6Y40s7z84Rv86jd+nhdfecALL98kG/c07ZI40YzHU5I0x6I5Xax4/duv8/yD+1SleK0pDW3T8O5772xI7sfHxzRNw2q1CvP4krossa0VL7g459kSym5KbxMMwfJ1w3BTKJfSdxrlM/7gn/0pVRHRdxldBxJOHt4Ir0izEeNxThzBKI9pmnrjk1zXNXjHbHuGR3Lv6qoKDDMrShmj0RGblNeNGWDdBBNG2NraQhvDzu4u43HOKB8FMEwEA2makKYJ6lNf/o+8ZDl0cmwbTT4eUZYFzlsm4xHjcUaUCEJ1+/Yt2q7j9OSIW3ducO3ajDwT3VKWZigPje1JR2Pm8yXOKs7P15wcn7NeleANo3xMWVQsFuKRJjFKvdSVoSse5SlVXWKUYXt7JzxJj8P+f2y9aayt132f97zztOe9z3zPcOd7yUuKIinJkiVKlixZquvAsVUXRVvUUdO6SAwYKVwnKVCAKNAEBdoibVE0hdOqbeDCaJHYjjy0tlJPsmQN1sDhknceznz2vPc7D2v1w3rPYT6UAEFegLy8vPvd613rv36/56Hf7yKEoNNtkyUpruOo+k6cksxDTh+fUSYmBi7SSqiE0k21Ot2L1WE0GqoVpUJlbIWGkBUKkSrIpTI0aZbO6uY6T58/pygLikql0YR+nsRTNSeQSJmpB1ie85gEuigRUUyva3H1Vp/P/uQrtLst7NYauWbz1ls/xHNsXnvtwxi6fiGxztOI6XjM8PCExWTInZt7uKbSPyyXC2azGZZlqkNXmpJnGZPplCIvybOMqhRo0kAUkODx7mFBXjbIUxOkAuNV9e2nZVk0mz66Dsv5HCHBc30++cmPcvf9B+xducxwNObRoycgNWzL5vLeLraj0e466LrOeBhzejKhqgrCMAR0Go2AVquJkJLFfE5ZKpOp57noBli2gQAC3yfLCqIorm8/M/q9AbbtIKXEdb2aM6w8Gbbr1Yy5KcblW597U6GAcpV8NwyiOKIoMqSoWF1dodNtY5o6rmuRFylJNGNvb4vdvU00oyKOFhgGNFseaRISJSGr6+sYBpycHhJHc9bWuvQHLXr9JkHTpddtsr29Tqfj0ep4uJ7O7t4mr7/6EptbffZ2N+h0HHZ2Vtm7vMblq5tsbw+4/cJlpEypygTTENgWquBpSTQtZ3W1yc61DSbhGaeTE8V4sG1u3LzJkyePSZOU2XRGUVS1i0xFBPMioxIZlcwpq4yyKvA8h+uXr/L08RN0wLNt8lSRxk3j3DguL/azgdvE1GzKIkeUJWUe4moL/s2f/TF++ku3kOKY3/2t/x3PlNy8cZ1/9N/99zx5dsByGfH+e+/zwgsvoklIogV6PfNO4oQ8yTk8eIZlGpyenjEanpIlCUkcoSFZhjGTyYw4jtXhTEjQdYRhUegdnuwnLMGPaN0AACAASURBVBcaVe6CtOvDvIZWT1QMy2Cl11E2KlSPsKwE09mc3b1LtTewSxInpLULW4iKlUGbq9c3WF1t0Ww1KEtBUZTM5lMc28G2bTY21ul2O0RRTBRGNbxQJ89ywjBStnrdoMgLXMdluZijoYoDhmko+uW53kID27ERZVXnqy20Vz/zq7IoFB9YPfECXVd1F8/11C+sUq9+1zPY2lzn2tU9XNei02thuybz2QRkRbvTxnMspO4QRjnLcKkeINPCcVzyQpl9PNdXm/IkJYpiFsslzWaDbrdFnuXomk673UTIkrIqsS0bz/NJkoSDwxMODk7p9jp0Wq36hFpSCdV9c10b27IwDIcn7x2yPMgos4qjo1MqURvSNZUmE9W/QmfXAK1CiJyg4RM0m2RpxsnJKaZlkZfnsL4mUodKkwhdhd7zMlda1QQ2tzYYjp7hOYLPfvpD/Nu/8Gmu766h6yVognA250/+8A95++EjfvxLP8PX/+x7fO8H7+H4PjeuX+Wzb7wBsiRLQqo0ZTFbcHJ4wHxySuDZSFFQlSmiVLliXTcoqoqiKFVDuhRI3SSTOovY5PC4Ik0DqspGYFOibig1Q+3Rfd8HBFeurLNcLNh/foQQRj2nFqysdsEoCYKA8ShksYhwbI/+oEszcNncaTJYa9PrrHG4P+e9u48YjUbkecHq6grr6xusr68zGU945927lIVK2VmWg+c7dLsNbMfAqAHpAKcnJ4BOp9vDDxrM50tA3RXkRVY/Tw6np6cYq9sffbOqyou76UoUuI4Nmqx1USl5ntJut7nz4ovkWU5VqmmCoqQIGkGT5TJWOd1KZzyd8Wx/n2gZEUUxlmXRabXxPR/D1LFMnarK0HU1D11bW2Xv8gZBQwMtw3U1hEgxTR1D10jihNlsxtnZiMlkgWU59Dpder0uvu8SNAJ8z6PRbit9qwZhHOIFDuudTcIoYjQa1iFs5fv9gDKk+MVllSNEyebWOopnGzIcDtW9vRAITSBkRZwkamvVDLh8dQ/D0HCtBlVq0e11KYox1642+dt/62f48pc/iRAJQpY4nofUld3zxvVbbGys80d/8Hu8cP0aluFxMhwzHo8YnZ2xu7NNHC7J4pAkCpnPJiwXc0QplN0nS8jzVKW76geiPJ+fFwYVPkdjwcnQpiiaSOmDZqnYqSEQWoVuKXiMlCW9TpugVTCZnJHGBVIq5ZjjOLTbDbZ3Vti7vI6ueyyXEVkaU+Yly+WSPBfMpiHz6ZLDwxPG4xk7OzsXfb7pdMJoNELXdVrNJp7nXuDKXM+h1fbpD9q0Ox4rK21uv3CDsm6Od3sdev0OGgIhFabWtHQcR1WmbNvC6G689qaoBK7n4dgqQthougxWulQy5Wf/+k+zvb3J9RtXqcoK0zCYTSe89+77PHt+SBIVnBxPGJ7N2H9+yt1377Gyuo6hmziOS9Nv0grahMuITr9PVSicfLfVwvc8okhB5EzDpOErbJPvBuiagaEbtBodiqxkNp7jWB5+o02vu4LrOnWIRh0O4jhDVhplLljME5KopEw1lklM0ArYu7qjAjypyn5IRO3jzako6PU7bO9s8eDhA2bzBVES1vf4tWywJqMry2XGYrFgOpnQabfJ05w8mzMYVPzy3/7X+Y9/+a+xd2mNskxVcKkSGLaFqIM6umXT63R59dYL/PZv/gZvfOqTDEdjRvM5x0dHaKLCd2zCxYx4uWQ2Gdev35LD/X2yVB3U4hrbr+mGugWTOpazjdXa5ds/fIZGC1BvVEM31f5eVzdbZZ6iaQJRFawNeqyttbiyt0ez1cG1G8zmU/qDPkHDZXNzjZs3r2NqHqPhmLXVtXq8KUmSgsU8Y3V1k8ODE2zb5vj4mNF4TJam6gAcJ8ymag8spODa1atYtsVweAZUrK512dpcw7ZdRqMhDx/ex7ZNut0mhiGxbQ2NEtsy6Pc69LtdTNPEtm21AhuGjqHp2LaFaeroumBnd4XXP/Iig0ED24aDg+eKV6arB+vq1RvEYcajR/skcUm4TDk5OcMwbcqiZDwec/fue4yHE2azBYeHxwyHY05OjpnPpkgpavidcSECmYwnDE8npIna0E8nM4ZnIyazKUWp5s95UWDZyqiZ5WoCEYZL8qJAVJIsLcgLQZ6WlJWkrAS6qazv3V4XXdfqlTREypJOt0Wvp1i/T589pSjLD3IKmoZuGBdIJ1lHCaUUNBo+G5urNAOTVqvgF7/yOX7xb3yenc0mRRajI2kFTbIsZ75YEjSaVFJQ1WPBMi+QZUWzGfDVr36Vz3z2s9y994A8S4kWC1Z6HdI4ZjGbMR6PSZMEx7E52H9OGC5JEgWPtiz1QeqaRa+9yf3Dim9+7x6u38fAQDc0RfTEqC9fIGj6+K7NYKWPVTusf/zHX6eqBPPZnNFoTJpmZFlCHIfMplPKokKUGlWhWGllWaDrBlUlsW2Hg4Mjmo0GlmWRxLHKz0hUZFVIyqIiCiNkHdR3LJs8S9jYWKPVbhBFIfP5gqOjI1zXwfdcHNeh0QywLJU7iaOYIi+JwogkTtDRMVa3PvJmVRaURUG322V35xIvvXyLja0ujYbDYjEjDCPmsyVxmBDHBbPJgvv3H3J8NCTPBaZuM1/MCRoBZj3UXlvf4vD5Ma7bAGmgaZZqWmgag/4KRVpQ5BXTyQI/aCqlUpiy0l9HCutiS6P8ay0M0yYvSnq9HmmSEKcxVVURLkNm8xmO7apRjlAXC+qmqVRTkTRjNpsznk4wdZNur0OjGdDrd1jMZxweHpImKq+Brp1z8NQNERWSkkoU6LpEMwS7e9tcubpFowU/+7Mf59/7xS9y5eoAC8Ff/vlfcPPGLXW9Wh9MOv2+0pdJSVYqJ0SeF6RlQae/wl99/0c8fvyI3a1NHt5/n3bDpxl4zKczhqMzojAEKcnTjHfefQtNQ0FHSkGz28EL+nzkI58ljCy+8f2nmE6gQkKiVCDBXp88L7i0vUVR5ty4eQ1dVipnbFtsb28hZUa4DLly+QpRjT0d9PuIqiKKYg4PTtA1ncODA5I0xrYNbNug3+9gmjq9XpNPf+aTbG2tEoVLilJtybIsRcO4yFeXZUW0DGvrfYeyyInCkMV8jmXadNptup02eZZdYK7m8yVJnCMrSKOsFh5K5Vr58Kf+jmy1Guzu7bCxsaqqNJZkOjvh5PQE03RoNDqUmeDJ42d1vUjxGtS+pkuj0VaXHxocnxzjefVYJFyCBs1WgOvYXL28w9VrexRFyWKxJI5jHMfB9x2SNMQPfFrNFo7jkeUxUpakaYyQqqafpgWu7TIajUDT6XY7nMuxfb+BjkmeFcyXEYv5UlltMIijhCRJMXUTS7OocrWilkXB0eERw+EZaZKhaZa67NbqLogGGop1bLsGnXaDK1d2WFldYWevz5e++HEaLR1DF1iGgwEXFxtlWRInMa1WCzfwyStBlCSkWUYSx1i6gS4qRF7g2g7/4d/8m3z0E5/g5OSMja1LDCdjprNFzTlW5KKD/ac8f/aEvZ1LuIFHURb87M//HH/yJ0/46Ce+yNvvPENqDlmhhIWb62sc7O+TJAme56sipK5RUnDz2hWGoxFRtGRlpU+ahezu7aKhMRxPVfGgqCgySRTGNJtNsqLANk3a7Qaf+MTrZJWaPQ9Ph7S6bZqtBlmegTSoSsF7790nz0uKzCaO8xr3qi6qHNdE0zVc1ybwHRzHYmWlh0SwvrmmmHPzOePRSIlzTBukRpnVh0DDwrQszBu3dun1OgQNnySek2UprmdRlZLA7yCFTpmpBFWz2SBPczqdAb7vqn2ocb7HspnOEtrtDrpuYpmSMlei8E67w8qgh2VbPHnyFN9TaSNdt5BCI0libFdDklJWDg4WUbS8mFH6vkdRlLi2wPeCOppp4fqeCn6YFrblEC5iZrM5UZIpX4UXqA5fKYnChJOzU7U3r82cjmVy9eZl+us9Hj14yGQyQ9csdM2o88SqRNhutvj4Jz7EypqP39R441MfZX19Bd83KfKIv/r293jh9ku0my3QqP3IGpalGihZXoKlpDJRFJElCbGoMDSNNFyShjE//TM/zde//nVe+fBrnJ0eM1mofppANULS0CSNXUxjwGc+/XOsra9RaRK/3SIqxvzmP/9/cd0Wmq7jWBZlkXNycoRtWHieS5LEF+EZUcLx4QmNZlAzl2OKsuBHP3ibRqPF6sYalqXR6Xi8/tqH+dZffJuXXn6Zu+/f5dq1azQbHtdv7FCWBWlScHY2oNFukhcpUZIQhYKzk5nCohYllmWoCylUo12txhqu7SCqkihKaqNUgGZUlGVBUi9unU5XtdR1BVUsygqEwLYdTMPA3NvbwHFMwmgBlAiRkyQFQdDEsX10w+L46BghKna2N5Ux3lTdfdezkDJXLQTDZHV9FVGBrjuUhSCK49r3K7FMHdOUmEaAWSM8TcvBNE0cF1wPTBsF5ctSgsBSJ2HXRQhJkoScHp/RbDRwXBe9lKSJukwoi5I4nDEcjhmPJgTNNkHQIk2z+qIkZzabMZ1OKUtBt9uh3+/S6bXZ29lheHZKb9Dm8Og59+89pMgSLMtECsmtG9f50pc+Q1HOMayYn//yv4ZrW+R5gSYkFhb/zX/13/I//5NfJ8uzi1fl+Q1XnmWkeUEuSrxGA1FVLBcz8ixDSmXbkZrEazUYTaYMRxNm8wVF3fHT0EG3iSINy95mZe0SP3p3wugbD9T+HJ2gu8HVG7uMR3PyXG3NqDMKolJwb72mEsWRUvjqQYPpZEYpKubzBSsrXfJMcLKYcOel15Ayod01SNIFP/HZj/Pee3f5wuc/juO5RGHE/vNnxGFE4Dfo95qYlkGz1aYYlgxPF3hul51tnXfefo/5bKiaJxoI9Drna2JaBp5tUVbFBcc5zXKGZ2NajSairHAsC88LKCtJXpYkNTvZxFSC97//D/6ptGxV+QiXEctFTLiIabV6CARxrAbXVV6olc5WjVA0iReopV/KCj9way1sialbVBUXpnrFJPNxbbeOhNTROF3Ud/E56DkbGz0aQQNRVEgNbMdDSJ0oSgiXEVIaJGFMdcGtNagqyMuK2XShHM26heMFSKEThbGy0WeKAl/mKgPRbrVotgKklKT1r/GjH3uNVtNluZzwnW//BXkS8lNf+CleuvMChlVgOTmz6SlX9q6yt3elRkFViEqwXCxwHJsKFS6vaqjeuSstK6qL6CEoyd9iMSOMFjiWzb/8wz9id2eXP/3jP8W2XRw/QDNNirLCMEyGo4x4ESC0AUIz1SFT0zBtZUbVLRPdMLFNl/F4XIMSJRrlRZhe17WL63zXddUoUYOizDEtgyhN6HTa9HurnB5PaXcCBmsen/ixl9ncXFMruFbwta/9Lo2giSFt5Tq5dY1PfuZTHBwckAnJd773Do/unzKbRSArEKgqft2Jq+octGXZ+IGHqev4no3v2awOBkhd4Hg2Dd+nLGtgjK4RJymaAb7nU1YS27HUqv53/4v/VVq2he95LGdLFvOEs7Mpju3iOA5RFDFfKPS+W58KNWqdq67M7bqhNKLNdhMNNUPMsqJeAVXwwne9i8RbUeaYhobt2moWrEkGgzYrK100JEmiauRZUZHEKVGcqu5dmJLnJUmSIATKJF9J0lRBNxqNNstlSlGVZFnJ8dEpZanQoOrfUROEwA+QqAZDq9UAKbi0ucGLd14EFnh+xmJ+phBXGly6tMlPfvbTROGC6WzOC7dewHMcbEtxf/NCue7CKFRkoLxQ6bGyUB9CUVIUJXlVUFVqwjIZD5nPp+iazp/98Z8ipaDfH/AHv/d7fPj1j4FpEOcp0dIhC9sIbArdRdNUMsyyTSTgOA7LML4g++iajmOpJFiWxcTLkKARqENxJVSgxtCVd04zVU1IZty4dZVKauR5yWQUURYFnY7D+maLZTjD83w0TbC2MmBvd4fDgwM2NlbY2u5hmi5hXJIU8E9/47fIE0Xi1I06811DyU3TQrecGmCuEKqNRkC320bXNUxDI0lCbNcBoVzdeVHQabVxPBvHNSmLksUiVlvTTgMTaWJoNqPhnHgZMxpOWS5jynKB66oHztBVZlQIwXQ6Q9YKUMe1kLbSxpqmSSNoKl+yZeJaPoEr6uS/4not5uFFEkxRJCVQMRh0MDSbOCyZTiZUhUDqOnGSUlUaumERxTHzyVwl2UyLIGhQFZAXij6uUpUqWZXEKWenI+Yz5bSQ52mxuiUShsrVbFkWcRSTZQmD7oD77z1GN5ZsbJoswhNcx0KT8PD+PZ49esTnPvdZdna3QVRKk2sYmIaJYzgkSVI/uIXi6ubF/88DrHLPeaZO0vOZIpbfvHWT+WxOr98jDEMc12IR5USRRp4GaJrKcKiaqqzb3yG+H6hrVQGWYV8UTqsqw7YC8qLgox9/heHZGePRGAMd6dq4nkVRlKz01wjDjOFsRFkK0ixjOp0ym0V4jsd8njMcHeK4Jq1WC8e1Cef7LGYLtrZW1NV7VbF1qcfhDx7y/R/epdlogudjWxZhtGQ8HGOaJq7r0Wy06nioxmK5xHEcev2OAigWCt0a+AHPD/bRAL/h02g2SdMI04EkzsgytWdGVjiOjjkZTknilIODI9I0J4kzqJuymi4JgoZSQOm6GqbX7DLD0IhjHcswlJjQgsPnxySxCpQ7jo2um7ULjPrBM1QzQ+ciuNHr9Tg5mJC0SnwvQEqT2XTBdDGnFJClJUJKslRV/quqotfroWsV43iOZZk4jmqInI/6wkjpATzXpajU/bzSx9agDKHwqWVZY/rRef78Obpms7JqKeaZUZIUOdo5TNl1+Se//j/x6isf5hf+jV/Atm2SWD3Elq3qL1mWffCw5rmqWeUleZ5RlgV5oW6Y4nBJHEd13BGafkB/sIrjOGSFipuGYUlVtPHdTaQISLMM1U0oEbokqKGFSZIQ+D6uq264NCSeb7O3t01eLNi+tMJ4+IzXX73J7vZOrYgtWCyXrK9u8dZbj2i2eiwWU2aLCWg6t2/eIFwulVxcb6DrklarpbACosR1Pd5+6/tcvrzD7dvXSNOcIPD50pc+z3e++z4P7p1gGBp7uzs4psV0MgM0lZaLQnTDQjcMsjzl7PRUxU9rGA5ImkED09LZ2dum3W2RZQlCCHzPZ3g6RQqV1ZiMF5hHRydEYawE25qJ4xjkef3qRyOOInVwMxQsz7FtoiTCMswaRqcxnyyI4wjHdWg1m4hScjibkyT5BY1GoRPq5p+muuirq2vYhjoILMOCBw/uMZ1NkQJ0w6SolJNYwT6q+ueyiKKUxWKJkKWi3BQVaZoRziOKvCSrcgytbkLX2w2tboHoaBimSZHnF9ScqiwoqgrP0dXVbFGhI7A0NUkQVUGZJax2ezx4731+8zd+g6985Sssl0ssy8LKLUzDrL+wkVqFC0GSJurLlymWWFmVFw96muZKjAhUaJiaiWH4CBySuEWRrNNs9Lh06TLj2ZLTs1NM1ctHcRJUF86reRC2ZeHaDts7G6TplK1LLVqNdZbzBZ//iTc4Pj7i4aP3KLKcu3ff486Ld3jn7Xc5OZ6i06bSJGkZ8vpHXqfT7fHk6RNOT05I00gdJvVjLMvi9s3r9AdrrK81uXJll/ksYjYLefvtt9jfHzIcxbQam2iahWEaNNstRqNxXczUKYSGQYkmK9AMdGmggOYlrh+QlRme7xI0PDzXQdegEfh4rsPp6aRGNqiO5HQyx7j98mfeLIqCSgiy2j9sGArsZ+jK1+b7KtPbaDTU7LetOL6ddgfLtPA8n163j65pzOdLpuMpi0VIVaq8b5arfWFZlHWgXOI4Xs3VUjPbx4+eMByNQWqYtkMUqUZBuIypKuVryLKMsqoockVGlEjCMGQ0HDMeTcnz8+CPR56mJKk6gEpR0x/rFJl6u6j/D6RUs0tNbUeKMmZ7e4Ve12MxG3Pw7CmT8RnhbMZ0MqHZbGDpBu+8+y63bt8iimN0XaHv86IgXEYkSUqaZiRZSl7kSu21mJHnGVme1cqv+MLB4dgu88WS/YNTpuOSINhmff0yluNg2TorK13WNwbouqDVauD7Pr7n0wgC+t0eeRwTLRbYpo4faLTaBvfufR9EQRzOqOpk4aP7D8nSHMf0eP7sgCyuaDe7GCZkeYppGoxHQ8ajETs721iWXue2FXS81eqQJSmObbO+usHqyoCDwxMu710mSWP2D54xGo3IMnXTtrK6wtHRMUVeAKpvaZx3H8tCHea1kkYjwHd9HMum023heOqfS5KY2WxGGC6ZzaacnoxJkhJRRzpN08Lc2rrEaDRiMV+ioZJirudRVerO/7xdbJgm3U5HrVhVpcZS4wl5mlHkJUhJVRaKps15zRfO27eapquInGHUtXVDDbmLAu0cJwX0+32WUUx2vneW8kLmXZal4giURh2eBikrqkpimjZSahcrsybAskziTCXFNCBPMzRdw3FdTMdiPBoja96AckAINHKCoE2zKXj3rVO+//3v8fprr5HE8UWc8PaNG5iOzdnpCSsraxf2Tik09XDGKmiTFgllVagQUaXmm0LUAX2jDuiLiiBo8o1vfJs8N9i+9BKD3i6Ob2MYOppe4QUajabP+sZNkrRQ0kTLIQianJ6ccbh/wOHhgn6nwRs//irrG00m06sKd1ppPHm8z8nJGNuyEJVWq3RXCRc5eZph2ZIP3bnN88MDkixB1+D61cts777Bk+fPuHv3LlJoHB+dMVvGnJ0OefD+A1566TY/fOuvkNKg0x3wK7/ySxwennLv3iFvv/2Ifq/NzvYGy1aD+SwkChNc36M/GDAajvGbLlkaMhmPaDU7eO0OpmnSarbwfIc8z1guF8ynM5bhkjSpaAYrdHodGg2fsioxrt34sTctQ/mLPddHA7I0Ic9SkAo457selqU6/cPhkOHZKaPhCDTUaTtThxNRe5M1TcMyTaRu1D9WJqFzcIisUPPJLFc1Gd3Adh22d7Ypy1KtrkJi2fZF9DKvreiiUiCMqlS+C02q/5apmxR5RpoliEpQ1vNPTTMwNBMpJbbn4LsetuuohkNVKJ7v+R7MMKDM2VhrsXe5TxovQAiyNGY0GVOKgt3dXQzD4Ic//CF/+a2/5NXXXsWybMq8IKwzr1G8VNuGNCHPE8q8IM/UF9IybKSALFXI1ixN8f0uRwdLup3LrKxusbG1QVIkjGenbG4O2Nld5/qNKzSaLu2Wi+sAMsOxYWOjx9p6h37H4+Mfe5k0mRCHMzRZMZ1M2d8/Zn//mAf3H9NpdwmCJvP5AlPXydKYdrNBt99iOp0QRiGra6vsXt5lMOiTpCmL+YJoGfP0yT626argfyXQDZ3haIzr+iyjhP2DY46Pz2i1PD76sdu8cGebdsfk6vVVrl+/zO7OOltbba7f2Oby3g6arpHlCZsbm8rDbRpEUch0PCWKFdAwzzNmsxn9QY9er8vpyYgwVOWH4fAMyzQwrt/6xJtqJKZGHWVZqlKl7xH4HjrUIfcYQ1ftYh1oNVq0W22qUs06ASzDVFuOIFAjE8NUpMFKJbr0upem1VAKz/XwPI9Op4XnuURRpN4AjlvvTVU9pygLxYytly9dVyHocy5wWYM9irL8AIKhKaNmM2jQaDRxXRcpBd1ul3a7RbgM1cOrnwu21UNsGpDEIZ/+9Mv0e22KPGUymbCzfYl+r8v+8+fsHxyoJJRucHR0zIsvvkgUxSzDiOUyJIxCsqygrHLyPFNNjqJACMmz588J/CbnHLjFPOXsJKHT3uKVVz7GnZde4N333uP7P/oBJ8cHZFlCq+mzvbuJ6+n4gU6vF9BoWASBxXx2iqgSZpMz4miO79t4ts3jh084OZ4SLjPm05Aqr38v84IoCvFsR1HrkbRaTVqdFpZtY+gaT5884fj4mLd++EMeP31Sv4ULti9tMRj06PY6bG6sUxQFu3t7dLs9PNdH3RTreJ5NWShbauC6NJsurquzvtamO2jw/NlT4jim1+3TaLbodrt0O+0LAKLqTaqIb5qleJ6qMLVaXUbDKZqmXMxZnmK8+voX3ux0O4oaaJh4nkdS4+Q55/QaOq12E9d1CKMQyzBoNVvqQ1vMFY7VdWh1mvgNj36vT7PZvDDDl2WJ4zp4nqfCMVJJuC3LxjANeoMe7U4Ly1Y8trOzM8JliBCVYnOV6iZJ7XtsXMfHshxMw0LxMg3KQtRwbpXO8nyXTrvN2uoqjmURNHza7RbjsfLISVlhmfoHqgHV2Qap0lYf+dhtmi2P1UGfj7z+Oq986GV+53d+h7Iqa7O8JIkTXrzzshIUSkkYRownY6azKWiyNiKVSJTjWdVjfIbDMabhcv/Bc5rNdY6O56ysXCLLS772u7/Hk2dPiZIE0zKJwpj333/Ad7/9Xe7cucGNazuUeUrDd8jSkM2NFXa2t9hcX2dvd5sszfnOt77LN/78exwcnLGyssW7b92l1+kyHk/UWNQwmE6nXLp0CcNSE5SnT59iuw6vvPoyl/d2Wc4nWLaCw2xubVCWCa6t0e01iOIFluMgJDiuy+npKZPJlMt7VzF0i7IoVa0eiZQFcTyn32/SaDm4jkFR5kgkT54cMJlOkUJQFQXtTov19VV832V1dYXB6ipFUXH//j2Ojo85OR6qfEZRohsGlmWi/bUv/z2p6wb9Xo8k/+AQEnge52KVqirRzvlmcaLGUvV4Ks8LBLXu1NDxPJ9Ou41lWio5VNO9/cAnzdWc0bJUa+LK5ctcuX6FNEs4ONhHCsnR8THLWXhRmtQ0Q32xfB/TcsizAs/zqH1cF3AbNc5SMUvTVPHQTqfF2emIJIqVjraGDVKj18QFUFjWqFcBskSjYHXN41d/9d/n3t3v8vzxfaqi4OjwkEqUbGxt8ujRI1750GvsXb7GdDbnyrXrFKJkNp1xdjbE8zwcx0WiTJeaXpElFabZ4PR4zNHhBMtuM5nF6JaN4/jcff8eaVbWkU2FMD0XSxpAWUV85CMvBybmTAAAIABJREFU86GX77C3t0MYqkCUaXjMxkt0TB7ce8Dx4TE7O1cRwMHz5/T7HbYurbOxuUaSJ/RXV7n/4CGj4YRwGeH6DRbLJYOVPkEQsLG2guM6vPDyy9iexfPnR5yNhmxvb7K+3mE0TpkvMr75zW8TLkMm4wlra6sYus7Kao9ep0VvpYvjVfS6Lo8f3eeNNz6FadnkRUVeVDx7esSf/PEPMEybTruDYaphge+75IUq2QqpEUUpB4dHjMczpFSe7rKQSt9rGWj/7t/4h/LqtatMphP2949q2kuOZdk4lsKKBr5HBURRQhwpfsN8MqcsS/Rzmo2heGGarI1G6ArDKhQtXTeVrlUz1M/3kY+9TqvV4EdvvYXnumi6yehsSLiM1aC6tgcZloXnumxtbVEVUhlyAp/AD1TkUdaMLRSuVSAIfA/LspBS492331V51FJRxqmhGLKG6QmpDm+WaXNuGDV0cFyNr3zly/zfv/9/cGmjRbJc8ujRQ4LAIytzPv3pN5hNFjzbP+Ty5ausb22xsr5GWZa8/9776tcYNNRDqKnfE1GaPHl8wmi8QBQOYQxFpbFIQmazqTq01goHdcBTOZLzyaNEoZg822ZrYx3LVG8lTRj4bkAlBKOTEUiJZatMrZqqrNNsOrz8oRcIugHt3gpJmvHkyQFpKnnw8BmB3+DWrRskacLw7BjDVI0Ky/WI05Q0i1ldX8GyTbrdPo4fEC4SJpM5f/Zn38I2bCpRsLrWx7YssjRh7/IKL75wFXS1UmuGges4ahsTxpSVTriIieuJkRCCRsPDtm0s00EzbEbDKUdHpzw/OKPd7PL8+SHz+VIZnSSYrWaTu++8w3A8Jkmy+hXs4Lo2shIsF0tOjg9JcxUoNw2LqhQ4rodR5BRVccHNLWregFaWdaNCdcYs08KwDJqtJo2WT+B7LJdjhqN9bFvDMPX6g1Zz5WbQIMvSmg6satf7z/fraYagLGPSRDnYbMehEQTYto1tK7NjlNSCvlLgex5pmn3gi6vB0+dUMsMwaHa7pElGp9XEcSw8x8O0BY+f7PN3/96v8Z/9/V/l5HAf0zT4whc+z80XbvJ//l//jHbQRFYVge9x9+5dfmp3l1yr6HYH5MUStJKqlOi6y3yW8/aP7jKdhLQ7AzVmFA7zxZI4T7iwyWsfQDvQznEiknMYla5pRJkgTASeY2FbLienZ9jmEte22FxbR0dimtBd6eIFLi+9dBPbzimqkrxI2d9/zje/9V3u33+KEDpCKK7Ze3fvYpoWJ2eHypRp2zRaLdrdNp1uG0M3CbwGkpI0mSEpMK2Kzc01qkJwenaK5/pcuXKF8fCUyXjGW2+9T7ffw/VcGo0G3a5OkqgDtG27tDsuLWw0s1ljClDqMd3EdX0GA5fVNZ/N7XWe74/IS1Vc0KTKCpv37t1TqX7TorHSoNvtK1ZDtCTPcxrNBkGN+kEzMHULIWAxX7KoIRaaVH0sTdNquIdG0HDpDwb02m3WN9Zod5oYloWuGyyXCx48uE+eZQihkcucspRYpkmn3aLdaiGAoio5PT5ThpwiwjQNFbVLYnzXxfEcNA38QV9Z5KuK6XRCUQpazTalLFhfX2e5jDg6PFK/QWg1zFrRLl3XQ9c1moFLJQuiOMVxDfyWh+XoxEnFf/Jr/yn/6L/+h/z8l3+O6XTI17/+L7m8u8v9e/fJs4rByoBcVNiWrSYbhoGFhRRQVQazacr+szFCeFy7fpXxaEqajpmHoXrLaIZyP2i19FDWel9NUSbOeYxmzUTodrskWc7J0Ska0G4GrK1scvPqFVqNAFPTsV2DRifAtEzyPOdHb93l6PiYotKZzmLyqkINmpRMRlSS4Wiixp1mUL9dIY4T0jRGQ1AWm7i2iWWbuL6n9vNnE+QtuH//ITdvqz1wtJwrwGMpEVJXOgEJaRxzEC4JwwVlWWHbNoOVDv1BF8+3MUzVdhYSNKHhujqtVkC363JpG+JoxtZmmydxSpkrNYT2b/07/7lst1sUhULZV5UyPIbhHN9vkKaqORyGIbbtkmclURgzXyzr11pxMbaSmqISrq2scvnyLo2GC5qg3fGxbQsNk/FowdNnT+n2e+RZAZpGGmUsF6H6kqDT6/UwHZuTs1OWtVqpzHPOUaRCSJrNJoYBq6urXL1ylUpU5LlKnRWVVLnhettzdjZiPl98AFWuVzKFTy1xXYfVtRUWiyFrawO+8MWf5NLugJOjY6o0584Ll7h1fRtZVfxHf+uXeO/dd7h1+yZnZ2dsb13m17/6v1BWFd//wQ/47X/xW3S7PVqNHkksuHXzFQytxR/+P3/Mzdt3KIXGV7/6v5FmBablqreM1BSi6nxzDmi6mqYIqEUoEs9x2L60ycOHj9A1FfdURqeCokgJXIdXXnmJyXhMp9UiS3MQMBis8PDhQxrNBsswwnY9lnFUp/2UJFzXdCzbotftkpeCxXJOu9NiMh5y+8VrbG1tMhh0cFyDnd1toiSjrCSdTofZfEYYRfX17pSyyDF0g5WVAc1WQJan6kKqrEjShOV8juc6DFYGbGyu0us1MUwNXReg62i60lUUVUWRl7i2jW1r5KXk5GhBFFW4bpO//NZ30D752V+Sgefheh7dtmo4pDUpZzZbkGUpeV5gWRaeq0xFYRjV9eiiRsnXbFxP3ditr69iWyaB79PueuSFUiLFUUkcpQRBA8tVjrSiKDk5OuXsdEgcKQZAs9lEalAKgWvbRGFImmaI4gNxyvmLNWgE9Ho9gqCOR6YpfqOFaagW7ny+4Ox0WMcvqeEaOo7tUJQ53V6Hvb1tVla7XLm6zup6D9PUmS2nPH6wz+GzIVRz/s6v/Adc2lrhG9/8I/7Fb/9zNrd2+c53vsc//h9/nSBoIaTk3oN3CeOQd956wMlxzOgsYX1th8ePD5hNppQ1iNq2PaI4YTSZUVYqalhPoxXCSZNISmX1RFXg11ZWL8Z2mtQRUj108lzfWyNIdV2j22nj2y6Wbihwd6XCVnEcYzoWWZFjOQ55UWG7Dq7nI3WDOEmU/qHemjWbDS5f3uXg+RM6nQbdfpsomvPSSy+SZhlZkeN5Ds12A8tREnWzpq+XpTr/+EFAmudMRgsWs4jpdMZsOqPZDLhxa49LWxvkeUYUL+n1W3i+j2FapEnBeDxhMp4owmeZsH3pEpublzBM9dlFaYZx9ebH31yGIVndIVssFgyHIw4PD1ksFqrIaRhIqXIRKjKYI2pInuO66lqz2WR1dY12q4Vtm4zHZ5T1ipjlFVLouK6Ppun1DC9jPpnh2AofGi7CWmKnqc5Yltd/zZDVuaxbfCARR4XZq0q1HCzLwrEcRFmyDCPiSI20ZrMZQtQVoqqg4buqyNlv8+qrL/Pqay+xs7vJnTu36HSVcG+5iHjy5Ignj/Z59uyIzY1dnj3Z58U7N9nb28SyLEoJn/jxN7h++zZSU4SZxWLGs6cnPH445DvfvsdwmDOZxkqHWxRUUiAkLJdLKiHZ2FjHtmyiKFHQv9qYKqQKPoHEtCwuX77CeDRmOp2jSQtqs+c5PhvNqH8N6nNK4owkyZClQjzFcazcyXWYSjN0hNDUtbqhq9GUlLTabZrtNkVZYDsOlZTMZzOyJMXQTNKsoNPoEkcpw7Mz9dkg6Q/6DAYDGr5Fs2HTDBRWzHYsgiConXuQJhXzaaiAg4nioEkhefjgKScnEwLfQwpJmpWcnU2ZzZfkecXZ2YQnT045G86YTKaq3pTFdLoBpm1aTJIEDQjDkCSMWIZLhJAYpo1uKGI6VAqFKWpTu2HQarVot9UlQa/XV9SVGj7c63XRdQO/rusXpdJKTacTtRKYFqKqmE9mTKdzoihScUCp2LearuiOVDXNshIYfADS02qcqi4AQ1WQ4nBJmqSYtk1ZCioh6ls+F7u2keZFhK4VSJnx4kvXef78OfcfHHN2dkSv32W5iJhOFzx5esDobIJlurz1wyeIYsE3v/kX/IP/8tf4qZ/66wggzhL1utMUnWg2jfn9r/05J0cJptGmlKKmNhpkiaTRarJYzul01C3XeDii2+2zvbXBycmQqi6kqkqTpNXoEjSaPLz3HAMNXXMVtup8RIECcJ9fwqi9h1qFpVDth3arTxjGSCp0Q6cocrTaRSzQkKWS8NimxWg4BKAUFePRmMD31XCxrMjSnGazgcwFrmvgB6rGdWlzi267hYFGw3PRDSXDlJqGYZSEUcJiEbGYLsmTnCzNSWIV8jo6esDTh0esrW8SxTG2ecjtO9eopJp2CQG64YDmgulzMgoZjiPeevcRlqHxuc99CuPG7U+8OZ/PFUG8LC/yu0Z92+XYjroWlhLXdmr0pY7nuriOjevYeJ6rPLyVUEzcsrhA8cdxfKEpDUNFew/DkOViyXK+JFyGF2ZyUdUzU1Vn+OD4ImtFbP0BKRyEeogN06wpPwllniMrQSWUMBGpqOC2aSErQZpE7O5scOflF1hbX2c8GnP/3n2QkjjKOD48wbF9wkWCkDq+G7C6skqv26MR+JRFydMnz2k0OqxvbGBaarUsypyq1Pj9r32L+dTAdZu8+uor7O7tKBtnmuG5HlUFnhOQpgWNRgfdMMlz1d9bX9/Asm2WS5XD3rp0CQ2HyXiOJk3ARJMGmmYqgIx2rp/9IGtyoSFDYzBYwTJtHj1+SpplCCExHdXc1nQTiVYTOQWeH9TmS1VQKAtRc9q0eusXoesGSazKsVEUEiVLLMtk69IGg0GHOFpydHSkxn56SVkKojDl5PiM6WTOYh4RLhPGkwmj0YSTk1NEpZGlgiQt6p8/pNUJlCkLDV03662Vie36WJaHxCTLKvJCEIU5Rn/1xpuqu5VTZPkF59WoKeBBEKj5LRA0AizTwjIVYv/8tuucMFgU+QWczTSNi/lrUagcb55nNJpNet0ea4M1HNtmMV9QiQrTMMnzQmmnhHIkn0OmL/78V36g1Q+2qCpEWSoCpKReibQPzJ9CkqfqG//666/ypS9+DqlLppMFD+8/UStOWREtIyzT5vjoiMl0wsrqCsOzU6oy59Gje1RlTpoWDE9nPHp4yD/7rT/ghds3WBmsE4cV//h/+A3++Os/QNNc0CrSNOT+/fcxNEWYn0zHOLatMru6TqvVIUljhFAJvSxXOewbN2/Qajd58ugxRa4jK6Pui5nomqkCPpqmVlFd5bZ1TVfRVk3DNmyuX7/BcDgkjBJ0w0QIg6yQzOcRmm6xur6B5zXx/SZBo0G71cHzXSV5zDKFLdVNXNcljmN+4jOfZrlYUNS3YJqu02g0sGyTslRohHvv32cxTwiCBkWRMpuFTKdLJuMp0TJhPguZTGaMxxM0dJrNFqZh0+70uHbteh2htJF6heM4FEWF6/qAhmGYNAOfrc11VlZX1AJVwsHzY7TPfeGXZZKomyr9nIAtlARQomNZNpZt0QwCdbVbqr5ao9HEtg08xyYv0nolUK831/fUfq+s0CTkeaa8Ep5LnufMp1OW0yUgle2x9rJVpWrqXlh8qG/j6ofVMA3V5aqnCOe3dUb99+d/yIuVSUfqBppUoLjd3U0Wy6EyJ5mq+l+W5YU7eTFf4Pm+AjDbDpPRGFM3WC4WF+m6qs4oa5rAC1wG/X4NRtTwPJ8gsEiziKo0aLc6ivmrSUxTx/M8Wq02WVlwdHhaf6krqlLiuB55UTCdzBXuqoLlXBmgKpGD1Gsyeb2NOodMo6J2QlQqN+sHLMMlRa6s9ZWAc/nO+RWkRCG0dENjsZwr8jyFmpFrUJ67KDRV+wGJEIqsbpqWOocYGraj8s+rqwM2t7YYDYdcvb7NC3d2EZrg9GRIlpaUFcxnEQ8ePEHTdDY3L7G6OuBb3/wei0VIq9XmpZfvsLM7oBQxaZ7R7w8QlToE+n6gjFNVBVJjNAqZDOdMpguMq1d/7E3VJFAGyXNtlBppgee6isOqKXx/WWb1e7wiTVVc0DJNFTw3dFzXI00TpuOJ8hPrOmVeUmQ5aRwTLZYsZzPKvKDKMz6Qf0tFZKwVVwa1ZUirZ6IIDF1dbetSYCIxNFDDOerZqfoCnEsUhZCca2rNuoxq2erQlCQZrVYbwzTqD0lnZX2dtbV1ykIwHg5V2zlO6sNkqQ6ZUh2UPK9Bu93DNFR9v99TIaH1jT5CClqNFq12k26vgR/Y6Iag22/ieTa2a+M6FsPhKVKKWr8KVVVS5BllDYb2PIdG4LFYzgh8r16NDAzdxLRsLNPEMDQc26LX6eP7DcLF/9fWm/1aep1nfr81feMezlyHLJJFirYsWbYkt+0GAiQdoPsmyLU7A/JHBEiQ+/67cuFOECNBggy2W7It2SIlDlV1qs60p29cQy7etTfpIAcgxGKxqHO+vb613vW+z/N7tqSg0KoQXK4uMbrAmgJjxLki9JwD0zSf7ih9vycmT4zHkUnMC1fAicZqyc8LIpkVtd0kDI/Bs9lsKMuCcTxweXXF4dCjlGEYPV03se96Li6vCD6yXK5YrRekBJcX5zzc37PdCtxktV5yeXlJU9XM88TF5RlVZSkKkZbGNBOSR+nAonWo/+w//++S95NQvacJawybzTPWOpwRYQwxyBttjWh6nSQ2GmM4O1tTFaWYLYxlHHqenp6Z55mmaWjrRljDs8dqw3a7kdurkuCPmMIpylQjLAZ1NB587yuRsMbKA06yQA0KezQKmZz1oA1zSLiq4vbDD3n99h3WFaA1c5hpFgv2+10etbZUVSneuH6UfLKy5LCTzDuV405VblkprbHasli2XF1dcX5+Lt9ZirRtg9Iy2bu8Ome32wpwcNkI1LtwuU0mM37QHPY9Dw9PTKPn3ft7Iopls6CqKh7uH+j2Hd5HfvyjP+IXv/h7hjEInRxLTMeQxCCc5GGm67qsrjuehppjFvNJNJLzOFDSRfJh5uxsiSs09w/vRQNOBovb42l4LFHkc3BOugvOFQz9QFGV/OGPfwTKc3G5pCjFZuajYL7uH5553uzpDh1tu+Sw2/P69Wuccxil+eijTyiKkrpW1AvLBy9v+fnP/phEoh8PpBCwpSPExNBP7HaC1VIYbAwzxITRRlLWrRV7jIKykjT2FGVc2jaN1JMqsF6vKcuSqhRoRtu2uZbc4owiBcU89gwxEucJP3m6cWQYRjmCdE6ayR2F4/hU//PH/b2vU9MIBXnxqu9FvUrr6cXtLU/bHcvlms3jEy6z3MZ5Ypom4ABJMXQd/eFAVcrO5iMEEpFdDuIDlTTHyDOhmMNq3QpX4lxS66uqwmjJQtNaM00T7+/eUTjLbCamwVCW7qRhtrZg9jPDKB7ATz5+Sd9PXF5c8P7hKfvaYLVsWbVN7qcO3L64oJ8C0+TZ7yY0Go1juVpy6PaEOVCXJZJnYVDHxfv9B5nk8peYhKfhPRdnZxhreH7esG6vicmT1AzKcxh2+JCydoQsufUslwuurq74wz/8Q/7qr/4Xuv7Ar//p1/z4R3/AarXicBA/ndWGsiq5vLxmt+t5++aOr7/6Rvh2zqGUYrVcUFWWy8uWn/3shyzOKoxTmCJrta0WYY9K6KCYM9W9cJnM8/7de3zwxCAUHa0LPvr4Awk/3OzY73bM08SLq0vqRkBt2mlWS1EwOW0I3rLbPOODIDljDjcprGWeZnbP23z8prwAc8QUohHOKRaySDD/P7nC/3xFx5Ryk19EQnVV8fOf/5y3d3c8PT/hx4kDO6kZM7o+RI9WiWnss+408PFHrzDWEWLk7OKCh+cn6qri3d0dH776iK+/+orSOOqy5OxsLTXsesWLmxv2+z0xRUKYMEZgzhAxRmj1dV1Q5JgE6YOnHFAC1jlqbVkuW+7vH9ltO4ZhIsYZq2QQ8Lx5JgbJmbh/fIBkcK6kqmouL5ZsnjsW9RWP93tMqKkLDcpDEonp8YGpU+YekJws3CBhNS9uXzCOif1hR2VbSAqjLKvVBUUL795/S1KafhpAyZ/76R//GKMNMUWet0/89E9+xn6/44svvuTrr7/l6f6Rn//5H6AYuThf8rx9Zrm6ElVjHLm8XtPte/7ln/0J79695ebFjWCtXn3AYl1RFJrtfos1ibIu5bTQMPYjMRmmeRKHfIhMfkb99Kd/kY4Xopgktef29ppxGohzoK4q6qqibRpZXlpjCsswjHTdgSE7c733mZEgk5zgZ3bPmyxQlv6wz7+n8laa0mn7zLtuXsDfKxtSNoImyH9WhOptU4MSQMZqscAozdPzE9ZYvJftIqSENo45RGxhmYNnsZYuyHazoR8mmnaBVpp+GumnMWfBJRbNEj/OLNqW1WJB20opoLXOUskCpRTez6fsBmN1rlE1iUhRZHKkhmmeGYaesijR1iFpTCXeR7bbjv1uz9u7O+ZRhjnTPBFCxM+iGVBKZ1gKlEXJ7//ej3j9zXvGPpKS5Zj6nvJYGuSCK7twLhukqsUVibZZSGD3w5PombP5OmW9SNIjzdLy8PRI0ok5jFxeXnBxdUFTlzRtw2/+6Tcoo3n37o4//ukfc9jteXl7xdVtw+2HZ3z2gx8wzTOv3747ZZHc3b3jZ3/8c6qy4PxixX/4xd/yycevWK2XlGXBZrNhnEb2ux3toqWsCqFgijOXOUrXyM+BafSoP/2Tf5sUyC+Uom5rjNVyay5FkleVjrOzM/p8oRFklLRwSEnAedYwDaPYn5uGuq549/ZO6NopoSJYo6R2UYr0z5IXv7eAk8rDkyi1MSJFDClSVRVN09B3PVVZSqqRMeIEMaIdbtsWl0mW/SiMhqoRccph6DFO2GjBB8ZZkpKmaSYqCe+evCS0qyBH4PESm6JYmKy1FGXBarUS3XGOGjBGospEFVcwTj1aKaqqApVOpYFzDoyWcbwPOFfRdyMpSgxZU4sssh8GIbAbyzdff0PhKuZxpqrqfP9wfPDBDXXd8NsvXqNoIRUnrYh0YXJLUUUiA0r3GJtYLs7YbxN9P2GzqF8u4bJzB49IBIwnMmNKKGrLi9srrNP0w4HZj7x9+xZXOpZnK9brFR99cMuPfvgKW3mWyypLVxX7/SEbdEUvUdcNVVVArqe//eYt0+RZLc+4f/9MVS3o+466rWkWDRfnK8kLTP7IdEIsaglrFChlWCwKnHVUTcXZxRKVYo4dMAQ/8fqb34lsUg5+nHaQPIfDgcIV9N1OSIyuRBvNu3fvRCSTj9vd8xatFf3jPYWVXdIYQ/Q5AdI4FKIp1kA0mqIsGOf5xAUuy5Kh76URFAKL5YIffPoZ6/WS+zuBK0/TzH7f4Zxl10tLZnPYobTM91OILBdLpmlC9yP73gv0zpaYwqEGRZw9ISSC8ng/0R+OeCax+LdJsWWLs1JT1nWDtRJgPs8zxw3h8fGeq6srirLISCTPZrOnGwZClFCcQQU2T8+cnYlRMcwzZVlQ1WsSit/+9ndiaJ0nbm8/kBLKz1y9uCLGmafNG37yx5/y9VcPdPsJlMboknlKaG045k0nZURbXVv2uwNKNzRNLS07OOUSg6IoDKRIjIZkDH4eSDbS1jVfv/4a58A6+I//1Z9z9+6OQODqasX19YLCQd20PD09UNU1RVkCitVqjbMl0zwCKZt/pb1mTMHj4wO/++23tM0Zb9888fu//znrc3H4OKc4dDsSEaOFiUaSrA31X/7Ff5+aWn4YZw1JR/b7DYW12MJRlxXD0OOMy2HNm5yKM5EQv9zjw6Oo1ZzDaM04iABI1E5JCDwxkYIYP0tXUtQV/UEMj4W1lMZSGEdSOvvIRCzftA39ONEsl/R9z8effIKzlrKq2G423NzccPfmDeBZLVd0/cj11TX7Q8fu0LHZ73l4ehYwBwmr3MnlTJKBQFEUuEKOKrQies/QjcKFSxGlo/RzUVnTUUt5UJosEApUVcXLDz9inmcSiaIoKEuHUgJxCZmoGOZA2VQnEb73ibEbRKexbCmsoWob6mZB38lE8M3rO4Zuws+By8tLjFZYp7i4ki7IZrMjhCi+tGB4ehwgyg6HmlEqcX6xzm1B4cV9/5InwYHHwi1fk6WtRFQzmJGYelylsYVB68if/OlPWawazi9W/Oa3X/Dq1Ssuz84gee7ev6OuKp43G0mgLxyutIA4xU02+/pZTAZDP/L8tCFGgWWXRcXNixtCmigrYcF12QlkbcExN1ApUP/Nf/0/pLapaeqK58d7MJGiMFyszzm7uBbwc0rUdc3f/u0veP/uvSD3fTpN3Q6Hg5g9tSb5cKqJXVVnjWxgnCb8OOGcIYWEKwtJu4yR0jheXt4wDQOmEGnj6zevaRYLEeqUFY/7PZ//3uc83L+naVtCmMXIOXmMUjw83lNXDWdnZ8SYuHlxy8PThrv398Sk8gtVUJeNCOytgaixpRUXhhVOWMx4pn7f8/ggGC1MxJhcX0YJI1EqYp0YTFUudW5ffIBzBVVdYY0hRk/X9zw+PnJzc8tut+Pi4oLn7UZajG3LNHqI0mO3VlMWhjmKYWC32wOWMMtAw6AZpxHnJApNa0ArNpstIY40bU1Tr3h5+zlf/OYrGXAkz4sXL+i7icN+RiGXzcSQuyuCuJWaOV+xQ66f0UQ1gR2wReTQbeinnpubSz759GNxX1QFtx/e8Mtf/hKFYt0u6YYBHzzzPLI6W3J2tmB9tkJrudfUVY21lhDELzgMg/SMh4G+l3tC01Roq+RzyrV8CEIaFc2ICLnUf/EX/23SSoKj27pisahYnS2piwYfAl0nu+mXX/6Wu7dviV5SG2OQXenYJ5X8tZT5CN+5h+dJUETWGuY5u5eLgrooubq6pqpqxv0B6wNhnCGbDJu2RVlN149gDXXbUpYV+24nEJFpyDd/RVVWfP7Z59w/PLI7dHz26mMO3cA3r98QQhQNQt1St62MOifpmaoUKYqCxXrBu7s7XFURZs/jwxPdYaSpKskC1vFUz6ksuCElrJO/r6rqZCYty/KEV21XDVVZM3sZlceUCF4oNF3XMc8+//tgrCT1FEXBerVimANaGfb7jnmOHLYeBaXVAAAgAElEQVQ7FJp20WCMyiN6sX49b55ZrxeUZUVRWOp6ye3tLdvNFmsdD/fPBF+gkA6FEEMD6TivhyzjVFmbnLVCCnR5wEfP/cNblIWqEvTW1dU5Z+drXOXQRsAu//jrf8Qox4ubD9CF5kc//pT1eZVPdyf8uHnm/OL8pLY78j66vsuEKNkARcUmu/XxckwyDINndzjQ9QMxJGx/OBCDx+YaNEVBRf3j3T/x+LzJ0DovdJV47BjkXSfKB5mvtyh9PIrkchd8wDlZuEoVgvUM4jROruCw29Lt9+gIahg5X6y5eXnLLjPYNrsdfXcgaSFePjw8Y5wkQ96++IB3799T1xXBWn75d79msWxZLZc8bZ4ZxpH1+YJF27BcrfMo2mGMiJEWiwX3d+9P+FVNYr/dZAD1hMFIz7NtWK4XhAw2XDQShN40DdcvrpmmmW+++Vr0Isrg/fHFjoyDx1oJxpm9GAGUEq6ccwWbzS7vskg+iTOslkvejyOzj/g5ZQmpJfpIP3ZMfiDk6DGZiD2Jk7wbSVG6RMPQ8e7uDQn4+KNXxJi4e/NA265F66IcISiSyq2HPGA56oqVluFM0on9sOfb19+gjCysEMRJDloIpONIWRf0fc+P/uAP6A4967MzLq8vubm5RFuJb4NIUTju79+zXElLcp4HKRdn4WakBO/f3XNxcUGMexbtAlNaiApbCD2/aQy2hKozvHlzh/rX/8l/lVS+RTdlgQ8zb9/d4TKArc/+shSicMWMJgZOLIX0PU2CUvr0QOStlqO3qmtimIkp8dmnr/jB55/zD7/8O64vrvnNb77gcrmmQrO9fyKpSFEWGOuwRcFhHIjGULYtz/uOcQZXtLKz+pmLy3OM1bz88AUvbq8xRvHtt18TomexqLi6vmCd47d8kEndZrNlGEamfubDD1/iQ+Sv/+//h822Z+i9gAFLh58DVV3RLhqubm749T/8iqoUYk5MifPLc7EkGUPdNJRlyy/+5hd8/MlLClew63asVmu++uorYogMgwh2uu4Ax3ZgKx2SrjswTaMszrIk+Ij3iaqo8LOXY91qtE6EGJjn3IHJ947VesmibU+G1f1uJ5fWGDm/uOTTV5/x5s07FCVEaZtFhMOglDl9XqgAVpjB292G33z5T8QUWK2X2aja8OrVJ0DIyamRi8sLqtrhnIiW+u7Ax68+ZXW2om0LmroGnZimjmkacbamqhtp7SXYHw7sd3u2uz1E2O6EEtXUFefnZ1inhFOybCnLEpW7WU9Pz6h//R/92xSzVaepKw5DR4iCWpILmcgUQzZsGq2JPuU2F6SsPQVh0+osypbaMGVM/BmXl2ecX6y4vblm7CfKouTx8Qk8fPvl7wjdQJw8ikBVSgvmMA2YuqCfPVhHUBrlarQrReur4PaDF9RNycWlGDI1gqdy1rJ5fpCLQCkiFGXMCa1EUvz1X/8NZ+cXaG2oy5LSLYhBcf/unr7rUSge7u8J6RhCrjm/vEQD7+7vWa6XnF9d8urTV4DhsPf8n//H/0VZaXQCW5a8fPkhIQTu7x+l86ENu92ew74D5NIil8rAZrshhkhZFvgQUFFOM6NtvnAlohK7vbwAQjk3RlFVZe6GiIpsu9mw2+9zZ2aiaRo++fhT2nbNNCR8SDn0UaSVMWjQgUhHvbB8+/obfvPFb6StagyLZct6teLjTz7GFZp5GnLUrubs/JyicHg/8fj4wDAOrM7OOL84oyyLnOVXou2Ms4ZphN2mpx88zjnev3/Pt99+S9/10gPPysiyrPjss0+4vllyfrnG5BH2Yikkn9l7bFKK/nBg+7yhKArmFDMsWcKdUxBxh0rgicwpQpLfE25EkodsNNZYqqJGZ3IK6qiXOEcbzWG359vZy4unFIfNlnHboULCx0g/DbSLip7A+nyNVQv2Q4+xiv3QUzctzarg+vYF8zzx0UcfUDc11ilub6+yW0PTdxOFLXl+FjL8UbfhyoLuMJKS4ssvfsduf+D29iWbzbPgIhQQ4fyiYei2lGXF7AfOz89YLxf4eeb68lxaXsuav//VP/B7P/yctim5v3+m2wtB6P5hw2qx4Kc//xcZfg2rVYsx5+z3BwrncNbx8CDifmFvRCk1kgyDSDLSUUDKHYtIEqx+/jnVaY4uFM2z9ZphGHj79i1KKRaLlvXZiof7BzabDX/7/NcA/Kf/6t8wjYFuED2EipC0R7tAXTl+/Ztf8fT8iLZKyDhNRdcfWCwanLNUpSPGmWkaM8fCUBYFm+2WzUa4Hz5s2TzvuXkhqrKUZi6uF6xWSw6Hme3zxNs3j/gpsD/sKewZX75+J5uLAqstfojga+ZeMw2G7mnPg97x4csPWK5alAa73++IPuCKgmMxa6yRfNosKk/fq3Pl6ioFv3UOWzjpKhQFVVmx3Yjd3TgZlZaFJNlrXaCMpqkbDvuOu7s7Ds9bbFCEeaYoCq4/vOHjVx/xwUcfkaymG0fePz7Q9z3jNPH7P/w9tLNEIlVdcn19iTWa2Q9YK6CVbph49/aBefT4OXJ310OCuqmpW6EB7Xd7lFKcry/5D3/7S2Y/s1y2aAKffPyKx4cndpsdIQjSvipLqqpC1xXGGrHopMC/+NM/oSqLU6dls33ko49vub39CU+PD2x391R1zWZ7IPrIol3TNg1//dd/Q/CCXzXGUleV9JSRUEQQt0mWNufPIC/V72uks/vC5uRLay1Nu6DpevqhJ8XAdrMlRqHk+yhjgL/89/8jH738mE9e/UA6AMZgTMSniV/83a/YbLfUTcv5xQXoyPnFGT54bi6vcmCLQSuHUjJI2G93TEXJPHrOVpcsVwu00VkCKb10Yyu0suwPvez2SvLpFJqFavEh8Kd/9iecn58z9IOw63xk9jOHDqa7R4w1KB15etwyzZ6qsth5nnHWYZ00l5WXmX08Mh6yUuxIj5QHJ298WVeklJjDzDxPDP0gu50zp1jWYeh5fJxFG6UV93fvmbxIEy2y7Rmj0VYzhpFtd6DpdrimRpWWDz99SQxw2O3BKJwz2GNy0TQQjaIqC7RWjCHQNi2///mKzWbL3bt7lquWYeh5fn5isai4vFjz8Ucvebjf8s1X77l7+yBgZa/ZdQe++PIr2qbl+uYDsScZh0oBaw1XV5dsD0JVb5uap8cHoRCZHJ1rPf/63/xLmqZgnD3v3r+n7ydeffaKN1/fyd0hQPSesR+zy1ogh3/0Rz8hpcDzsyTRPz4+iu0qJhK55ymHfR4pRzjuzCHIFE0poo+cnV0Qn+7p+wOucGID05o4z6cbyjfffsPz8xMXl5d8+tlnzBG+/NVvCVGif9frM8q6xOM5PxfUQVXKi6q0pNxrpanKkujk8lo4m42dSnJCSJRNhVFaxtNRExGb183tFUpJJjdJKPxlWWZpLkQfeX7eMPaCqPU+khK0bYWfAtvHLUNlMbfXn/87P8+5aS4wapWPKdFOH+08Kr/+Ej0Vovi9jo6LGEXLJbrWQIhR2l3jiDVGuL1lxTx7EX6vlsI70wZXFAQiVVtLNsQw8rR5ZgqBYcq65EYsTEpLC2+729H3vTTmfWT7JD9sVYpHLcaZz37wCRcXay4uz3nx4obFQhKSjC0Yh5l//5d/xZyFNikhHYoEZVHLolCGx4d7hr7DWsVytcTl3a6wlrop2e63lKWlqgwvP7rBuZmi0oQ0c3N1xeXlBf2hZ7vp+N2XX/H2zVtevPiA582GEALOOVarJUUh//vixS2Pj0/0/Yj3svA4CtmPlpSsDdFK5Yy8hrKsIGn2+z3v3r1jt9sQowdirmPz6B9FWQrNPcRA33e8vXvL3ft32DzMaduapqlZrpZcX1+yPpN4AWtMHp/Lhe/Tzz7h4uIcpRWzD6SUqKsKifGNhDCjtGw60zwyjiPBe6wuRKJQW6xTFM5QFlbavdlH6LShaWqMk2AFknRqUpRw9xijWNxUFp0oRFuQ0ncyx//v16mUyP/BFBMhBQkMOX0pOWK0FhEPYK3s1n3XS3+0bcFo5mFEFRbvPbassXWLrWvmEPExkbqO4fmJRdtQZmHM4XDAe89+v8cVlhc3N3T7gdWqYZoG3r33VHXF0/MT90/PNGXLankuae4hstvt+cUv/oFvv7ljvbg5PQxrLT6DWt7fv2dRtyd9QPAjj09PxMwqrssSWxh8nFhfrIhpoqwcX3z5K0lJKlour675p+ev8D6w2exJU8Nms8NZy+PjI3V9XFSKui7ouj1ddxAazfU17x8fcdbJyZdpPWRthbWG3XaDyz1jbSxN0+ZessFYQ5kqlE40Tcknn3zIYrHi6XGbM9k8m+2GsipwhaVdLliuVrx7L+Wa0joLiKAsHWVhxb2xec4OY09ZVRy6LVqZUykRjIBJjmUOyK/HccS6Fj/Dw2HLfjdycTmyXjVUhWVMiUM34GfJ9JummX0UGGLfdUyzp3AlKarsnRR3et/1WK2VHP/DIIOHFHOGhDoxuo5f8gZzmtyk7OCQVsx3CqiUdRQAVVHTtq0c4cslH38kQO2YxOw4afF2maiZtnvUYU/bLtHOsnt4Zvaz5JlNQmdXKBZLwbdeXp5ztrokBs8vf/FrVmcrXr36hLJcUNeKd+/e4RcWZwJffCH08P2+Y5o8V5cv0MqxKGq6TmIBVquVtI+2G4qyQitNXZdoHdHHhznl3WFRsXl4YrN/Zrvb8LOf/ZSmavjHf3xN9BuMecth6JjngYfHBwp1JqSaKH3ioiyoqhLvJ2lTkuj6nkXjKeqZ6xcv6IeJsiwYxpFu34nISUnY32IlbTNrLM4K+VMCYgp+8vFP+Prr3zIMe37vh8IznjO63znLm7dvuLk95/r2irPzFe1SWoDnb1YcOqHib7aSmbw+Xwm/YxowVrFcSa4xJLZPG7a7HQnFPEeCF5dOURSUdZ3LAZktTKMXV0vy2VeXiLPgDpTWIphKM0PfE/xM9PJzdr24ZxQHlqsFzki8wtCL2dRO/SBB2dkEmY63BTTElLsREOPRg5UHGeTJjeK0eGUBJ4yV3DJrLc5YktKcXVyyXC745s3rvLgVrihxrsj5G6KRUFax2R8EL6QkRkplFkQMYkEahsDZesnQe7766jVn6xUKS10ssqClp+8nvIcUNb/8xd8xh0hSBldWoAZQI+vzhtVqyexbooeLixtev37N7EviPBNQhDBhnexIMfe5tVW8fPkBP/6jH4FJDH3H+XqNUpFFfc3buz2bzYZ5jgyHmdqeo5QjpJmqrknJU9Uli0VLu2wldT7Bcn0GSVNUNeuiRClBiG53O8b1iLFGaskQ0M4Rgz+NZedxEsXg2PH1t18RiZyfr3MsmiJ4BSUUxZLrF0uZqrWluCcWDmsSLz++ZJ5XvP72HcPQ0x0m3n77hv2m5OJqTdvUWGU4W55JjEKUvAox9IrY3hpL8DK80NbKPSpHrxmtKWyBsRoVLcMQxIbUTRynctEH/BylcxEjpXVEGxlznrefIn72hJw5bad5yseUjBEVkhVstDy8sirxQXLWjuij75supU6W2tdYS1WVxKRYnq1YtEvasqGuKsZpRKnEpb3EuSLHByAahaLAWMsh17NVXecxMZkDLB+Q2m5ISSY6cvxafPB0/cBqfY4PiS+//IrRD6yWAvTYPe0IUbFYLGjaBdM4icUpBuYp8Prbt5xfnLPZHADDatVydt6yfd7z/LxhCpExh8j42aNiZBEjl1eXHLo9X3/zO376059gnWa9WuAs7A8TN1ef8vbuvZDmzYyPSsyk2mBtlXnFS6xzMqlS8iErNMa53ErS1E3D9fUZKSb2hwNlUWKd9HpjEi3IYXfgoBWzn1itFqzXS7SB5aKmLB3TOKFUJCXFMB7wfubmg2usEb/i0PWkNFBVFefnDWX5CZvnjhglMWqaHeuzBU1doZWh70b2mz3PT1uGcURbcb2UDrkPKYh+Yk4RUxfYUnC6xioZUFmbywxN8Ipx9NKWy4n2wQst1Boh9xdFyTRPxGwKsI7TyWNDhvF9n7ugkpQLPgS6x2dUJrgcJefq+5WFklUsUDjDcrXgx3/4E158cEvTLHj3+o4UksBMnFB5+n4Eg8y6zZR1yA3aGKYss2syPhUEfhc8uMKeNLXzLHXwcrng/uGR7fOWaR7FNZIij/cbdAZvr9dXoMT+8/79AyFImRRNpCxXvP72QSZCu2/40Y8+5w9+/HvM08j/+r/978xToD/MdN2IMwV1VbPbbvmf/ue/xBaOH//wh/zTP37B6mxB4QqeNwcWizUXZ2fM88DmWTo1pXa4QnIfjtwNayyuMBRVQVKaFAKFK6kXNSiPHyd+8INPWCxaeblnT1GV7Pb7nAEtJ1nbOh4eI1V1ITnJXiw7qIifeuZ5ouskdrdwlqZtUBicKVivz+mHnjd3dyyXFev1S4xJtG3Dfie8hhDkQq6VaBKGfuDh/lFqemdpbMtivSSEQHc4yMu233O+XksZoUArcNZgC+k2JMDPYxbyiH/P525DDAGjI6aQ9mXw0uWyViaPpJTxqkqSm9Kx6/C9RTn7OQs8cnvm6F1DGLxiCIoQoSitAECuLrm5uaJpa97cvaU/9BjrIGb7fAwS0zX0jKPwukQ0kujGEW2kXaSNZpqGU91tq/rElU0pyo0714y77Z6u70hRUVW16AcimToJpRXewXK55NAPfPv6bY5uamkvrtBaetPWOikVSsd290BVWf7sz39C38+8/uaeb756S/QKXRTE4Pn4k085Pz/DacdDv8Homd++e0PVNMyh47dffkUIihBidmUIYrYoWiIR6yy6kIw5UwgZv3CWSKBpSoyFwjpcFRimjYDvzCxlSJsIITGM0gLV1mLLM9p2RbfbMwyBcTgQoifMM9FHClNQlCVlXVKWhcg+VaRZNFl4pSjrkmHseXraczjsCWHGGYMh0R86drs9TdVilKUqKzo3Zg5zRihoJRtIkC6EtZbCFTRtg3E6l6ielGy+Y2lSkkveNE3Mk8+UU0GnkhLzKMizY1cshCCLF4XRCnOx/uDfwXdKJBIcMyyOAI2mWVBVok5D5+TOGEArfvCDH/DRxx9R1TX73Y5koKxKxnlisWpBRSY/cugPPG22vL+/JyQJ6BvHCR+8aEZLQ1XLZaTKfrLjixWDx2gt422jcc6JgXIcGacZkmIcpR4LIdH3HVVZ54sB+NnTLheS/+EKSbcxmrZpREGnxU0hGcIjKU3ENLFYLLi8uMCaUoDLCkiRd2/vOBw6FDBME8ZY2sWCql5gXYnS5PaeFxNsiIQk08CicLRtTVVVKJUIcUYRUCqCjrRtSd1WaANdt5c4A51OuP8hK/ow8qJXZSEa4lLy7OSCBV13wE+z4At8ygtkZn/Ys9lJQGRSiWme6fqDlH9Nw8PjlufHLffvnwg+Ya2R0fYsi2u3PwhqYBzERR6/Q+taK92Koiq4vDynbmpxahcabWTjAySA59iCnXzW28wcYeUKThl+kn0SCD4Qo8AdU4p5uqqxR9ncseOrjrLB79W4MRwXjvj8L6+vBCe1aFktVyyWDXVd07QCoHBFQdM0DEPH827Lw/Mj7XoB2pK0RhvLsqrR2mCMlsVbZTuONaee5dBnnWhuZkNCGysp7d5L2WIkBFG0FzJ81dpKCmZosIVh0S7YbjbMIVDYkhcvbiAGlJKLQ4iRrvf4IHqL0ivoEqQD86xYrlqZIL644u//7ldCTxwETvLxq485uz5nCp6yrum6IddqYslHJ4xSjNPEpCSkWmSnGnVMO8iEyRhmUgrE4OV7rRrGeSb2gjXAaHyUqF2lwVl36s93fc/T4xNhDoCmLB19ToIKUZSB4+QZxx5XO6q2YlVaDvsDtrD4BG/fPrHd7nBWsva8ka7PNImLYhwmpuCpKsf5xZqyKqU1mj2Ap5G9s/gUIQXKqkRZjbJglYVINtVKQ8BaR1mI7y8G+Wch7+ZSS4eTe8N7GbAdh2rGKHI1rUHrUxhgXrc4LUBqbQwxW3EW7YKr60suLs6l1iodIcnOPE0TtjAcDgd2uy1d12MLx6tPPsUYy3jhef9OcnnrQrxdIc7Z1SA3y1jY025onaWuBGe13ezw4ZhSL6+XsYazVujq2+3+pGN1rsBqTQgRl6y4e9NMIJFMwrky11EiURz7CbSiH+HV9UtcUSJyQdhs7zBG8eL6iuWZLP79di/tngC7zZ7r6xvqumboJ56en3i8fzwNIZq6QWlDOUfGSW7SKtN6irLAOC11ZN2wWIp2NhkNOdlonOac8QxoTdKgiSjL6djVwDhMxJBomxpjnPSwlUge0xwECVaCKx3KJEkZLQuss3Tbjn6cGKcgfw4RYWlExCVsNun7p5CwVi6e1mjKqmAcR6GmW0VVVzinv2fF12K1QqFNNvxr8etJ+/Uow5UwypNxNxtliYmkpScsEHDpnRtrKOoSq0yRiTWSKeGcfEM+JgojIc0kxdX1Bdc3l6K/TQFUonG1eIiV7N+b/Y6UEtvNhmmaWK+XrMuCIo9Ep76jdI4X12fUdcvDwwN9nxjHnnGUeNu5KlHGYUIkJNj3h9wZiVJHpcTkRZATfMC4wDBPwhPObyoxEbXUUtvdnq4bwGhRpWnHPAplJiap5l3tWC4WLM9WKBOJSrNo1yIW/2ZL9BNtPbJeVez3B1whCT1HcU3X9zhv5QYeJDRba0OhC4qiwmjLECd0U7A77JnCxEVzibKID8+AdgrjnCS15+cp9HrRd1itqSuxVY1+wmRqZwyRqZ+IIVA4g7aa5WrBPAeKeUJbjVWKqqgoyoKkREYZUpJNZRgZ54BzBQpPWUhsrlIVu7SDSVgQCkBDU5Wsl0tsvpBpJDhSpKoaW0jZJroo4TXHOJ/MrmSRulYiL5fwd8ENzJn6VJVFrgYSujRi6PQeNacTJrYohF1iy6qhKGXis1wtKZxjt9sxzYEwe8ZpJPjAw0OiKA0xLsQrV1dopU7gv0PXSzxsd+CwP9BmB0UMicfHR9G3hsD52QVF4RiG/gT8G4YxT2ss5CPrOBGUkJiYb+EyoibJJcYYQwKGoT8NV8R4mSkyWQ2TAJNPls1mIxnDtYxT28WCoihRWtH3HbYwhJSYRpH6AbSLFTEq7t4+stvvmeYRpbRwJqaZh4eHUwyvUpzkmkqpHJgjl6SYEsulYP9JktssYD5ZsOM4SM2opVSYJ5/jzwxKm9xyLGVH9pGiKgheamKTx7yL5ZK6rlB6IqUobghXYLTDOEvT1FKD+pmkhO+8IFt3YsoKQ8GpmhzpEFPCao21jqqSS2CMgWlOp4VZO4tW0rnyXnS+McE4zsQotElrHSoItup4ih4D0kOIOUDR5M/xqFE+lrWIfFOZE5W0bhvsYrWU+rZwuLJAK8VNc8M4esZh4OlZpmFm6Hl4eGCaJqlpiKxWK1JSp91znCb6vkcbjbWW7W5Pu1iINcUYCmPo+gPTPOLnQNftSSlQFiUmDz5MjmCVFpE8kHHoQcsO5ccRCWa0mMJhssEzpZSb6IkQpu8CD63Ap13Wj0qEbchmTsXhcGC/j6fsspvba5arFUlpuuwHtNZy9+49/aFnjoLC0kpjtAirn5+37HZ76aqk3ILa98x+xodA4T1lWWTeWSNYLS2UeBQyuSqKrE3o5RCJkRDlQ6uqCp89iMYYysKJw+PQyS09SDLTcrWQG7/RMEaETVFQNzVJa1xR4MoCpomQIwxSPspJCWXyDDgqbGlxg0Gp8mTtUbnUHOcJpSPOlrTLBdZZrJHfDyHQH3r6ccisCYXSBp+xt0ql04KOMTJOY2aKqFwTS8l6tKgppQgZ+yuyUYMr5aRyRYEd54E4RuzsKKciv8kGa0vOLi4oqpru0NF1ezZbYbxGLcW9te+pquY0dDgVzwnBhRrp7za13PZ3ux0ppsxlOLZCCkxhaIxhGuUIUZjc2BfllTYmZ7qlk8mvqur84ZdSyxnBN03DiJ+FoIhWhCQyyzlJmidGY6xGF1ZI5XwnDk8q0h0GrC2oszvX+5m7zTvGYaQsKoyz6MmLJtpo0UnPgd1uj8rZdKvlEmMcwzBlIo8nRk1tHIbAHCJlvaBta8q6RFupCb0fT9JHcq1olaEqK2Ipu71PAaPELu+jB6NpqoKqKSnqQkiWyhJCoG4aZhdFvi2PlCnMeLkNCDYrIdirGLHOURYODyQC7XKZL8+KecqxAcAcPc4akZhmrGtUkGLAB09QMffwI2Lzl/6tyklMCsn9mOfplPOBUXkTc/kEE7dPPPLpcttNKSkjE4o5eFnAwUe0n+n2h+wZU3LkWMlimKbvdrRkoHDfga6tzT1OI3wwEcbI226tGBnnINI6VxREHySLbpZJnNEGnTR+lsCXlBLdOGCMycdIQmlDmEV8LZY7RVLphH4tq4qqEmaEryuGfszm04RPQcyUIWBdZobplC8PClcIrVGlJBcJhCA09BJ0Ps8j0c+5a6DkJKlK/OSzAo8sYFG5U1MQYqSpG7S2uf/tsU6LoyIlisJROEcIQWrE3F6aZ+EYhxBOzgqtdS4txOFitMInAZIsGumHX1yd4zJlM4TANIzyjEiM8ySTMmVQKUiilBI0l5ya0oNFgasMGJmQiW5W+v0hSIdKO6EDCRNOOCIkKfEiKQeahxNFpygLkUrmNqXOi++YmR1CPJV9kGW1sslL6ZcXrrGaqimz31IiEo7lozXGcmKVGUlATGTXa75JF0WZJ3DythRZn1BXNa4QO72z4h5VRlOUsriPyfbDOIiWwQvTSimFcZYwS3voSLI81mBwDC9Up3+31PKGilRTSOLOlbRNy3K1kolPgu24Ock+pTtlKGyFKqAss/U/JXH0FkKYr6ryZE49ZtX5KDt/7RqMEoKM9CIF8pdSyjN8OTPKUjoIRVHKwp8mrC04v7jIptZjTR+J88zz4zNRBepFmwlEKQPCI2VVSe2fZDQ7TYmYItpqiqqUOt9alstSxsYOUpzw80iIEnnb9RNdPyFrSTaDwjlGP0spojVdN5CiSACM0QK1JD4AAAkGSURBVLmVaZmnRJh11qOIQ0eOd3mp6rpCJZ8HNFKrCuNBlH0iWMrRYM5hTXG6i8g+IaZRnWHdR5Wj1uqEZzgd6ClJiZLs6V5EBvylFLGLpskh3zG/LRlskcXsQsvJ07ggISXzLMMDY6xcTqwsqKqVnfC4SIbJE+ZAHGbRr2aGgsgDI9aZ3D+Eyc95whaIXiJrtZZcNOGQScE/jqOo+20hx1/yjH7AJ0s/jfl2rSVY3GXVXAi4UlgQR81pUUij3DkJ9CvLEpMDaBIJh0BOUAmrhVUcrSXNiTHX+wJByWQbIyy27X7HMAwSYO40ZalZLs54en5mHEZiGvJ+q9DOseuH3HcXsVTT1FSV5JL0fX/60JarhsubK4yR06otm7yTecLomaPQhPw4c+g7Zp9wpcMp+TmV1SSdKEvLNM6SSBTE91hVEmxZOIsrHDp5onNMyaONp6wksB2dyxqrUaok6e/EXEbr7De06KRPu6dWWnZynT+TePznAgiMSs4fY2UW8J0x+LsLnDUy1CI/C6VBJ4nBtEM/yEKxhqLIEGVtpZeY1WcxH28e6X2oKE7jtqlxhUFbiY9dr1ckpXIeW8oUQ8/sPSRRqR3ffm3taXqTElmLHCgKR7NoKavqVFMbI0eXUionqmt5eNniNE8zQxzwfkI4ZAmV85I10k479hcBfEhMeZoj1Edp64Qg5soYAZ0gaGnhRPkejFZEIwoqn0sUbBYljTPeH5inmUjg5Uc3XF6sRJRtDLMfpDzqBuYgU6epHwi51tNaUVUFWltiVLm1JFrtqqq4vr7BVY6nh3tB1eo9dVkSQ4EyihAjCcU0ebxP6HzJta48TbRiDDRNyzCMJALWwmJRSx+6KUlRpFragHUapQvJqEsKU1l8nPNq4HsbnfxljEHn3dRocnkg6+fo7cu/lO+HKBkcIbfFMsVI6mb4Tr8vL8f3QZASq5AvfV0eu7qikEVmNNqA1ul7u65MRspcYNeVNMulftSiqs8cM6WkgxBiQCWTx4VywzchUDelMNFS7tvmUW5T1pRVQUTCBxMh70ty7E7jeApvmYM/7eZaaeYM6ZPvM2SxZ8wjWtFxxHlCozJXK6eyJYWzihhnQkqE7C5JUeUaUhHnSOkM1pRiGrWG6KOQhWbPHATfut1sT/TNmxcXWKexpcJWmuijvBAqkqLPLmSY4zFCNuWLsCH4kO31gbIScN719QUo2Dw/03e9oJlS4uHpicvLc6qmPtXuu0PHFDyFcZyU5SohmDQFBMrKUhQtmsjtBze5NDT4ECTRKGZKvtWUTXkq5VyyeQIqde1RPqO++5t8wZLFm1I+xBBoo/Q8vttZj39JX1ifPuujwUDl0goQin4eeH3/y0odK8dxiB6lobAFR6F6SqKcKl0WnlhJuQFIyjP5BMaSpiQ1jJZdVqscg6WlpeaDB3UcNybQQj0PIWcXW7mY6bwbGaNFMRaFSi43+YRP2c4fkpBlUjpBrhXSW1WKU53qY0RJajY+ySXIaC2aZaWxCgoyiGSSfLqY8yhEs2whRvlZnIY8YOmGgc1ux9hN+HlmnjygaNqW8/MLylo6FsZa9vsdh64TMVNV4FPAe3GzxJSkJ51rRh8CJs5Yp1idNazPlxinmfzMPM6YosAoQ4oelGKcZrS17A4H+mFknmZ8TJiUiHNgmveChG1qmlb0HKtygXOGRVOjjXQhhkEu8372TLO8YGjE0pPk+ajEyUAqU1uDyjDtlI5tuZhPD5GGqiR+SlEFy4YUfDgNncyx35s3FnKr8HhfOCIaQvxuAnsc/6eUsHVTn7b2mGKuqwIX52eMfmYcsnhESX4YSVFph8n6TlTKelB9QkypoxkUuSC442iGmDUCcjNWSqjwHo8JYhQVe1KUFNB8a539REiJcRjle0DG3HyPLKOUkphSJREFxJCFH2KPclZqLpMMVmtRWWlxx/pxZJh8zgAJJAzkXnYMijHKjk8ErManyGa3Z7s/MPXSCipswaeffYb3E64qpfviZ6Z5YpgGNvstL65vqcuW7X7HdrfnrCiJKPphYLffUamai4sz2kXB6kIs7MaKGCr4gLaWFIOMV5MYAiICDzwcpKZNUeFDIk6TeOJU4oPbWy7OznCFmC+tsXmELz3WYRgJgZwdMmUqaSXtS0WeesoET5t8vh17ukoWlg9C+ZyDLN6jIEHloRJKOjwpyX0n5JKmKEtMAhPVyTwRsmTgtPPqY0v1WFdwWuDWWcecLyLWWNq2Yb0+o2kXmKzwmr0EfUgKZ4FWokaLKfcTvytPSMgOp5Qm5XYJKWFQxAgpepIypICAxJNEZaGK0/xbWlPS7pEXKjF7L6qkIP+fMQlcT0iHnJrfp28E8gUi5faWzbuIHI9i2lTi5QpSPoQMTpYuUiIqxTzL4h/GCe0jrpSLRowQQ6Iqa6wtshb4mdWy5dDtWV+WGGcYhh6U0NCtcmzzuP2D29s8FJhpFjU/+PwTmqZB6UjVGExhSATG2aOwhCAbhSZPzBIEPxMmseUUxmG0ox+m0w5prWG5XrBer1Aa3r17L63LHBoes+otQTbh5mFD1r9oY09Co+MLfGI6H8sTpI0Ygmw6PvrcmVBYa/Jmdlp32WUtC0YpJfoKdRQ0aVIi84pPIwXZxKZJMkqszfW2lBz2qJ2tm5qzszM57r1nmIf8lskxUtoSawtxSDid+5vHllc+ylVuPicZF87jRJdTQI3WKONQBKxxGOvQWnEYBqyxWCPCIRSkqE6SOT/PhCBtmqMTOsZEoSWtJyEB0d57nJHLGHAipVulsfo7tq9SxxTQJCdAEricVkqMg8ySMh8lHtdph3MFyahTz7dtl7z69CX+w1tuLq7ZHw7M00TdVBI91hQslgX9cGAaZ/ph5Ol+wzxJu3K5XDL7maptuFhIEHrXdzzc32NtZJmWVElKEAWM4yShLtpIm8nqXAtrlJY8PgWnkXxQQnG/urrg4uocP01sDz1zVu2NY5f7uVYsPdNE34/04yQ7u7WiYIv+NEggHb3pctppo3PZkzeuk9BG+HgxykVaaSWfic4LTinKVBLSsRdj/hnh83iafkd3klI2JimLQhZ9aSMhnP8vQX1kL4L+90EAAAAASUVORK5CYII=;" vertex="1" parent="DAmpRFK_-s57hyBg2NIy-119">
          <mxGeometry x="36" y="135" width="115.31" height="114" as="geometry" />
        </mxCell>
        <mxCell id="DAmpRFK_-s57hyBg2NIy-10" value="" style="shape=flexArrow;endArrow=classic;html=1;rounded=0;fillColor=#f5f5f5;strokeColor=#666666;" edge="1" parent="DAmpRFK_-s57hyBg2NIy-119">
          <mxGeometry width="50" height="50" relative="1" as="geometry">
            <mxPoint x="161" y="192.5" as="sourcePoint" />
            <mxPoint x="207.25067811865475" y="192.5" as="targetPoint" />
          </mxGeometry>
        </mxCell>
        <mxCell id="DAmpRFK_-s57hyBg2NIy-11" value="Linear Projection" style="rounded=1;whiteSpace=wrap;html=1;fillColor=#ffe6cc;strokeColor=#d79b00;shadow=1;glass=1;horizontal=1;" vertex="1" parent="DAmpRFK_-s57hyBg2NIy-119">
          <mxGeometry x="351" y="26" width="60" height="320" as="geometry" />
        </mxCell>
        <mxCell id="DAmpRFK_-s57hyBg2NIy-13" value="" style="group" vertex="1" connectable="0" parent="DAmpRFK_-s57hyBg2NIy-119">
          <mxGeometry x="231" y="26" width="60" height="326" as="geometry" />
        </mxCell>
        <mxCell id="DAmpRFK_-s57hyBg2NIy-6" value="" style="shape=image;verticalLabelPosition=bottom;labelBackgroundColor=default;verticalAlign=top;aspect=fixed;imageAspect=0;image=data:image/png,iVBORw0KGgoAAAANSUhEUgAAAEQAAABECAYAAAA4E5OyAAAfYElEQVR4nLWc26t9WXbXP2PMOdfae5/L71q3bpPqVLpDKhdsJYiYmBhIVCSIJCZ58EUFlf4DxNf+EyQPSnwI4oOPCYRQCraQBIKIClHSkJuXIN2d6qr6nd85Z1/WZc45fBhzrX1OdRsRcf/Ydc7Za+255hxzXL7jO8YszMze/+DO/qTXNE02TdOfeM//y33L87/dPL7xjW/8f3vup1/vf3Bn8v4Hd/bL3/U1vvrVrzKOI59+CWAPfn76Gt/m8+XV9z3zNGNW2xj+z9o/RQgx8e7n3uVvf/K9/PMXv8sf/Y8/Iuf8+Dny4A/DvytKNWvXBBEwM5+LgNh5bmagKg9m/GDW7UeMic997jvhF3/xF+39D+7sZ376p03BgogFUQsiptDeYikEi+qfR9X19xSCfya6fr68+5QshWgpRIuaLEpnUToLRIsSLGmyn/ubP2/vf3BnX/oHX7L3P7izn/2Zn7Ok3aN3HzfWx411sbcUOkuabNttrQud9bG3TdrYpttanzaW0sZSt7Eu+TvFjYXQ26a/tL67tL67aj8vrO8urEs769KF/fzP/y3XkLfeeMN+9Md+jN/5u7/E7/2160/tzFmiZoaIIgIiilldr/s1efRdMxe/SEDw3TFbPq/r+J//tY/5wV/6e3zl33yFn/zLP8l/+Tv/jP/219/ArGmGCNhZS3yMSoyRUusD7RHXhkdaJVj1+YUQz5q0fsO1DYzv+uWv86f/xZeQqOpaJorVSrXaFi6PVRUhBCXFhIhwPJ0eCWZ5PxbKYmztbQ+vN6GoPLjX71TVddLaxqy1Ymao6qPNMh4P+3gOj81ExL+rCGYuQBXDqBjVrywCsWoPRz0P0x6wLlqVWtuXrXkWqU36yrd/qfsOW5Zwni4KWEU0AObahj/HagUBFUWCUkohaMCacFi04KFAEFSEVbzWhCLNb8nDDQJR1xBbvNwqEHs4UV21xFXXHWGMiWoFs8U9ClgFMaoshvFAKOIPscey/tSuyXkyDzy4tmdXqwQNbS7f6r5l+a+cx3sUAUQe3Pf4m4t2PpybRA22SvLBoKrq467G3L6hClXRRYusYlIxCX6PnQUi6mZhZgQNVKufntJ57quTaBOTb13CYjKPrnl4eRSKRECszUesbYw2bfG/BUE1PFYEEaIQiTFQq63aIGLrpKoZqLRwp678UZcZtrC2CFAeaYgsjk6gUn0CD9aibS667HATcoqRuZQ2ButPayqkoqhoU/RzyBUWQTahmTRzbiOYIMqq+b4oPT9FIIoGqrnDUVHcDSwCOQvXHWjzEwYVQ8QIIVBrdWGs9unfU1Eq1pQvPPZNK4aAgGK6OD23GW3auIrXzkosoi741RwMlcXs5CwUBKgPAFNw61qwC8sz24YbyGZzactCxHggZY8A9YFnP6tom6Hb1DkEfotXbzv3KVt99DIIIZxDd1PnR9FpHe9bP1sGcdfhztjN4wwFziFYWRZp6+Ys5u8+KsYQzw9sKiyABMUEgoGoPor3PoflZv97cXz/u9d5cg+NwBcTY6KUsprr4+sPtE6kOfS26PWOyhLgvjXSCapu1v5Lm7M+iECrtgjx4e4/cPIQdL1pCWX/t6+HAnooiIemtYC3oEtofHSpTVUdkHn48Si4OCMDFofuDmLVzPY0rL3dXhZTa7ZjyzV/xRDCY1j/yDrkDNK+Tcj7PwpEFxuXT2mG+iRlMVOfpCFtcQ+1RDAUE3VhNF+yzkbVsyLxxS6+ztatDW3x5+9Juw8TTH0eiyuIUUPbNaVSqXKWrD8vNPnWdY72Kcn5NZ+8rl7bx1x33GN0260WMUxQC6h0ePoX3SzaDhcBk4DJedGeCPjzdBGUaFuUNqH650JEiO5S1k0ODVYEF4iomxKCSSCioWmHq2LgQZhy5fSfEjwEm7RQtbwNWwAYSkXXXVnCbgWq6QPbbymjGBYqdd3lAFI9uEsgEqiLimtAJQKRKj75KgkktnCMa5eqX1PXtmUs1zJAIqKR0oQo4u5AJIIEomo8I0kxpNnrWbV9IdbUulaoS/glPAjjbbfavdZCH6LUtqCgAVACASUgGvw+DSARNGEEigT/jOA2rwE0YhIxTVQJiEQsKNKcuYiCJk8BNFAFRAMqAdGmEeoBQjXC8j0gqBJVUVWi6ZZaz+FFFvs2OatiW5gQsNjsTRUkUImYRkSiP1wECwFTpYovKkhEtF/xg5IARbRvgu4gJGqIaAhoCkiMEDpEIkEDMSYkNX/QfJMGCKE52jYnj4i+ebomndr8qaBqqNZVSFGVoIrVAlTiLFdYaMyHBoIEhIBIU9e2k2hANPlDJaAhgkSCdhR11dWQQF2lJQRCiJgoqokQOlQiIQSCRp94CJgpFlwA6riJFEPb8UgIPmGhotEXaOpOMogR1AGgqqAhEGN0vye2CmZBsRoEDU0g4ll1TAmNgb5zxB7T7rO+2xqx0GEaHdHhNivSYeo7yLKDbUEaAiF2rrYh+CK1IVJd/m7v0CYtzl6F2CJCxe8P7nNyLW1R7mOiCqKeNGjbbVP37CE0dL1mhbiAtDbzP4NKs0qtlVrdX8aUEJQ6V1SEPM6UcSbWJz+AqGBBqTEhyZ2LyrKTrrKq0SOPeJhSYRWKNuCmbRfci4OGQEqB2EWfQMMQMQQ0BKwatVbmOTNNE2bVN2FJLHOlNFguIVBVKXamF2ePBm4WzWw8BrkwFiwSoj7Kddx05xaChdQFNr0/N/Yv3vU8QtXBWHB1V1osN3Ms03K8JQgFFUKIaPCdc9P2iXlO5PYagmLVGIbTI2jvO+ZqXYohUlFtYTA3gOYZJbHvEBXGJrRaDQ2eq5Ra6VJEcTw158ycS3MzQq25QQWj1gIIMUREAvPswg0hcHl1SUiJqLuEquLycJNw02sStoU8aRohQmjZotrCZPkyixlSPaosiZpIwcSF+jDddpzlk/Is25wUAmotDsDMsGqM89gwRMNAAtFcM0suzAg5VxAlzzOl1HXxUJr2OGBTUcac3axa/iJq7A/H5oNCfICbzAmfembGPaAuGaFL2aPSGaOIuGB8ZS15wvMSwwgqvPXyDY6HE3PJxBS5uLjgdBqpdWAcM2aFWgManIZIIVHK7Ltc2mxs0Rsjz2WlKKcpex4SO8AeUBm4Fho+boUqy/UzJ5znDLNrUtSF67BKKRnKwqk2/lHV2UZVLFegXccotaUFZq6GauRc6FOPBKHfdMQYqTVzGk7kMhFTh4pwd3tHqcYwjJhBCJG+3zCNIzEmpnmmlOIljAfEkpk10jis/A3muz9PmRCd+xVR1zQJbZzFhBbSyh3sQ8Kp1ko0O3MZGvTsdGThExY9eZzb1AoalJQSMQUEqLn4542ItiocjydqzdSSCTEy5wED5ilTK+Tsk87zxDBMLY2fWChDw+j7RK2VnF0TUkqEEJjnuUWXRjF4LkJKod1v5JKJ0Z16LbYKxPlb/y2l5PfESLRSWOD7oo61VoIu/tNYKEVVt9VSckN+wjSPzNkdExVyKeTDkVKdyQ4IZrlRkWNLMhucrqwmsQjcrDYiyFZOo5QCmDvdZrarL5Lmf8SIKdD3vkEgjOPkociMWmorYdgqjIUnAaNaYZ4rMaiuCZ2ZUUtptuYeHKDvE5vNjnme2W47YujYH/ZY9TzGrJJzwUqhmq7p9GKn2hh1QShWGhlkLTcpqwYuJNGSWDp4cpM78ykPKL+2WSKQUmghv678ilmGZhoxCqqRcRhXhn8hlmrN5JwxE2IVT8OqFUJQttsLgkYPSe3a6XRiHCa6riPnwvF4R8nZkz1A1bi8vKbreu7v770UaTQk6hWPFW4TV7K52tx2TdYwWs21AXMAV22m71NzmoGcS0OiSghQrbDZbJ3WrJnNtuPJ02uG00TXJfb7I9M0o0HYbjs0QAyRZ8+eYVbZH/bUMlPqzNOnz4hB3T5jUEotnE5DC78t71Dl8vKK0+nINM/E2FJ0ziQMBE6ngZzLaqPVKoFWQxFp4E7pUmKcpmYGkFJsm+D1nmlys+r6SNcJXRfoNx3b7ZY8Bz78449XPyJSGKfcNEi9xiKVu/sbMCWGxMuXLxiGE1fXFzx7/oRxGLi9O/Dq4w+xCjElNtsNZpFxHIjDMDafACEGaqkQYc5GLQ6cPFKU1b9YbXz36lu8iGS1uu9odlqrAzNEVwg9zzNW6+obui6RkjJNE7UYpVaCKtvthu22I+eJV6/usHpHniHnStcFjMyzp0/Y7nrM4OXLNxiGA5+8+miNQPM0Mk1ldbLH45G+73hyfUmXEof9yf0M0Pdbz2VK9jp8KS3sYiyOeGGw57mw222Y58lBThRKLuTiGqFqBFVCCJTqiDOE6Dvz/LkTO8FTgNNwhBmmaeIzn3mHw+GO/f6O02lAWpI2GeSPx7U6V2vxSKjGkycXvPX2Gzx5cs39fs/h7sSrm1tevbohhMQ8jXRdBwil5gYcC5ttz8uXz9Enys3Naz755IZaqqNadT8kZsTm6puNxhZSW9xuhWIEhtPguUZjl1JK1LKQSJ6RluwIc7e7QDC6mAgSiDEwTTMmhS4lutTx5suXnIYjUZWLp9d0qWvzCKjCZtMzjgMisNn29H1kmgemacRq4dXHrzidRo6H0Zl7Cew2O/a5Mpwmz5KDsu03xKRsd1sO93tqLuScubzYUUolxUC/iXQpcn11TbzaJf7SD30nv/nFP8vxn/xKMwn3wUt1bknCEHFvTMWqg6auS1xcbnn27Al3d7ctiCn7+yMAJRcPyW5w7XdhHgdCVHa7LZix6TvcfCcISgw7SkiUUslj5f72lmkcSClyH0+IBo6H0a83pDrqgGA8fXJNSo5ThtGR8P3dPSJwPBzZ7rbkeeL7v//7uLu7ZXfZ00Xh+vIK+Ue/8Fv2q5//QX70t/8Tv/rrf7gEZ5Y6B81srGZHq1K4uNgSQ+DFi+eIwjgeqZY9AkjkeJiYpkwptfmfBQwtFX9d/YyKMYwDIXSEEJEGslJKpNSz215y2J+Ypol5nkAKqYuEAPM8kVKkmpFi17Rceeedt8kl8+TJE1JKLaTC/d0d+8Mdm21it9thFV7f3rDbbVE1pmFA3v/gzn7q9/8zv/Lr/5XDcfL03kt5K4nijtVT/N3Fhu2mJ8TI/d19S9sLIYaGeJ2y83zBk7M1ZyiZoEsZ0ZO/nGePKl3n4T5PYIWLiwvGMTPP9WzCzZGHIMSkvPnWC16+eME4jtzcvOZwOBCi8uT6EsO4urpmGAbm2b8/jifyXEidEkLk+vqa4TQw5woUrq6ukH/4j3/Tfu17vsiP/vZ/5IPf+u/UUkmxw8ChMo5CdSF4ojKOg0OF6pFEWl134UVcQErXJTabDTkXSqmA0XWRkgtmymazcVqgwfRxGsl5YrPZMM8Dfb8hhESeC9OUWyeA8vTpE2IMaJQVZNdipJQYhpMnaUFRDczZNbVLHbe3t8TYNFFkNasQAnOeiCEQ//W//5/8xGx85Ys/RPmNPyCI+q6ZtAYaR5h5ziCGqcNzaQx8SgHIaFTMPPJIA2DvvPUdfPjhh9RaeO+993h9e8P9/Z55GlrVJK8Vv1orYoV3v/M7eOuttxinkzezGHz969/k5tWt14pL5Xg4OQpVpVChVrbbzQN0rOx2O25uXjeoby3tyJQC242XXvf3e+Y8+2aGlgx+38/9SzudjpSWT6SUyLOtIKtWziSRKiiU7P6kTx3dJlIte7Y8Z1SFTb8BFWqpPLm+Zp5naimM04AE5fmLa/o+MZxGhiGTszGeJlLXcX19xSevbpiniZJnRHWdW9clx0nN2RPOPR677Q5VYZ5n5tkTSbPaTLYlLsaa+Xo2XBueojFvRixzZp7yylafjoOXpYo1ANYYbQMrBYo5LyrOXW77jthfoDjYmsaRu9s7T+c3O25vbkldZJpGaq1c9BeA87a1Crev75jn6jXb08Tt6/1KBBmKNA4UjHGcmul6jciKkcSd9jjOxBiY50opjo1qtTUxDDE4WS3u36o3n7Vo6q0VCESkZY8NpGCuprVKU2fWyON5S6CPqaXZyjhO7I8H+i7yxosXlGlm0/V0/YZh8h3uup6u69jvDxyPE3d3H1FrpdRzRls9F2gFMfdDSEVDbGWCSkzOZfabHaqBcRyppRJbeJ6mudGSoFpAnEyOIVBK9uehPq4ItaUPC7cqIsibP/4LBkIulXmanJZHiRpbchfWm2P0MkK17KhWKl1KnKaBi37jucU4QusFyaVyeXlFLrNPKpdGGQasnjNiWsa82WwbTvEQXcpELplajGfPntL1HfcHD8GYo2sRI3XRqYFaCTE6Nql5zZ5jSlArMURKKZ5TdV0L5fP6TDMjpq5DNbIRYbvZMg4nyuzpfLW6Dmpmnng5FdSwQmAYRs8+VZnHmaCJfrNhnCZCTJyGk9v2NLv94/ztyo+2KBZCh5kxT7On5FbQAFdXV2w2W1IMTRDmFGeta9NfmTNx01ERypwZ54yqkbreEXQt5HlujJ+Rq5FzJjzIr84CCZFpzgjC/XTrfqOaF5AMjAp1EUpdNcXMbToEH3QYp5bXgE2jq6N4smitiUdFKdVzkxgSuRSWdsg8+45Wq87UW6UaDMPIYX9sZXKBCqXaqmFQMTGO8/yIxI4hEkWhGlohLnNpFGSplSLNGT7obIjD8YDhnGbjTEgxUao1ml5Az4RztUqphaU4lLNPJPSRruvQKHQxtTCq5FIcHE1OGMuSiVpjvSsMw9ScdEOwQej7DVDpu44SKyUbwzDAQiAbeBdAk7Z4OXKhF58+f8p+v3eFKpWS80rZe6uX+6mzYH3MmGJYGe0FqmtzpEUdHyyMvuCVtrlkLi42XFz0eGdgIESh7zqOxyPzNLfCtpGCQtfx7M23uLi84mtf+7qPXZwpG44jVo2CI1JVJU8ztXjN5P5uT4iRGCI1L/NcDLeFy0YtBvEsfJpmxm98uBav1h64lTdslQJbBvAoSjXiG28857A/kHNlu9l5qKrmHrsI5Sw/zCqhFeSxBmhEsZLJpaIYXQyUIsxToe+dPY9Bubt9zf7+wOk4rJpmS+ViKWdirgEY1dw0t/2WUowyn8sfiDwgHt2MVIXaNC5IawG11trNQli36qIszb1eA66lEkRIXUd8fXPT6LrWa2YuuqiKpMhEI2jViAoh+Dt1Stcn8pzJxR3mKQ987nOf4+OPbpjKwO3rw1qW9EaVvJJMy2Jc2x3ESTjzqouTW3pTF+i/1HC9KrD89YATNqM2pwyt+LbmTy74Ws25XSp952FZq7HpeuKzZ5fcvHpNrcY4HFbG6+JiR592TCvWnxmGkd1ugyik1HmItcr11QVYJaXA3etPyNMJlcp22wMubDMHSeOcKXlpBV/qwEsyCNWMvuvQRjitx0sWdXpAMKOt4GrmVGVbsI/d2ker97x4smoroeWON6A4ei3VmA73xOtr6PsrurjldJqZ5hEVJ3xSNLabDlSZsjKMR07HAyVXYueNNn3fY6XSd5GgwvZix+VuR66GEPjk1Q0gDOO8pgNeeNJVA4zatMiFsCjCNIzknM/a2xxhXUx4Vf+lHLHwvIuHcS2qVlpzsBfhawsKuRQKflJCRTGpxM985h0++eSOV5/cUZy1J5dMIZMXzqHrOA0zVr0QJQTm0Vn57WaL03W19ad7ttyrkg0uL3fs74/Mo6NIywvn2morjZHzni9/vkahZA/D4cHJiAfezF2J4wJfuLZCe6valexC1tZSLk0jVtZPxFvSsyxQFStG/A//7nfIuTpkrsrl5YUPUgtPnz0BqQynoWWbkVLPk99ut3SpYxiODKfSnK6SopO6fiBAzws3iCqU4gi1lYwab5pJqUMETxI5N9OWBzTn6kht8UUCoQBK0MTV5SXH4wlrBflpHri8vODiYsfxcMTMuRCH/QUhtIqek0hxHFy1arPl/f641jt8sC0lF66uLpmnQqyBi6sn3N87MXw6nVqSVMnzyPX1NTln5nlmnOdWNALM7VWCIlYpxTDzaCEIXdc5v1K8pJDLYgbSTOwcLrU14LoT9lKomJvCfn/HPM/EFB1XNN9xOOxXbctlcptsgMbL2H5frCuKhJxncm2FIgqjCvv7E0GVzabHCkx5ZpxaKUFlPcMSY8BKcNLnNFCyn4CYp5laHQNYOwFlZfEduvaZ2NLdU2orY2rrKzWqnH2Ms3lGnzykh+itYHMpiDnmuLzYMhc3yS70bLdbbm9vmWzJflsbd4ikFBEV5nlqTXe5tN4uJWpgniZaTys1N1Y9BobDRAhCSl0zB6il0IVILjPzWOn7xOubV7zx8k0UyFbJwYES7QSTM2ziab3QoL1TlyzZKGvbfgOEi0P1ftmSM2PxbDikjtR1aM4M4+BljNG7iGJIWDWO+xPzmFtLl3ovCX5Co0hmu+3Y9pfsD3tiniZMFYnGlDNQnAmL3kKVc2Wh4a0aNWd2ux3H05HLiwvnIuaCSmB3scXMuHn1MdvdjnnMCN4nlmenADf9hlLNPXwuZ3OoDYGaYbo0ZHMmgx7gDWGB3Q7nj6cTMTkhVCqUY+bi6hJV5XQamCYXBrVtsDr/G1Xpuw3jOFBypouRqAIhaCtSteQtBGLwppY8Ze7v752Bwshlag2zM/1G6VLPRx8dSH1iswns93ugUPJMCkpucFlTdH4iBCRXSs2kIH69LVxFlxM5DrJaJGkIw1u1lpgjC03juz3PTlZr62s53O/b2b3zYSfPf7zzlupZ8ikfPFeLRpcSETXm7CHRI4dX6GqZ6bsAFILO7LY9wzRSpXJ7/5ouBk6nPeMYePb8is12S7GZfuOcyTw6IXPcD96C7RCKuTUKe8W9IMFpS2/adtJHRYhdhNaupS3COPqUTznbVWXc72BrAuvZ+XKdVhVQaFyJt3b7vPoYudhtiSkExjI1kAMlT62JFY77G56/uOLtd9722ugQeX1/4P52pE8JMGouvHr1ms1mYC4jL18+4346MAxHVBJiRikztmSypYDENUnbdB0xKtNUmabJP9tsPcnLXopcajvOmTjDXoq1Yx+l8SLS6E6PQLpEEay1c9I4FI9u62Gl4IqQQqJMhXhxscVq8f4OjDmPiAh91/Ps2SVXlxtOxxPH08DN6z3etCMc748czVN81cDxfsTI1Dzx2c9+ljIVrAhZZwdKDj4IrQ+s752x6rpALYUn1xdYFe7uD16uNFbz9b62SsllDbmhXcvFiWRdC+oKURuwE0I7ShtUkKDMeW6m5L0tm26LqJKnwjCdiIfDHg3CRb9p7LpgtTDNE68+/picn7Dd7bh5tceIyNqj5SSNytKJ6KcKUuqpuYC1M8BaKHNpdJ+SOuXq+pLxeKC/6jkOg7eEW2EaJzB3xCKLz6itC0GI0bFC17gXq0YuSi6Z3cWOYThRcibEjpSuuL/fA0bAa0R+tjAgarx4+Sb7/amF+sI8D0iC8O4P/tSXX77xHBVI0VHm8bBv/VzKnEemeeT7f+ALfPd3v8vHH32TPJaWNywdQn60xKhsushHH32EUPne7/08/Sbw3nvvMs0zc87kOXN/d0utM1/4/BeYp8w0ZPouutaMXo9ZKn+lVDabnhADfdfz/MUzNpuO7bbjfn9HzhO7XU+pUyu3ClIyuYwuBJW1c2HOubVbFQ77A8Mwctzfs9v17DY9h+M98hd+9p/axx99zHA6eX9HKWtDrXciR6+lRhqxK4zDRAjJOdA5O13oRAPb3rlRFSHEQMmZp8+eMs8T4zQxjYUYna3HxFuwDDZ9InUBDR3H46lV15QYnWostRBDpOuTw+xa6DY9JWfmPHF9fYGVyv7+SM6VqyfXhJjcP6Sej775kVMI4i1iMSbGYfZ+WLx+NOWJEJ/+mS8PxxNlzitPsXQbWq3eQzEXxpPXWfM0r/3lC2pc8EFpGiAGpVTmMbcWrJEn1xe8/c4LRL0FAStc7HbEEBhOJ+Y8k4J3Z+R8PqJaciOdSyaq+4NpHBnHkdPp1ODBjvu7O/LsxHGZPWrGEDkcDuzvnErUdurBi2C5JYBCzYVxmEgxES5e/rkvYw9OnUlr1LWGEI3z760512ppxFBGrPqJGpGVxXYHb+uXLy8uefPNF/zx17/B7etbpnFks1F++If/PLd399zv94gp0zQzT3nlQd9++y2+5wvvMc0Tp9OROs/kOVPmspLhJc8MhxNd6PiOP/VZ7u/vGYYTOReGw+CNQC2NqK0E26eOt958i+FwaKG7kLrA1fUVcT2/3wCSVaM2gPbwfONjvOhF7YC482ztVi2PP5N7Iu04iPIHv/+H3m5tEQ3Cs+dP+eTV19hdVi4vI2IRTJjyhJlSsvD65obT6TWnsfkHCVhuR1KtHfdQ5WK3IaWO3//d32Oz2/H82XM2mx139/fNmXtNSEUoFeZx4psfftj+xw+w2SYuLy+4ef0J4Z33fvzLP/Ej7/Ph3/8S47/9DZaIvkCp8/vcum8sJwtYP1sIGsQTufXeWpnGYQV+1hI3IfL02SUxGWV0Bi5G4Uf+4hdJSTkeZoZhoNrIs2dPiRq9n7UaVioqsNv1vP32m+zv7pjHyenD6iY1TTNBlGq1kd6CtcqkwIqDqjn+Cqps+p74N/7qF/nVH/or/MhXfpl/1SD0AmgelCtWyCyNDPZrrjVR/f/2Uh2CNlMRFlbMT4Eru+3Oj7yLMg4Dv/vVP2QYT4htEIGnz66JIXL7+mOOx1tUEopwuL9jGgvDaSbghE/fJUrO3N7cMA4TeS5IUJYWMWwmS6a0SFireVtny6mc49VGIVYO+yNg/C8Rw7jIkTSohAAAAABJRU5ErkJggg==;" vertex="1" parent="DAmpRFK_-s57hyBg2NIy-13">
          <mxGeometry x="0.8450704225352113" width="57.46478873239437" height="57.46478873239437" as="geometry" />
        </mxCell>
        <mxCell id="DAmpRFK_-s57hyBg2NIy-7" value="" style="shape=image;verticalLabelPosition=bottom;labelBackgroundColor=default;verticalAlign=top;aspect=fixed;imageAspect=0;image=data:image/png,iVBORw0KGgoAAAANSUhEUgAAAEUAAABFCAYAAAAcjSspAAAgAElEQVR4nKWca6xlyXXXf6uq9t7ncc+9t/vefsy0Z8aO47E9HtuxY2ecOHESv5AdY5wHoChKIvgAUoT4hBSkSAgR+IYUgQQIBRAgBSlKJCMl8ack5EMUiGww5EkYv2bc3dM93X0f57VfVbX4ULX3Od0ThKUc6c7tc8/ZtatWrfqv//qvtQdV1Xd+Yal93+u38nrttdf+v9/puk67rvuWvtf3vb7zC0sd5vEXGe8vOr/h/vLOLyz1P5z+Ga++8io+eESEGCP7LxEB3b3X/b+jj32WP0CEb+nlnOPZZ5/lpx48z3+89jKvvvoq3ntAEUy6nwAIacj0X2MgxidvzN438hX5WkWR/JnsTy7/0xWOF198Fz/0v09xP/jrP8dPf+af8J5f+QV+/dd/A0WJIaLD9/MCNd9fVQFFVRERVMEYs/tCvmbvV57cbkm6993Pfe6v8OWf/Bd87Av/gJ/69D/iO37ln/Frv/ZreXyT7mEEMMlIKkDEWCHGkO8jeaHZYNmAooAYlPRdMYoVg5E0n8FogvBDf/lT/Kz7fv7kUwvk9OSmfvzjH+N//fS/4pUffVO26BPbvGfZYUGSd4BsnOEzzZ89aQj5c8YA4ZlfeYX3/9Lf5bd/63f4+Cc+xpd+/Be4/dfekjcj/eiwgOFHSfOUvXkg431FJBlkMBgGUDCK0d246fo0r8W/+5/8/Po3+dG/+sPIfHak8uf4evKC/4d7jjvDG74z3tAkLxo8a5zccCtNe2rGe5vR2IoOlkw7KbJnWEGjEDUiYjEGRAzG7BltmEsexohgEJABFpKRxZgRAgThb/3tv8nP/tzfw1nnHnP9/UWKyQvc95w9gzDuxrBbjDuwv3pVsxtf8g6rYXT0HQiMRzYftHQvEUQlO4kgVrB5XumIZfuJecwoKJj8mRn+Lnkz2M1Thk0TC4Bz1o5uv2+c0RP2bZsHfNKzRjffO0oD3qSX2U1omJTmUUXQYUsRzIBfYrJRkuEkn0t94p6DIXZT2pufKsakMfdBWkQSDua/pBEM1majGOPy9fpYlFHeeCwYdgYZv7Oz9s7VhwUOVh0BUwSMIjqc82wB88bNSFM1GJPvF9O278/KiMlGGTxFdkaRfGx3s8uGSJslIhhJa7Z5XdYUg1EKxtk/NqlhYToOuwOnhOhDiBrOuz7haToMISlypCgWd8CtBkx8bAefNL4xNv0tgkrceYSaPTA24/W7V2Q4GiZ/xxjL4LVmMJjZeYqYdL2zUozDKDENJoI1djSKDsdR9j3lSex440vMcCPJoTh5lw5HZ8CNYQOEcQFCAk8RO3pwMuhAFvKP7MB6nI8MoJoMYlQAixgDajACVoAB3xCMCNamU+OMtTnExWS2wfrYHArS4CImz9vsFrS3qyhIPgaqkviE7H8nmSCKYjQZaICSAVwHUB8ilTHp/TAcugfKwyyMQTQbE4iDZ0kAAgabDJtBPR+w8UgjdmBAaBT6vscZU6JxCJuRFDUHJB7OsOxFnQEP9s4wgzHjOFkVQffcep+P7sOOihBydDD5yGl+P/ATBeIugO0ZJWMDJl2jyXOSx0SEiJU9o4hJ40OamxgQm0FdUFMlTwlUCfyEcUK7M2qJA+DlSabJmBFpRqPk47QPvsNYghCzUaLE0TApmliiCOGxI7kzkogQBwvALquQfaPsQD4dBYMhIhrRDMZp42w2FaixYJKxrBgsoHZGURS4vljsHQUzntM0WLKiqMkGGZ093cjsrK0ZCx7PmkxGjUTPVUAJPE5w8i4NviQjrI8bFbMlBj8ddnu4GhLuxnxd2sKAwe+AOh+jiEXFoKYAYzDZIBahNbPkKebgmTS0MaCOmF0QY9HsBXGfFOWzq1EGUgpiCSKINajmndDBYMn9kmEUxY/On9B/F6VGjvMEMO946C4e6j4e5b+F4bDH9M6g2BFjzA4nJXkJRlIuhOAUejNPRtGjt2faZzIGSLKgMdnKw+4ZxA4Ivo92mdKbJ5nuEK+fiE6a/zR+/Bhy5iGTi6RsXQlRk7cM2KQpRCegzohNzr3yD0OKkSPacG06lmBNwjwxGSEViuk0GeXk2ecHnpTxQHf03shjO5GOjN1bYMx5SsKMMRGLMacZb9AUdokcPB5NZAz0OwIooFGJUYmqIw5FTffRqGiM7FO6wSC7OevI1BO2KIm7mN2G5nmXs0k2ytMzbOmwRYE1jr73dE2PiOCswzmHiND3HW3bYm0BRjBGcM4kw4gwm82ZTmc8evCIerNFNBIzSIw0HSUaQWPYGcCYPKl8WMVgbPJWBYh556NmfImoCgGIIeSjsmd2HU8sSDLAkDFr3mQjA9o9nrKUVeYpz7/jGYqqoPOBru7p256+6UkZaM50ETQWhDClqipCUKxLu5A0jcQ8nUROjg7YOEsMkcb3hJA0DyuGsixxVTK+xsjZo4eogLWKFTeCqbWGclJixND7HlWl73qcsUQ19Nk7gkhOLCFRXkU0g7uR5PW6M4yKzccl8a/kOYOXas60wbXrFt/0WFsQ6pbSWkxh6PqOtvGEqJmzpDO2rRuaukFVsVaIqsTgiZm9q6bddkWBswnk+q5HDfgQ6bYNsfc45yiKitl8QsyLjiHhg3OWw4MFMQRCKJjMZjx69BANoCHQdx0q6T7WGEJISl1VloDB957BR00+LiNeDYGP5J07kGNkxm696ggxsl4uUWA2naGalLema+l7j4+R2eyAwlW0bY0YoWs7QgwIiR6rQoj9TrVTGfEGVay1SNcTY0xcwBX5WPas15vMiC3OGbwRLs7Pk4Mbgw+B4D0xQAiJXUeNqEasK/F9R1EW+BDo+y6vM/McY8YIE1Qz5U/jGisURYGKYk3iM33f4+o6AVldK/PZhBgzP1Eh+IARi7PKdtPgw4YYIrPZlLZtqSYT+t5TlgUxRvq+JcaI9zGf1110CaEfI0Pbtmw2G0ApSkfXdRjjEAnEYOm6jugDzlpcxpYQY/JGa4lRUQJBYeu3gKJtnzArDvJFuq73Hq8RkzNuzUE9qmA1yQVBA4weB+7h2VlKyzXy6NEmnbkcZTQTq4jm8JiizcXlJUaEtu0wxiZgNkIMPucghjEI5HinMY5RR3OUEEBDom0aAmIsUZTg+wSqUen3NBkVICgD5KaIm86txh2bSc4QiCJARDQpdSamBDHlc+AFuq5DbNo41ezFbdOgMeKGYB2FaASCz4qZHcMlIyiZvCjZJX4RLDYRtMFDlGTwgarmW4COMkPfhXExUSPB7zhxHEN3vmYM35EIGNWRxA2K/xh+0hUYGf5F4tIKojsDmjHXG22FIyrWGg4OpqPrDW6+X2Jouz5PwIzS3hBWAawxODEJHDWFznRO7ThBjTEZLHvRyPEYdkoe01t2/DYvMoFV+p7Ex78xeNRACo1kbXaXLEURQgxDMjPAHUTNzDoD7bXTU6rKMZ1VNE1DCOmoWCNMphWusATv2dZ1xpVI20aEpO0OpKpwjsI5YogUZYn36Sh1bUfX9yMR1IFXqCbylRW/IRwOec+wwMcI8eCBAga7W5w+ZtshgUjHai/aGE3Z8c5Tdi8ddwlcXW/pe8NmuxqNYq2lLEs631OWBc5Z+r4jas/1G9dZr7fU65YQIkaEoyvH1G1DvdnS+4g2NRYhhsw2JSnwY81o2D3Z94PBAPvvE7sdUEQy8xqYyagmjKkII9dR3YGu2c8kNN9zsPuTpDsZpaaaVEyqAu8V1Ujwnq7rYS2IsVhn0dhirbJcXdK2HcErMUJRVKxXW7ZtnRedj9weLUdjEkT2dz2/TSJQOtODhooKUSEJRTtXTzzUJqaqcfxgyJhHlswukdSoIENqouOnO2uaEZdGT7l6csh6vaVtoSwquq5NF5skDZTVBI2ep597Mwfzkq5tWC7X+JnSND3OFNRNS2kd3vuRQzDkFECMwnw6ZTafImJ48OjBmD54H8cdjxoycFvEZvCTjGNDpg1MphN6342MO4Q+cSFjIec1xliM2Px5SKitSbYQa0CSJ4WQuNaQQgC42WxCNSkoS0dZlqhG+r6jmlRs64btpsO5CdvNCmenzKZTDhZz2qYlRKVwjouLS5q2Q6jG/GmzqdHMhFWVqD3rVUfQgHVgbGQymWKNJfjApCopSkffddRNg7EOxdC1LahSWMtiMaUsS+ptiz2YYQthMi0xmXzNZzO6rmc2m1GUKU1om471akPbtBgjVFVBUTkUWF4u2Wxq+t7TNO0oa7iyLBFRXGGwTjDGcbAouHr1kLOzCzZVQWFL+pjIkfc9SsRYg3HgrOX02hUAQoj4PhCCMp/PCKrJaxTKwlJVJc4JtrCEDLJ91xJDYDafceP6dbquQQScsdRtS9/0IIo1ysnJMdNZyd07r9G1IR1BIzjnmE6mlK5is1kjBmJsCRF88PkYeqpqwmIxxRQmBRSdY6ylLEq8j1RllRjtvbu3ESMUVUUMkaqq6H3LV7/6Na5eOSR6zzvf9x7+9M++ig+GyWTC+fkF89kCYw1tXY9Jofc9RVElgDOG0phE2syQgQaMtZyenLJarnn99Qds1jWz2YxGeu7ceY16u2U6nXAwn1IWlps3rjKdlkymjrrZ0jYbYmg5uXrMYrEAsdR1w8XFklfuvcp0MsdYR9N2HBwccn5+zqMHZ8xnBzg74ctf/lNc4bAuedJm0yAKs9mM8sXT5Cnvec8LXFwsafuOonRcvXJEH1piTJFHiNy5c5unn3qas/Mly4slpavYbmq6rqeqJliTmOHZ+Tneh1EoPlwc0bTJbYsiCVZNW/OV/3MbI8JkMiNG4cH9C5wzKIn1LhbKdt0ymxa0dUtRWsSk7DmGgLMzfG+4ON9gnGW7bTk5uc50csjdu/dompZt0+K9oGpYHB7j+8i9+2d0HXR9IMYtKDhboFHZrjrWmzox2oNZhbNHvP7wnNXlkoev38d7j7UV8/kCjTFlnbKm6zOgWYe1jqqaEPrIarvl9PSE1+6+zrXrp1RlxdWTK7Rtw/n5+dhWYUSxdkLhCq5ePWW5XLNZ18TCp7igSbL0XQQVLtuGhw8uQZSDg0VW0yLRe6aTGb3v8TEQFV559SH1tsbanEtZS9tuqMoKYxzGRi4fnrE4PKRre/q+J2qKtkYM5z/8Eb796CLFpB/7x7+tk+mMy+WKw8WCvu+4c+c+2/UQwzPDjQlHrl49ZrlcpqQtRoyxFKVlPp/jbEFdb1gczpnPp/iQcqMYImVZ0fUdy8vLbNSCy8sVfe9TJtx7lKEUmvIeY92Y6vucrFlj0ZA1HGtG0pbq4YmTWieUZcXB/ABrLVEDk6rCOUfbtWw2DdZaNuttZgfKJ196jl+++W2pP+VHf/73tGlrVqslRhy+DxhbUG9bNpt0UYxxLFDtCNau2j9U7TQmDiASkzacC04xDjQfVAO74nuqFYnYEZeGz6xN6vvAd4ZcaWDAAwEb6sJD4mBMJmzWZowsiTGiGlBVqsk0S5w5VGe95fhoys/++Lv5mXsL3CvfuEPvAzFC9G1urYKqSmctMUkZJxRVxsrdOMkdt8w9KYlEqehOvcuMNsa90n0uExqTVLAhrZb8Ucyy5ZhgMhC83Uv2WddI4SCGtPCoynQ2o95ucYVNxybEdKSMZVDs3v/tV/iZewv+5FML3OXlOu1UiKnuq3B0fExdb3FFmYWXDiM5dc87lohWpuKPtWCwVzbNdWPdscih0KZjtgyTyQRUUho/qtpP5D3f4mu/UUgV2qaj7zwh9GOrhapBtcPaoeinfP6Zd/JPj8+ABQ6EmM9o4QqMNVxeXuCcGydmZCBggwvH/HtodtnLUvOOGXgy998ZZZi0pLpL23RjHjRU/nfdBzvL6J+TyD352vWt7PplQoiAxZoCHxKGJQMlrmQFjj7/W3z1k98OgBvcHZS2a6mqiv1mmBA8GoeyB+OZ32/QefLf+2bYX9T+RAeP2MeH3Vg5H9nDksEL3vhKeCZ7BjGZ0HnvCSFibTLCZDJhs9lirWU6ndL3iZBWhcP7fjyaTkTAgHMFVVXm2J28JMSAiKGsXOYHqeje+i5bP83SGPOYYZLcpzn3yKvLx0xVH/OG1FnJTsMRSXxlQNHhLntGe6Nn7N6H4PFe6ft+HN/7QN/3OdKljV6tlnksoWvSXYbKgyMKqkLXB3pfQ9SM1klCMNbS1S27QvZQeoooOZKw2/XH9lBjSuLyZzZGbAw5EU7eQFBSOTwbeNz3ncAxilEDgMc4boRzlsXikBj9GJqbumYA3RgUowZjHMF71FiMMThr8d6nzZBUc9qsNty7dw8XfACTjouGmG9oR7FCQxh3MkIqVA07NhyzJ3bxseiCZ4JlEWBOYrYBaDXQqtJJoIupli0yFPKBTPaSIdK9rbVU5YSuTxxpOpkQo7JarVAiReEoioIQ4xjBNGuYMQZiVIoii9UhPiZvqEZmsxk3b97ExRCTNilp8QbwoccWbmyEGfpNUntmmrO1lhDjEFUZA60YgihODJUPHFjhCMM0RlwISOYpU4XoLJ0V7MGMbQhcNA3qSmKSirHGYI3Fp9oGMUTatiHExEITfzJJA4oRjT0hKL4PI4cZ3Ezy95u22XPl3fFLsSKtwWkmZiopYgw9IVVREkPI4BMJDBmvJpYaB0/Y9bqpRoyBAzEcieHIWcqmo4wtatPnQmqtMhopnGGxOGTbt0yaloWzeGtoNLL0HV4szll8mxQ8MYL3YXT5gVwOjDsi9L1n/xVDSPPMPbO75ujUhW1M0lyGdQM4a0zSWfMpNEMNFyGEQPRp0JB1PhkFUcbBgUToNDJ3cMtVTFYb0EiI7HlTAGtQlNl8Qlk6Ht6/h4jFBGViHZ3UWGdYzGe0ZcHFeo2L4DGoTeDdB0AiMfYMWpvGLDsPoJ693JrUJjabzXl0cUEpgaNJiwXOOUTFUERJdamQRSYngh9YpgghpCgQQ8PYepl/gWB0j2fkfghjHc4YfIgcTKcYD+5oQWga4mpLR0q8ZtNJSgytsFrX2c2VFAkF7T1YmFiD6zxV45mopY7K2ntkUkBhsIspd+7fRawFXNp9HbRgzfVpl6qAYhGNtKtHPHPieOuzB7z79BI2Nf/2d9eY42cxbbo/WVR389mc9WaL16FrUQkxh9+xEzG9MhdN5YCY1K5qMqVuW5rgmRxMuex61hhUe2YGnr55QrtecTSfsXp4hq/7oWMuLwqiSXpriIFrxyeEvmNzsSJ4D1gKscy8ElctwbbcePt1ZreO+OadNT5GvEjqwnaWEMFYk+t7ivMdhdny3R+4xt/43EtMJ4q9/BLNcsXV59/Gv/nPf8JWC6LuGjrcarPFx8hQ1StKCz6HW019J2ZklkpZlkDKWq2xWS9JIc+3HREz5ky1KA+7LbNpyVnfJB7UK2ZVJ5C0KXoVhWM6n1EWBZfnl2zrTd4KQ4h9in45tB4UhuWf3mVrDW4bcGVFLCzV4QF2OqFpO+quQzBUGnjxrQs+/NKb+a73PsutWcQVhvLKh3CV41lfcHJ6wC/+0v/ga68HfMYbJ+PRYCwFGGOIMTD0vIoxYwdl8D4RM5PQPAZFgk+tvEayaJ1qtimdK1lthU302K5jcTDlYLFAz5fErscKVIVjtV7RbLZYGbhQwq6QRXDrDEVh2Kphdb8haAf0KEK0QntZEUuHm824ejjjxvUDPvz+t/B93/VtzEvDtAqoGKJaRGb4XgjbLW+5PuVzn3mBf/mffp8h13R9lwkMASOGEHqcs0MXN6giNmmmqorERJ5CTAgaY5r0Lj+V1EgToaiKnHskQ0ZjOWtbLmLDdFpgK8tUDBhls+3wm5oJ0OVdskYwzjCdz9g0GzZ1S9/1SHRDaAGNqSuhuaRYlMxnB3zywy/w3vc+w63rUw7KSOUS5hkE3wfOmguauqVtOlabDdcmLR944YTot0mjTZ1CMWkMJonBvo+JkgNiLeojbS4pxAzI1tkk4ESFmDxHwy6FV1VsDolGU4qoNrFfr4FlFr+XCnQdR9dPuPKmp1h/8w7t+TlIpCwNV69e4d7du3TtkNUKMTSJh6CoBKQQFscLbtws+Imf/Bgvvvs5jEQmRUFVFFRFCSjr9ZqubVmtl6xWq6TA+YDvVrzj6QOafpM8RTVgRCgmFT54InGHIZIenWu9z2RNUUPiBL3m/Ce9Qth1FURNuUuzbciUFGtTa7tiCDGksXONBlty3kdWbcvV01scHC5wpsHYhjuv3caHDdYIPuSsN3YcXz1kcXzAZF5x7cZVrt044Tvf/2Zu3pzSNUuODg4pbYGzBSEE6qZmuVmyXq1Yr5aslis2m22KtH1Dt3Wc3npr0mitTQlT2zUpvsOom6Qm/0S9B9kgJXkhGyLsMl4GwSl3JQw1Y0kkJWSJQsSkgvaQK8U0xtx6ysJwvk1e4GROaRdMnr6CW59TXzwkNhcYbXn+Xdf5xCe/h+eeexPHx0cczCd0/Zbl8pLV+SXb5ZLuuOXm9RuEvmO1XrParFnXS5aXl6xXKzbLFfW2JoRA122I9Ya3vvVW8pSoAWtzxIhDRpp7RlRTaBv4sqQ+EmctrijwfcKKXbtFMmYygewSOUAimOGBAGchxgTKCGjke7/zOY4nDb/8X75BiCWdt2zUIlJRWsfidMGt+SO+/8Mv8KGXXuDw0HD28AF9+zont96Mc8fIU6d8/WuvcHF5zr27d7l39w43bz7NZtuyrbdsmzWr5SXb9ZrtZsN6uaKtG7bdGe89qZn3d9L8rCZ+MDQL7/SNIcsb1QrQlOsEQkqzh5xeUqPd42LTfoqfNBjfe2Ku54rungH0oecrr55xddIT/QTRiKVDokGoOFxY3vFsxU/88I9w6/oVqtIyqQxXrxxhxTCZTqm3Wwon3HjqOqvLc7abLcvNhocPLzg4OKRpG5pmzXq9YrW8ZL1csVmtaOqapttw2x3hXz3no4CLwaf69xg/ZNQuh0a6/fXFZJukyJnUUxZjHDuJBu12X0TQkEL3mKUZ0gMNWaEzxvKN20vOy4gwgZi6kGZ+ywdeOuJD73+KD7zwLIfzkqqyFMMjfmqw1lHXNb1PesnFxSWzxSEPLy/YbjY0dcNqucIILJfnLFeXrNZrDuZzvvG1r6TWL3fMf2unfO59zydPMWJydpjo9mRSZZqfm2x2skbypJwR28IxNO5aBL9HfmU0zmBNHXOTxD8GWU1AUge3iS0nR1PO+obS9Fw/PeAzH/kO3ve+69w8dhxWJa6qMDYliSEnfl3XAdA0LV3bc35xkQhc07C8vGC73XLmH1A4y8XlIzabDT5G1qslZ5cNWhwwWZzQrCyry5RgutDn/AXl5MoJbZfVbpuSwBgiVgZtIpGpoihRTUqV5jTe5BIGDHgUR4Og6RE5cl1GlcRlxBCHsggd84OCK+2aT33kPXz8e97Om04KCpmmRmWtKZ3gXJGenCsK6rqmrmsAHj18RNt2KIbz83NCjPS9Z7vZ0tY1bbtlUy+JfcqLcBXXnn6R882UhytldX6f0KSxHDndnx1MWcynWCtcLlfZ3VMoHZR+iQk7QvBYsan9Uk3WcPdFpsFDYtYpHlfkJAqIyw04ERd7ri6EZ28W/MinP8QH3/supk6YlQWFtdjCoSzoug7vA3WTivBd13N+fk7XtaxWS7Z1Td/0bFYruq6lcI62bWiahk1d40MSynud0tYz6m7Oo/Mlm22LoQByIJjPU5nx6vEVtus1jy4ukqgb0zMRQ4Vv4BvOZkmBXea8l0wnowyahXk8oRwMNZjOREMRat77jgM+++kPcfHoZT714ffT+yQ2O+fS5RqxCpVzLDcbHjx6xLSqWC4vqeuG9WrFdrNhu63xfc9qtaTNYlIIAe87jA9MbcXGlKz7U6rJU9y5/TJ931GIxahBA4nRnpxe4cGDR9y9883Um2YNbZMqbMRMuooS51KK3vXpDEcfcvvU0H2Uj84Orx9DF4ZSh5DQOnpO5h2f/r6389nPvsh81vAbn3+dyjkKl4pYIQbEQLh9l1d+9fOYG8dc+9hHUZSXX36Z6WRC07b0TcvZo0dMqpL79+/xpf/+Ra5fv8bh4SG+bwm+g3JCcf1Fzu4Jy+YI11S87cXvZXV2j9WjM7YXK4xmT7lz+zWMscxmB0xR+r5JReyhwmYc1WRC27ZjyDUIZW72ixpzdy0MPZ0yAHIqCmcYT3UWUbD0vPWZCT/2qXfz0nuucjirMdZx88Z1Li8umUwnOFtQiPDo93+Xr/zrX4Q//gP6o2POHzzEf/A7mVUT7t+7TwiBzWbNZrXmlYcPCDHw4P495vMJAvRd5LI9ppncYvnagnplMVLRi3D7Uc20OmX+1DUWNwKLa08nRlsVJal/vuH09JSmK9hsNkn5jorvU7tX3/eMnYspdU7P/CnYgfEKDM/UgKI+JMpvU6RRA6ilKlZ8/0unvOUWaPQYmVG6io/+4EcREdarFUYcriiIxhLXG0oJNLfv8o0v/CbH167hj0+5vDin9z2b1ZqHDx/wR3/4R7z7xXdhjcF3Hb5Q1t0xD+trrJsFsagQ8QnrjAFTUcfUQ6MR6ly9dKqR0EeUyGp5Sd02zGczClcQfFLVYlC6gawZi5BLnIwukclYevzMyMCQ++R1misEWeO9cVJw63oF2oA5RK1DjUUjBJ+I4XJ1QTmbEp5+E+bjP8DZv79LF4XzdaB4uMVMOy7Ozvj6N75OVMVZS1PXbLcb3vzMM2CEdZxwrzmgjocgBcYrSgb43FAUR8wTBhnNte2WSTklBKHeblkcLiiKkuXlkt4rPtTMZwdURZEmHHfFrJTrpKc8LEDs8ERCSE9XDOUyyWyY6BFRrh87Kpcfic3VPEhCct22NG2DV8/67CEtlskHv5s//uIf0K+3PPe938fqoOL1b36NTb3m/uv3mc9nzOcTjq8uWDZbrDiCL7h7WbDVq5STOarQB4X8nPPwFEoI/ahLDwHCLOZzbly/RuEs0UcuLy55+OABXdfnZ2Vgu04PKqim52eMSO5xz+wWQWTLZ37oXc4NDk4AAAG9SURBVDz11Ixq4rCWrKylLChBrlIaS6EB9R2iSvAhGzg9lRF8jw+ekNq2oak5W645/sQnOPjED3B57YBHccvv/O7vcH5xTtTIarnEOsPR8QGCoekmXKyP8e11ShaZG6XnTKdVkhNKZxGUyaTAWQh/56/z/FuuJk8Jvefh6w8oiwLfdRRlybaugYBIqt4RI6FriaR2KLLAZHIhyTnF2RZr17TNhq6PGE2CsTPpf+SgCsSUDNoQUO+5PD/j5a+8zHPPvYW3ve15NCjbzTp1J+V2TjRlsV2MnJ2vefmLX+LarZu025b79+4znc44Whzg29TVVNeOZb2g02tE5pQKQXfCvO/bXHSDqJ4gEecKPvOHX+Tvv/uDfBawixsf+Ye+83RdOxaEOt+nR0EikDWToTA2EjCTCmLEiI8NfevZXNQ8eN3hpWd4Tk8wWANlOcEVBieB09mKN900bJYX3L57m//6e7/H6/fv8/RTNwlxn/hJeqIjKF//yte5e+eb3L9/n9l0Qtd2PHXzKbbbmmlVsdnULNvrnHc3oXiG4Kf5seCk4FlnMTY/QygG7z2zgynWpT66s8uOf/6XnuGTX478X0BzaN4k3PohAAAAAElFTkSuQmCC;" vertex="1" parent="DAmpRFK_-s57hyBg2NIy-13">
          <mxGeometry y="81.98224852071006" width="58.309859154929576" height="58.309859154929576" as="geometry" />
        </mxCell>
        <mxCell id="DAmpRFK_-s57hyBg2NIy-8" value="" style="shape=image;verticalLabelPosition=bottom;labelBackgroundColor=default;verticalAlign=top;aspect=fixed;imageAspect=0;image=data:image/png,iVBORw0KGgoAAAANSUhEUgAAAEcAAABECAYAAADTJCixAAAgAElEQVR4nFW8Wawn6Xne9/u2Wv/r2bt7eoYz5HCfCSmSkikLSihFW0JJsA0YEW1DshIEyEUuktwkFwGSq9wlCHJhIBdJkCBBENjyCgqURFgGZcNaKFIkZa6zz3T36T7bf6n123Lx1TlDH2Cmz1Z1qt561+d53hIf+/I2/tqffYV/8tlf4mf+4Hf43a9+GwBiACJE7j6kkAAIIQhEIgKm72kpCTESYiRG0rEIhJDEGNNvC0lVVgQCUkikEkjp6IcOEQuEgNV6wV/5/Ct84xvf4tF7G6QwmFygjWYcPH1nUShCDOSZQWlJUWTstg3OeoSSINNFK2lACHwMCCFQUqKFwllHiAEhFUKqdKUyIoUAIpnJEEjEs2fP4s/+ac6vff0r/OPf/QZNO9wZI8aIECClJISACNwZBwEISYjJDkpJfAjEkMx29yHSHydClmUcHh0y9AObzQ0QiQQEECMIpRACIOCdJwZBZjLWh2tOz0549PicrhmIAZz1SCmIBEJIDyTGiECCTOcUyqC1IoSA0gpCgBC5/+A+19c3SGnoh4FxdOlaYgQCUkpEFIiPfXkb/8a3vso/ePXn+dmv/kO+/NVvIW7vSwpmsxnjONL3PTIK/u0PAQjSKSMiRojh7vgIIOX0OxEpFEprrLfph+mOQEwGlzI90QgxpJ9JqcjzDBc9McJ8vsSODmstIaSn5UME5OSpAq0FUoCPgjzPUUoRgkcQKaavhZB4H7nebgkuIm6vZ3IGIUD/4Wc6fuV//g6/sBv4/Z//a2Rf+y7ee6SQaKNRUuGcg5iMFcN0AsQUPrdmEpOZbv9L30uGSZ+FYInOI6VKoRbj5DWTr4Vw55VCkP4nYBgHkBCjYL/fp2uYPpSaPFOkgyKRLM/RUjFYxziOSCmQSiKBYeinBy/RWuP9iFYq3a80RMB5j5Kgm6Zhc73nq1/7Hv6r3yGE21wh8M4ziIHMZOnJeA9STPlHEAKTK0KMYcpTt740ecv0lZQSQjJIDJEYApJbA4UUXBGEUNP5Js8U078xndM5d/dQbg2rTUZelrR9h1GaGCMhBJwb8d4hpUIh0SanqisETOeJrOYLxr7H+4AxCq0UAZBKogFWqwWDtUgtMCq5fl0VzOczvIfrqy0hDkQpiIHk9lJgjCR4h/UOJQQS/W95BAh8vHVZIMTk4sQpL6WcFmNEEiHKOyNAJIpIjMm4KgoQMR17m/KYDBk8Y98RvUNphZQw2B4lwegMJRWr9RLvPFfXVxAjzvmUg4RATvdjmxTuUimkFMk4n/+ZV3j29ILtdks/DGijODxYo43m5maHVAXeZinZBvA+cHvucRgJbYtzPuUdJTFKA5JxHKcbFxBiChliOvDOIaakHG/D8DYkIyIGpIisZjMenN3D+cA7j89p+oGARGqJVBKEQCuFcxbnHCF4YvAopdEqndNZS9u2uNFymxTT9bzvhZPrEqPHu5iMU88cs9maGA/YbDYslyvyPOfZ0wsW80O6dkCrnK4dadqeiKLvHNvNnrHvCc6nkBGQmYwYBVIIqqIAQCvFMA4M45iq7G1OAZIbCERMNyFvK10UFEbzE5/8GPcOD5BCAZJPfPjD/OlffJveBnRekNcVF5fPGPqRPM8RIabU4AOD6+mnGOza7i5XCQRRiPSnY8R7jxIKMeWs20vQAF3XkmlDJKJkoMgFQnjyXJKZEtePiBhpmi03m47BRYYhsN/sGfsRhEBpiZQpZkfriEKS5TkiBLquIxLJixzvA8F7ICQryVR+5RSuGijyjOfunfL82T3mRYH2CqnSzXjn+Ol/51XeO3/CO+++x8XNU2RVMQwdShkkAu89iNvQnvwwTnnv7uGIu2ejM5O8Vogfy5uTcXKdIwR4b5nVJUWhMSYjz9bY0SPDnO2mIzhPcJZ23zMMEmcjAoVSEIIneD9VA4EPnu0wYISa8qog+gAhIKeyC2Fq2CRaQmVyHhwfc7w6YFYUZEKC9QQZUn6RoGXECMHLz51x73DJm+dPef3xU4yUxEhqBab7DCH9FVPk5HlBnuVIAcZkXF1fMQ4jSmqqogQBfT/gXepzJFPOOX9yTlmWzOYVqahYqmpGzBVCgjpesd32zJYlIUoePblic+15/OicTKd+Ybtr7uKdKUREFISYEq9UqUNVQhF8JMZAiAGtFSCoc8NHXvwgBQodBH7wWAVBBrRRuBCYzWq0kXjn2G13OB85ni2pPzDjycUVbz9+RO88U55GCkmRF5w9eIAyBucdSki6rkMQUUqyXCwwJqNpGzKjwWiC96hb41xc7MmynpvrHR/68EMkir7rKDKNsyOd3ZKVBQeHCuth9AU3myc8fLgiNwXWRd566xG7XSqbQkiC88QQESKSmRwhU48hpUJIgZKaxXpN1+3x1jH0A6+/9joffuGDBB8RCkKMaC0ZWsfxyRHWejabNpXikJKskJCFwP3lnBfPPsX33nyDJ9c3hGmsUUoSg2Nzs0Wq1PmaLKOqKoauZ+gGxnGk7TvUFLapGqtknPfevkRrhZSSx+9dojPPajnj4XP3qGc5WZHh48ByueTy/BwpJK9+/INIodhtGppuxMdDtpuK7aZh7CyjDwglUEozm5cYY9jtBMMwYIyhqEp8CISQ5rOoNK3zfPfNH3G4XDGvapb1HJDkVcmzZ5c451K7gCKKiPeOED1aSTJjiGPk+eMH1MUcR8ALgRceIQMiOJzz9KNl7MfUo4Xbvip9EUgJWsTpwQA4F7DWkWUZIUQKn3E9jmyv30QpgcoU64MVBweW9x494UMvf4DlsqBte2Zzzeqg5OB4xn5v2Vx3PH18xcXTC6x1aCUY+o5hGPDeTa07hOAYrUWIiJBpRvMiMsjI027D1rbIQpPhuHx2jbFpkBTC4qeSH0KkqguyrGSz2dF1A96nfGOMIsslrXPcXF3fJeFoHSLENC9O40vETX2TnCpnaiM0QJEZlJKEAEZptNS0fUdd5VR1idKSWTWnawdmZUWRacpcUhYVmc4YvUOZgu2mYbnIyTLP+iAny0qGwXJzs8Vay9ALirJAKUVR5oy2p8xLtDY455FaMJ/XLBZznLXMqhodJfuLG85fuyRag9AjPlqKqiavSkbnOH/2DtFPuSxAxBNFYIwDKMFzZye8++gRvbV45wmpn0RKnSpWOmiarTz4nspMxtFaYa1NXWMMdH0DBA7WC4wxRCz75oZZlfPhlx8yX1c0uw11XaI04C1VvWC3vyb4LS998AjvI6ARSLz1bLZbmq7l5PiExWyGNoqu25LnOXVd47yn63sePz4nMxZdS0zuiX7k4eGKk4czfvCdt9med9TVDGdHrq+uUxHwkRBS8o8EhHDJ441mPqu5fvQUZT2FkCgJUQmcmIwYA5maE6PDjntOj0t+9nMf46d/8qVknL5vpwFN0YWRzGhiDFxeXXBx5Tk9PaQoDHVVE0Ig+Mh8vqTvW8qiwJiMt996k3EYmc1LDg/mhJiGO2JgHAZmiyXrg4eYLDVkRkUODhd4H/B+oOtaLi6uKIqMe6fHSCVSpwsgIqqWvPwTD7Dnmrdee5cnj5/gAoAk+vcxpEigqnOyTDNYx7vvvouPER/TXKgyQ1XWLA7W9P3AfuswmaGuRz732Zf5lV/+LB+4v+ZoPU/GGcYRIQTGaEymmC9KfBj5/Od/kqHvU6nb7Xn86An/5i+/y9HxMfPFgnHoGYaOFz/0IoFApnOqfEa371kfH7LbbljMKjIleXZxRXCeelGhZUp6EYnKSh69d46zkfXymLwoMNogpcAGSwC8C+x2HXYAn3nuf+ge0Xje+NHb9J1FivQwhYKT4yP6vufJ0ytccEQEEckdRmQ72m4PIjCrl6i45+MfWfFbv/mrfOTleyBSLzd6n4wjSXOP0YpZVXJwMOOjH33I2b0FNzfwzjtPIGiqYkZ2XPPDH71Jnt3gg0UZgQ+KKBw319ccHhwSQmS+rNFacHp8mELTR549veDZuUcrjTGK0Y7EANZ5qmoxDYQDm6Gh71O7n+Ul0QuG3jMOjhAiSmvW9w7xBC7OL9luduQmI88zLq+e0TTt1H8LhFJ4b6cJ3iONZLmace90wYP7c77w7/8Mr37yIUZ4DI6yqLjeWlyYqpVWmtms4t79M05PjlgdFgz9lh/+4DVCkNxc7mj2I+2+Y7fdEdFURUriUUSuLnbkRcHuxoJvKMqcg1XBwWpF31j2riErckKwGKOZ1yt8sGgtEnShM9quo8hLbm6uyLIMO4wonYqDDxBcj7cWgWK339E1HVlZ8OD5+5yMI5dPL3jvvUcEn8pzFExzkiWSEIfD5Yznnn/Aix+8x2c+8xKf+vSLrFYVtu2wgycWgs1mx3y+IN5CFh96+XmOTw4p8gw7Duy3I9vdBmsjWma4AfqmpywLDg6WZLnBZIoYFZeXO0KA/XbEu/S9xWyJkoqhHZFS413ADR6dR7ROeG2wqe/QRqOlSs2ZkpRZRjWrcUVBluV4C7v9DUM/kmUFUkj6bqTre7z1GGWQAu49f49iUfDm62/StQNS6ASBx0hVZHz2cx/j7MGMT336I3zkIy9yfFzz6L03yeUhy9mCkBf4EPDe0zYtQutknJc//BAp0zet7QjRsJyvQSiePH7CbFZwenKIMgZjFCZLOIzSGQ+fv48gw46p2qSOWGKMwGhNBEwmyXJFVUXySmNUOl4HQ5bl7PYNjx49Zj6bkec5bhwRUtK1HZcXNzw9v2B1cEzwEestbdtzeXHJft9yeHjA6dkxzz//HOvtkuN7a77/ve/x7PwZWirunZ3xK7/871FWjg995ITPfuYVvPMo4Pd/9w/49V/7VYosfx++iLDf7ujciHj99dfj//r//hF5njH2I1dXW/bbnrKs6fqOYRgREcqqJMs0QkJRGqSCsiwS+xAF4+hTnoiRuqzIszwlSRGRJk35WQ737x+iZTKaUIa+t+z2HWPv6ZoOO1qEUHgXabqBvhtwTiCUYb9tabuevhtomxbvA4v5HJNpYrBIAZ/+9CvMZoa33vwO+IFPfepVTk7XPHz+ADu0fPCll5lVNSLC0PUIAYO1qZXxHuccfT8yWJc8J0aBc4GuHdlvWm5u9ux3PRCx1iKEYLRjyvtKUhQaISJVXbFcLVFSIwElNCF4htuLD57MKPLCUBSa2WpFsIrr3Y6IoOstow0M1rO52uBcQCtDkRdY54keZvWCZj9ws9lyfn5B3494H7BTQzeOQ6JclCAEx1uvv8dqXXB2umTfnPPGW9/i8ZOMzdVDPvnKJ3DWMvY9VV1TzWvGccR1HdZa+mFkGEfG0TGOdho8n1xz8eySZ88uafY9kDiluq5TaMSIdSNSSrRO4TKbVbgxcPHkCmMyyrIghITNeh9QOiH4gYjWmuV8RhgkTRXou4Fnl5d0o2Po04X0fWonjo6P2NxcY4wmy3KGvme/bdhvW0QgDbXep89jxI0Wked03QAx8P3v/5DlouClD+VkuoXoaYHd9RXf/MbX+Ttf+ts899xzgCDLMrquo+t6xtEyDAPdODL0A+M4JOM8fvyE/b4lBokx+cQ+pJkomAwhZep0nUOJjNE5LvbXWDuitZqGyh129Agp3mcQpEBpxcnJKX6A3abn4uL7DKMFBKP1Ew6cAKo8z3ny+CkRT12XOOdp9z3BR3zwkxGHNLUjUEIidaJdlNaMfYeVnmEc8S5HGokbe7wdsDESfOSf/M7v8Ou//uscnp2RZRnaaEKMNE3LMFjavsO6kbbdJ+Os1yuCD+xcR6EysjyfcNiA0prFfIHWmkhk6HrafYMLHiUMzW6PHS3WOaSUE3soMUohlCTLSm6u99xcbbF2BGC+XNG0HX0/EINASon3nn7oUUoglWCzucHZgBQ6MQoEnLXEkEg8AolyQaNkenAhRkZr2ewGyvI+dSX5s2/9OZlRE8QjODk85Gtf+xf8/C/9ElleIJVi6EfatqNte7qhZbQD3a1xonMcrtcsZgu6PrlVQCC1SZO6t9zsdvRdS9cnxrFve+IEdyYiTd/RKyBxPiADDO1ACCnx5VXO6ekJbTcQYyTPcoRQ9G2LHXrsKBKKJxPurLXBe0fb7BOSGAVIhYgSoUSig42maRpCcMgYidETgsP2loPnVsznNbvNNdvNhvVqzTB2fOMbX6fpOr74a7+WuLCmY7/b0XYtfd9h7cAwTGE19D0my9JNKlBVnsg8axFCYr1Ha0WeZczrOU3TMXQDymgyrSjKkhhhtCnThxjvOPIQoCwrqqqgrAuGYaAsCmKItO1ADAHrLD4ElFIpuUtBCJFxcHc8l5ACrVMPpU2B85Ys09OT74kyAVWEgBSC7/7la3zhC79C/Cs/yV9++9t88KUXeeett/iTP/1j1us1P/z+9/jh9z/K6dk9rjc7bm42jONICJbRJr5LA9PooNMcEmG/26OVTnScgCI37LZ7iAE7Ti6n0yxWlDnLRapYu20D7DFZxugGxn5EG8XxyRGrwyXWDfRdz+XFVTofIoFZ2e1QC1mWJ/YmhkTYaYUPDqMlVVWhhKbveiSBzeaGYewnrjWxBrdM7M11ww9/8ISXPvAiuTZ0zZ7Xf/QjDg/XdF2fgLuLC3SWs29bLi6fEUPAGEOIHimn8aHIcw4PDnh6ccF+m7AXlQuEFORGMThH8I6+69hv94QQiCISsLjJ0koo7GBx1hOjZ7Ajxig+9okPUdVlyiE+cHNzxebmhnFI+cdkOev1EZlJXjWbzVJ+mwykpCRET1UVGJ3x+o9en6qJJYj3YZgkJgiJM4sCpQq+9RfvYYeB64u36LYbjMoIPvDqq69gx8APf/BDnI8sDlYE72i7llk9Tx5/S+pVRcmPfvhDrm+2KKUoyxIpIs1ux5PHOwKSIi+JIaK1YRx7QnDEEaxwjMOQhkmlKcucrDA8tz5jvqxBDFxcXiU2E0NwnjzLUULhQgLkLy8uEmWrIIQOYwxVVTGfz8nznCLPaboeb9004jjA3oUQEZSUzBZLggss5jWzqqaeaT76sVf457//A77+jW/yiY9/lF/65V/gK7/3+2TKsDo44jvf+TY/9wu/yGy2ZBhbIhZnFV03gV2PHj0izzPu3ztlNpszjiND37Far6jqCut8At17yzhYkCB8yifIQJYX3Ds75fBwxcnJIavVAoTi6vqG8/Mn4BMmOw5t6pGOZpRlxbbd8+zJU4Z+QArovccOA1VVUJcly9kMiGxurkFoMpNxdHRMCBfpGMQE4ifejOipKoOPPWfPPeDegxWjC/xHX/pNPv7Rl1mt5vze7/8B69WKt996h5/43E9xcu8MrRVt15CZghgMZXHA43fP0VVVoYzkp37qE/zvH/siP/UP/h4xeGKMdF1L3w8oldQI282OYRynsUCitaSqa87OTjk6WLNYVmjt2TdXNDtL2w6sVmtiiOy2DZvLJzT7lj5L1aAdevLM4K3FjxYR00Da7Rt2+YarPEdKmSb2omYM0LZ7drtNwl1CREmBUml2e/DgmPsPjnjw3CEvfOA5+rHh9R+8zdtvvM5v/p0v8fT8bf71n/xLirri+Rc/wH/wH/4qB0dHfP2bf0pV5Tx94ri5HlktBNeXI/oLf17x2z/zKv/bh7/Ib3zj7/NHjx5xfX1F13UAVFWdym3fY62FGBO1UVbUsxmr1ZqyzHj27DFtW5OXGUWR8oMQgrZtCDYQnGfoeuxoGYaR/XY3VSgJIRBDRE70bPCRy8tL+r7n5PgEN45c7FpGa9k3TSIQY6AqcharJffun/KRj77M+mDBw4enhNix2+353vfe4Lvf+REnh0f8o3/4h/zGl36R3/jSl/g33/8BH//4q6xOjnEBjMlp95I/+devsdspyuKKcezfV3b9rW/+f/zhH/45N1cb9k2DEAqdGYo8J0ZwzuJ9IMszDg5WzOdz1usDnHVAwPmRzGQUeY6bGrrr62tCiLjR0exbdrs93ntEnBjxKeESEsgdSUUgSlAy8UtGaexokUrjfJKqJf2NQKnA4fEBL7z4AlVdcv7kCaenJ2R5zvX1jjfeeJe+GZEowrjhM597id/+7b/J2f1TBtuDiOz3O373n36Nr3z5jyHOcV7ivGPsBtQ/+8J/+9/93e/+I/7PV/4Gf7V5gx98/w2EEEghqcoSgMzoyRs0VVmymNUUZT7pXNJMEmLAW8t+v6drW/phQCmFFop237DbbREIvHVJ4hMm2nbCfu9kOOJWmiIIzuNsSrx+qkYRwMN8VvNXP/85nnv+Prttyztvv8M4WjY3e3abPTfXW6pqhhKC4B3GaJ4+ueLxe5e89c4TPvDicwih+Vd/9E1+78tfh1hxenaI1klQ4KxFnJ+fx9/6j/8HXvnki/zTn/27ZP/Nf0LwKZ6NycnzjLIo8N4ThWA2q6mrhOolQkxg8izpZlzA2RElFTIztPs9m8sb7DjSdt2dIEpNbCQwVZuIVAo/3byYxFPqx6QASJXIP6GQKI5PDqhnCpTAOkHXDal5jBHvPAeHh2iTsd/saCc1WAwBIRRCBJ5/4T5VVXN1uUNKTZYlZKIqZyilQISk7BoHzz//w69jvvKvEFISg5+oWIXWknHosM6ijaHZe5zVzOrqTjrWtS273Y66qok+0NsEV+y2G4ZuIHo/NZQCLSfuPN7JZJK6QzCpvZLBdExig6Q8VROArnAEhJQMdkCNOftmT5ZVFGWBQBCEYLFYMg4jT588xY0WO4wEF5BSo7VkPl/irGHoIifHJ5RVgTYwDo66rslyhbXT+KCUpC7LSaAoGXcDRZmDiAx9h9Ga3BiEgsykcFNCorWi61q22y2jtagI0XvcMKbE27XElFCSmFKKJGQSd+q5NA6KxBHoiSfQCFRMPHuUgmpWMbhAPZ+za3qE1gxdiw8J7nCuJYaIMYZusGx2e9yY8sYtvSuFREnBclFzdnbMbFZPVS4xHVppslpTloaqLhCyTMa5vrqctLmeuq65f/8MrRT7zY4YJKfHR6lJM5KiyIk+JAyk63DWkpkEdongaba7pPbyiSCUSiRGkYmHFgIZb2fkO/PcCt3uPldac3x8lID7Zo/3A3ZIOiFvHd7bNJP5QF6AUTNiiCwWcwZr2Y9bjo6O2N9syLOM5XzOfD7j7OxskuhGtJLkRQ5EfEhqDqUEztnpYU2DpyRVjL7rmM8Khq5lPiuZ1TVlUaCERGhJ23Y0+x3EBGw5mzCc6B03my1+0sNFH5BS3M1nt7rAFE5xUudMYksBIohEE2c52miKvEBmhs1+mzTMxuARlHmOi1DIjKIuWa/W3Gw2SGVQE43d9gnFjN6xXCxYLRbMZjXeW5r9lrJKhca7gHMWk2m0UgmPIpBnGT5MvFWm0rCmo6YsC2IIVEVGWeYYHYhhoOkH+nFEKYUUEetcOpFJWl+bSUTw2HHE9iNRJ/zlVkAUY0QhkYI7pbhU+jYrk+UJCYgxIpSiqpPbz+c1xmR4D10/0vQ9Rmtc8Iz9QLPbE6xPzWU/gNb4kNT3286SaYMdei6eJu8tioL5YpaUozrBInmeUxYFIQZuxoHZvMYYk4xzenpIWVQUeYbOFBGHVpIiz1MzFARCJBVW8ClpjoOl7zqqoqBtBpqmIctKdJZwZO88Wkh0lmP7EUIg1wYzaX2tS8pPpTVCGwKR9XqdCMAYuXd6SrPfoZXAWk9Z5gQBzdizbbYURYlCMgxD6rUilEWBznKQqWUYugFrR7wbkDKpT29pY5Olkp3nGUYf0rYdUqWf992YdJAA6/WCxbzGjj02tMzKnOOj01tBN9vtjvcevZsmYZfA7d12h9aaZrtFCpG0fpNIdLQDwTmkEFPl82ghOFqsiM4zWy3p+w5pNMM40jnP888/z267QakUru+++w7D0OGdZ71eE2IkK3LclUcrg7UOo3OU0JgyZ6Z18kqt79Rku7hju90RRSAKQYg+EQldj/MSIQR931OVc/IiT4hjgKura7SePKfrW9pmi1GS5bImMzmXFxfs9y1N0/L2W+/QNU2Sd0wGEzEyWocQklsV4mg3KKnJMg0ywZi50Tw4O0u7BP2QdhHcSG4MQSQBwGI+Y2h7vPfsdzuYEvLp6RnGZPTDyMHhAZfX1xwdrlAqo6xm1LP5HQNBjORlzsXFJRC5udow9o6qyEGm7BZ8RBGRQaCFIkxD6/XlFVprhIB6UVMUJcQJsthtNkigLHI215633nybrutp2pZxGIkuQQMxiknsk3raW7P8eMciZRImlWXB6ekJ++2O4B1D21Mh8S6SyYxIwAePHweckmx2DSEqtMkZx5HFIqftA8fzitXhIZvtNdUs5+ELJyxXa4RM6tW+H7GjQ0mNc56ri3N2+44YAnWZoZRmvqgpq4pnT59OqhDD4fERo7XTGKNo25ZZXeEJaKXZN00yju36BPA4x5UdGK2bljZEqjIi4SXBRcKPCc1DBDV1s4m2kaxWS46O1pyeHrGYzRFRsLnZsnl2TXt5jR0G8BatDdaNZCY1XEpKtMlAaQojOTw9ZLmqWR/MMVrx8MUz7NjjfE9ZSpQ2xCgpS8PFxRX7ZofJCj780ZcQMePq8oah7em6jn7o6VvH4cGcqqq4ur7ChY7nX3xIPVvw7HzLG6+/Rj+0ZEXBcrWA21LuQ2B7c5P6B5H2BkRyAcSkevK4ZBUhJp8BbTS5Tlso1iaRwHK5wmR5opZ7i/OB3eU1rhlwzuMI5FVJuZxTKsWm3TP0PfWsYHGwpl7MOT05ZDavmc0L5rMaIvStpYkOqTK895gswzmPdZ7z83OKoqZtr5nPa3ITODioeDo0COGpq4yD1ZLMaE5OT3i2rLjaXHOwXrBvetpmx2Z7g9GCjz/3Cj44yjpPxtnvd4lWURLvHQgI3v9Y2EzBI0QqcVlGCGGSqzl89GhjKIqC3W7D0DdUZUFmDNfXG1w7oHxy1/XZIS+9/EHmhweMMdB0DW3bcXJ6jM4MJtesVguMkUgF3o94G2iaPbvdnmEYcdaRlxnrgzWCyHp1yBtvvEPT7AygH2UAAAr5SURBVCmLnLoqUpiNqdcqi4KqqijLnK7vUFrw4MF98ixjs92hs8AXfu7zxOho2o6IptlNALv3geBcQty1wnk3rW68v7pz28G64Il2xHuf8B2SMtwHj7UDRklyk9E3LcZkmCJHFqB8JBDwMvL0+pqboaOYz8irksP5jKzIEFLgnePq6hKjFXlu8M6yWCw4OKg5OJilBbI+eWGR55is5OmTLbtNSwTGIeBsy2K+IM8Khn5gv9synxWs1nOGcWBWloze0jY31JVivT7j+GSVdsOipmlG3nnr2SReEhGpFZGE+DNtvvz4UHxrpuCTTEMpdYcI3v6i954iy8iKnHEYqecFRVXS+T2oNMOpsmaMkXbfYpzFX15QVwV5ntM0SbQkBNy7d8a8rpAq0vcDUgn6YaAuZsxnCV18+vSav/iLf8nmuiMzZcKKhCTGwMXlJbNyhiB53/nTc3b7HVpK8jIjSk+9yDg4XPPm22/w5EnBwcEx2/2Otu3odlO1iiFRqMGHO4pDCDHtA5DyzPtrARPBdrsFA4ikxUvAeE0/dKwP1vgYuL65IfqQSmUQuF2D6oekKN/tiTFw7izjOCaQfD7j5OQYo0quLne4YHn+hYcondNe9/hxZLe54N33HnFzs2UcLMvlIomuxx6BJMtyNpsbjDZJymdqlICuaSEzHC8OaPqGy8srjo+PqPKa997b8uidHdv9jt1uw9hPuw9916WW+26VRaClJssNzifSLfK+I92tBgHaKKTS1PMZs3LGrKoJIe1fOu9Q0zKplBIpNdY7AkCISKnJs4LgA8Fvk1xFGryDp8+uKPIMY0reffscocGODi01XTeiTcZisaTrGrSSSOlZH8xxNnXKZaXZbxKD2Q0p37kxzVHPv/CQwfZoI1gtUzUs8wN224Hzp89wQ0SLW5F2cNyuHCagKVWlZt+BSjf2493MXU+jJLNZxUc+9jEevvAC0UWaXUPXtggJbdvhXQo95zxFWdIPPTZ48ry4Q928dVibIycEsut6qqrk0aNzmmZ/x90DFEXOen1CWVa07RU+SIKPSCF5/N4VMQbOzo749E98kqvrK77z7e/SNSO7pqPIcrqu48/+7E9YrBYcHx5gJ3AuEnn48AylSEjmOBmHGO92j9JOR1K0I+SPCZkhilTWtVHU9YzDwyOOTg5ZrhY8Pn+M94HoI23T3umDu35EKw0IunFIe6NKJt2vdZN4Uk+8+SQL6Tturjf0/YDWhqF3gEiDsMzTXkZZcnF5xTgMHKxWSKWoyoosyyirks3ugvki46c+/wpPn2x447X3CC7ifc9ydcjx8RFDPxB3lpubK6TWvPvOOeOYuP88U7fipdt4iXfLYbdbvXleApF+7Klnc7LMcHR0yNHRYdLzZRqdGw7qktEOPHv2jKgju12L9xFF2njJMk1eJx1PZpLYchiSmtQ7h5QCpXXavLt9GBGsTQuz7y+qCqRSNPs9B6sDRteTaQ3RI1Xy7X7oubmJOF+yWh5w/8EZdTnn/MkzXv/Ra7z22tu0bc/J6TFSGw6Ojmm7nt2+xXtLCBbnp5wziWnSGuJEsSbkLP3YGENeZJzeO2GxmKO1xhSG+XyeVBhEnLOMo2N1cIBWhnrWsN3sKUyRVpxFQMpU0TAKY7K0o6Bydts9zidBthAJ11ksl0iZNDOJ0dQ4m9CCEGISepucxXxBDJFxGOjbAaRAFwuENoyD4OmzDUJEjtZrpDri8uKS7WbDbttyfJwYjrbtub6+Yr9rQEjKssSHyTjS5ORljlJpCa3r00JZmZdopbn/4IyDwxVIUFom9aeAfhy42e7YbXeE4Dk6PmC5XKYdCim4f3bCbDbn6dNntG3Dft9Oxp8htSFG8HYgkPYefHD40eNdwGQSH0NSnnO3usZu39B2AybLmM9T7ks8FuhCs1wuqeY5HsWsXtA2DfvNliIrGYe095kXFS5G2r7HtBl9PyRk01qKvKIoKryb6OB6vsRkirwoyPOMvC8Y+jHJwLqOZxcShCcrcvLcoJTCOc8wjOz2e/q+Z7lY4j3cbHaJoJMSpQT7/Y5x7O+W5LUxhJBgA0ir0GPfY62ffieJsKMVhBgwmZnUArd9RCoWUcDNZoN3lrIqKcsSYzTb3YbR58zCjHF0BJ/o6u225eZqQ28HhJAIBFdXNwxD2ju/nQ9DCPR99z5kITRpPyCkRJyWNea0XU/bNOz2DUM/go4oqSiK8g6Uuh03rLO0XctiuUQoQde1eO8JHpzzifAryrTsJdTd6xW8T1iL1AoRkg5IG01ucvKygAhjN0zHCXyucS7ggscFj1ACPylCb3U1/ZgjlSZEQfCeZtwzdD1SaoRUaZNPJj3zdrtFa8NyuaSuZwzDmMSht6W8G1pCgLZpUEpPPHh6ScYwDJPsPpAXOUJLnEsrgEoJxOQhymiimPbIReKhhmFgGNKSvNFmAoME1jms9yipQAgCIpF5MjGeJssoypKyqlKD2g30bU/wIb22YRgIIZDptGYppURnmjwziU4mJqglCqwdcWOPlJJMG7Iixw7Ji2MIeB/QOr3ZoMgLtDJ0fYdUtwuwWdraJYASijgJGIUQlGV1F/PGGLTWlEWJMoqiyCY1u5nWjtNGjBBJth9jRGmV3mwwDGm1Wcj3QXcp0UqRF9lEObukJzQZdVVTz2YMXZ/OKWWiWIKgKhQmU3cv8YgxkOc5VVWipkXYxCikh6ZnJVolLMmNHu89QzdCTK92qOoa5zyNbyjyknp2iHOT1FZLhZYaJQ1SKqTU08suUmxb5/A+EfzS6CRP05KqLqlmyXg+BIbept4hpjcPCNJ2vzIahMcGR1kUZNqQF8n1tZQoKen7Huc1SqeeyAVH2zcMw5BoFCORmUoUkGBC7gQupJu9pVmMTlXNeY/UctonBS0ToaiETIJsrYkh4EJk37RYazk5PWC1rqiqiv2+nSCLZk9dzVBaoZVG6WSkGNIUboymKFKTZUxGlmuyXJIVWXpnjvf4SX06Trx5ZpIBmLhqqQRGG/LCEIVAmWQUiFg3TDK3NKpIKZFCMvQWax1Cphdv3LKhMUSi9/g7qVucGk2Hd3EC1VOYBkBrgc6L9LKPKMjLIu17dj2b6w3OOubzOu2ULXKKwjDYaTGkqiqUTqxBkIJCFwgpE4htVOJ1jEHrBCsE4fGQ5G5+8hAh7vAe68Zpwg+J2pxcXWiR2gEpUFIgRMS7JNN1zmFDeH/YjREZJ4Jv2ru8fdJi2h2XkwdpbdBKokPE2oG+bXE+JV2lNQqFz0LSGQG7puX66oahG/DWUVU1q/Wasq4QRmKDZ7vfI6uq4vBgzc//3E+z/e//L7TRVHXFYrWkrEq0MUilyPKMIk87TSabvEvpqQS+H4pKpRAlgh0tYbRE7ydxQkhvLdAaHzxhqjj/4ov/FZ/45MsQI69+8mX++K//10TniMFPA128W0oVBJRIGzZaSJQQaCHQUuLHkbZp6NuOsR9w44ifJv6h6xnHER8j+7aj7Yf0fp2iZnVwgCly/u/P/21eePEBITo+8smXknjpt37x3+X/ePVv8Zt/8f/wzfv3E1IfEwyKTvxVVaWF974fCFHgfbpYJmE2wdMPA87a1OKj0oXLxEm5mIh8pdJeeQgBFxzOOv6zN/4xf+/lv85/nv0z/pcXvsh/+r2/zzd8SDJCkSoYt14i0p6DkultJwkhSJCKd37y4pQSgncQFFIaHJHoHEVZc3bvmLPjE3KTcKeyzqmqjP8xfJP/Un2G/+lDkv+CT/P/A1FUXpAdoXM9AAAAAElFTkSuQmCC;" vertex="1" parent="DAmpRFK_-s57hyBg2NIy-13">
          <mxGeometry y="173.6094674556213" width="60" height="57.46478873239437" as="geometry" />
        </mxCell>
        <mxCell id="DAmpRFK_-s57hyBg2NIy-9" value="" style="shape=image;verticalLabelPosition=bottom;labelBackgroundColor=default;verticalAlign=top;aspect=fixed;imageAspect=0;image=data:image/png,iVBORw0KGgoAAAANSUhEUgAAAEQAAABECAYAAAA4E5OyAAAgAElEQVR4nFW82a8t2X3f91lDzbX3PvvsM9359u2J3Ww2SVHU4DhGRCWSGRkBLNgOECSA4UwC8g8EQR74FATJk/MSIK8GjBhIgiCIZShyjNCSKFlSKEpsii12N/vO94x7ql3zGvKw9m3GBzhv51StWvVbv+E7lPjqr/9DfzhfcHV1Td8PINn/SKRQGOfACbTWOOfwDpTWeO9x1gEepSIkNb/x7a/yr77/lOXK4K1jsAZrHQKLEDFejCRK8QvvWP7dX73N6fGC+eKIk5MzBAJrLHXd0A49djSYYaAfBja7HauLS9rdBl1mrOqK//t3fodHDx7x9OkzcI47985o6h1epAxdSt1OWA2nNOIAhMc6h3WeNM3xCBwO5y06Ujhr6X7r7/Hfxq/QdjRcX14RRxFmGIjimKZtAYsQHokE57BDjwO0isA58B4pACHQ2qNVj1I7+q5mGB3SK4R3aCkBj/eAA60Vylq8MWxWSz759BMePHiDt99+B289Tb3DOItzHmsteMsw1AzOsVzt+ORP/pTjO2f0Tc/F+QVZljOblJh+xDhL22q27YTBH+MoiD1Y7/GEtZqxRwiJF+C8wQqH1hF/64d/wn/5lW+iJqd/4ztmMAxDjxDg8QxmRCKRDrAuxIsQCH72IyQopcA5jOsYe0O9brm61BgxIvBIIRFIlIQ4TtGRRAvLUV5x90xSb9c8f/mcP/ze97i8uOD2rTOs8/s7OIQQWDPirefzTz/n5YtnXFxckGcpQz9w6+wWTdOSJQl13bLtT1gNZxDdw5oMLwRCgJICpRVSSQQeISTGGPIyQ2mJs5blZuB/+PV7aBwgPAKBGUe8GUijBG8d3vtwQSGxPixUEI6JtyIcBwUCgfSC+bzgxUWDlhLpBFJ4rDN47xn6jjgFaDg7yxmHiq4e+dbf+BafffZX/NkP/ox/+V3FL/3yXwMkbdvS9z1d19P3A+M4kuQZxjuapuP0+BQpBFLH3FSKbX1GZ+6hsyllPoNCUNUb0iylHwzGewZrwIaXmWpNmWXUbUPT9fzcLz3gH7zM0EKCkqC0wPQerSOkEBgv8IToCCEXwk6gAIF1HiEFEomWCj96FgcO724QboLyEVpHeN/jMQigHwYQAwdHU25unvKjH/yUv/Xtv8v6+oL5tOB3/tlv85UPv0rb9gzDgLOO0Yz0/YDUknboObl9C5zHWKjWO3Ztxnq4xWBnJHGKkIKsiIkjzWArRtMhBNjR4p3DO4E1Bu8F15c3eOnxCP7pV3+R/0Y9R5dFhlSSvu/I0oS2aRk8KARCaISU+42AJI7I8pL1dgt4hBBho4wjV4qTQvDOnRkXa0df9Vg34HF4DTrKsN7TtRUey3J5zW5XsdpccffkjI+ThK5r+fjjn3B6cooxI4O1WOMYB4s1MI4Oj2IYDcJEbLYxy3GBSU4oCo0fe9q257NPN8RRjNu/RInACYl1FoiQXuAB7wXOSsCS/Y//hCe/+SG62lVIKfDekSQJWZZiRgtehEsJiXPhmBhj2FYbvHOkaYwUjij2fO2DI/7Ot7/G5uJT/uav/zJROud//z//L6QfaX3LT58Knj4zdL1EpxGQ8Uvf/BZf/1rLq5c/5ebigoP5HCEFSkacX1yGBQPOOYZhZLfbMRpPN0LTpejoFtHBERMTcbPa0llLLGMkFiEGrH39GvePgkcpjXE2VBkv8EKglCRSikhr4ihCze/8m9/xzuKcw4wjxhjwIAUIKdBaorUgTiK8h3E0xJFC+4H33prxH/0H3+Tf/3vf5HShKdKEo+ND7tye881vvsfxQnBYrPjKG/cwvWe9uiHNUnbrLd6OPHpwhm1r2q7BS49UMf3o2e1q6qahblp2dU3T9aw2FVXfsdzEXK9PuF5HrHY1bT8gvAAn8S6UV4HAe7+PYhBIhBAgJdY6XmdDxH7DvMOMhq986RjNPlnKkBr3oeQJQWEZx9Cb6DhB65hZmiDkDb/1n/7b/Oav/TxZFiGkRznF2eIWxoX6vrq8QkcRb9x+j8/+6hP+9m8sOL0z8N0/rnl+mfL44pLBGH7la2/yeLfkcrkElVDVO8xgkFKDlozW0fSG3ha8uEhouhmOOVY48C3OeKT0aOFxwhFJBVqEkh2e9meVUQiSJKYfLEKC86GqCh8i0Y0WLb4ILMG/Vli92/cOAukE+IEo6/nw/Tv83b/zq3z4/h2GsWZ9U3H37v39Gwm7XVU7IhVR5gW7m56nz55zvXzGZz+55up6iucEKwp++/dq/uKjx8RZjXUbJpkkzyS4gX7YMFpLa3O2dUrdxfT9HC8iEANCePDqix7H4pBekE2naKkw48gwjphxBA86iRmsQUcxsVBY53DO7vtQsQ8I0EpIQnXeP9DrcPKvN1ehZMvdk4hf+db7fOvf+jJvPrgN1vL02TPefOMRzlq8g2EYaNqaelexXq8Y2pp6s8E4+P3vfg81fQtrHf3YIpVnEClPm477i/toN2M3XuNGR1PXGAtdn9Cbkt4cYPwBRjqkHPdJwYUjHcV4517HAFVVkUQx4HE+/I1zDusMOtYIIRAShGd/HkIoeCH219MaRQgxZx3ui7wc7uudocx7/uavfpkPPzhFjC2Xry4o84zbp7eIdczYj/RdT93UbKsNVVWx3W1p9xuj4pgiLSmmxwhviGKFNx0egRkky5sR7xXz+UPef/8Dfu9ffpemqXFOkiULyumU0XuausFah9v3QlEck8QJUgqc8zhjcMbS7ZtMKQVKKpI4wXqP9R6BD+9bvG4k/OsowAN6HDq8VF/UaIEAYZEKtALLwGTqeePBlMT3pGqGcIbL8wsirUl0xGa3pWtbdBSxvLmiqiqapub6+obdbke9W/PG22/z2VOJjlK6vgdr8CJ0sb1pULpj0/b89j//Q/o2RooYKSxVYxnsLjRl1qCkxluHUhKtVeg7shxrDXYUGAFJEmOcYzAjBsswjljrKKYThmHEu5Bb/Ou08HpTvEcL53De70+QwzMyn2fcfXjC7btz0lxRZhqrMgYhkVrTdi3WGbY3a7quJSszdrst1lqurq7YbDZsNtuwGfWOpml40hd89HlH1SoEGmQod0lmeeftki+99wGT/Ij/5X/9XewQIkYgkcpjzMC46wGJ95Yo1mGt3hFFGmMHsiylx6KEZ3E05+DogKxIub5ecn5+SbXd0TY1UkVIrfBOUCYFbdcyGsd+LNsnVe8QwlJOFe9++SFvvnuPL3/1IVE8ooQkiaZ0u5pXq0t++vyHvPfmA8a+BSm4ur7E34Tyttlu2O12bNZbqmpH2zSYYcSLiIuto3URSiqUUHgZUpXpFNcXPT82LzH9OW5IkKGdC29OeJIkBUa8gHG0aK3pB0scRyAccRxj7YiQEKcJ1lmk8hRFipSH9F3H0IcEm+cpcZIihCSKIqKdpu06BKG10NiKPHK89+Exv/btn2d6dIaNp/zwo7/gjQf3uHvndkhA04JxnLC+XvNnH33CW/dOGIaW1WpJXdckSbjwrqrYbCr6rsOODm8VnYu42Xi0DL3N64ZLKclkNmG3M1ycPydJUn7hm1/nerlGRpqPf/wJUiiOjg85PCw5OExpG8Ozp9f0XUvTNERKkhQZwzjStS29UDigf/aSFy/PybOMrutJ05heeGbTKVprkiRlHEdwlrIswHmaukb9F7/1n3/n7/+Hf517dySffPQnFJHgj/70j/nk08d89unnlOWEg8mUoavBGrqmY3l1zWZ9w3K55PrqnHpXMQ4926pmvd7QtR3WekY0uzHlyUvYbSOcTfE+NERKCqJYc3Z6iMDRth3DYNjtdswPpxRFRtd2dG0HeA4OCh4+OuLkbI6SEbtdQ9vUpFnKnTu3mc1mbLZbuq7DWkvfD2gl0FqhlUIIj7cjUaSQWobNEB4pRYApIsmH752h/tE//p++8957j/jyBx/wja9+HdsPCG84Ozrm1cWKx0+foqVgUuQ01Ya+2XFzfcF2vaJra/qupusa2rqj7TrG0eBHsD7lfCV4eanZNQWQ4oTASovQAhVJyiLj6DRms17S7nqcE/sc4ckKGHrHdrPFOUfbNHRDhzWGpulZrbaURYmUEmNGlFJEUYSSYbTXUcTBfMJiMWFxVPLO22+AcEglODs7QUcS7w1eWKIIYi1588EBOk4kg7VoHZMfLvjGL/wiD+/c4x//z/+Eb37pId/9/g/57nf/H+wvfpMiUdSbDbtqy9C2bFbXRMrivSWJUuI0wzlQakFc3OWzH/4lkYqQEpSSOBwSjxkb8JI0LjiYZRzO3ubliy2ff/6c2cGM+fyAL7//LkfzmqE3NHVLta35/JORthbsdjXWWtbrMFfdCEEUReRZQZwkvPnmI16+ekVd73j4xgknJ4eMo2FXr5hMpuS5IE0TqmpEyoQ8K2jbgckkR3sHxnm8sRglER7y6ZQvf/k9/vD7H7EoUz5/8pzP/upj7t0+Zb28YbVaoaXg/PwV3g1EkWRxuGCeZsymJzw+V3z/j39Ikh3gPURR6IezJEOlGu9G4iQm0Yr33nmXi8trbq4q4khS79Z8/tMtZuyZH5ySRhEdDXEUAZKLV9ccHy+QStI2DaN1aBUx9pZVsyZJY7RUxFoxmZRY43j18oK6qZlNJyRJTBRJpNTUNbRNS7Nr8Q6E9+hJOcUrSdv3tHWDHw2MIw/e/hJ//Gc/YpFKNgkkwvLy+TPWmxVjP9C3LU+ePuVocUBkNW8eH1O3BbcWH9A8e8bprRThPd65PUqlkFoQx5pJUVLtKrIs5S/+/CMm0ykH84L5okQgqauap5+/YDXd0bcdd+8ck5cZxliMNbz19luMZmA61bx6dcGuahHEjN4w9CM3V1dMZyU7YbHPeooiZTormR9O2e1qtqsNbddjjMcMlr4diKIIZx26qRuE1gzOsN1UjH2HArqm5u23H/HPf/d3eefRfZbrLcttxWAahI9Z3nSYMeev/fK3mc0PmJ8d8X/807/kk5cf44mIdMQ4dmAtWmk8hnHsaeoKxglCSTbrDTfXHVJKZvM5s1nK0dGEMn+Akprzy3PeeONdHj26S1FmbDc7mq5DRZK6cejomK7b4bzF9BHO7fsJKUMu8wYzDighiLTicDFDK4VBkOiINI5wqcfmhjhKSNMYvdtWtGYgyQv6tmF1c4MxPUpIdBpzs1oTpyXrXYUxYbQejcbaY45Ojvno44ZtfYGTn1HMb1HOZqzXO0zTg7d4a/AuZPNhGHDOMXYZnenZ1TWzWcFuVzGdnHB665jFccyd28fcXF/xjW/+GzjvqXc7nj95xcFszq2TA2SiePYy9BXHx3d59fJHVNtVmMmExHmN0pI4SnA2rHnoR64ub5gUJbGOSMspg3G0XYdxIyoWCAW6aTv60bDbtQxDT7WtWK6u6OqWH/3FR+RFwV/++Eccn93GeI8xEctr6N0Ep3MutyD1MUkSUzeWttuGTtOBVhLnCXOGc+A8WgiaqsICkQzg0/HJCev1juXNlrv3Z8QyIopSPvnJY549eUoSpWghmH61QCJY3dT83nd/wMunG/q+B+eR3oUZTKo9suRxzjOblsRRQqwlWBi6kdFYrO1w3pHECiVzdKSJIh02ZBhGurGn7zuqbcX15Q1d2yKl4t79+3zvD77H0dkt6mZkVyW48QjEvrYD3lm88wzNAHJAIFBKUBYZaVoiBWxWa9ASrQQIyLMD1tWWu3du0bQd1XaDNZ6Xz3ouzp+T5xlplnA4mzCZlxwdT1kclYxm4LNPPqfa1JRFSZrErJebfbOVURQTPGCtZTadUJQ53luGYeTVxTlKKvIipyhyymnB0A9stw1Sevr+FF3XNcPQ0w8DXdew225Z3izxTnB8ckYcx7R9zzA42joli+9jRAqmxzPihEdpTd91FHlOlmVIKcjzmPv3zyjLmCdPfsoH732Fs5MjhqFjW1VEquTTz65YbVast0vms/n+/HuETCnyHCkF4+B49uwxXTvlgw/eZteOfP3rX6HrI558fsV0WpDFl2zWG5xz7KoNSseoSLPdbqi2ayQgpSfNUiazgvsP7+IJAJIdPatlTTt21LsW3bQNTbNjHHvatqVpW5z1eB+Qbds6VLRg6G4zyRbcvnWfTd2w2aywThKoG0+elhR5SRxF3L59QpoZZvOINNKc/dxXuLy85KMf/jnnry44mM25uFzSNoLBelQiOJxPsc7x6tVLmmbHhRBkWcZ7777Jm2/e5Z237nJ5sWa5XvGv/uTPefFiy6S8hT6ckuYpy+UqDK1C4q3BYRBeEUUaJSU60hSTnLIsMONIFEukkNysVljrwEvGwaCrakvb7BjNgDF2P2MoxtGwXm948uSCB3d/jrI8I80neNnz8OEx3h/S9QMeFTCR0XL56oK+3XFy9JC33j5muXpJmafsti3ODFTrLWmUsVpuEUaRp3A0OWC5WfHs8ed88xd/gXfeeYPPnzxmu6lo6p7Pf/qCvmnJ44Lzq5d86f23+eVf/jpPnpzz6lVDWaQ0dcThfEbTDCiliZOEcRwQ0uDMSJJOmUxzymlJnGg2mw1dV9O2LUMnyYsDyumEPC/RTbWl73ustSgdIZEkUYwZDEOnEO6Qd969Szmbc7m84nh+wptvnzKZTGibhqZpwUKWFezeWDA0Dffuz0mV5dbxIduqYbm84eWLFxzMZqzXFUWa0NieyaxkMCNJJDm7e4fjo0PSPGNX1dxcrhFO0uwaPm9fcnOzIskiqmbk1u1Dvvq1d/mVb83YVh3W3qWpPFcX13gkiIxPP3uM1ppqu6Pveq6vb2i6htmspB86ijLDO8fl+RXjALuqwtm74chYa3AOLq9uKPIJ3iuaWmCGnG984+eJk4R/8Xu/z5NnT7i6XJBlkg+/9j5370/xtqRvO7abLVIYVt2Oro3wo+Ljn3yG9ZrVagujoHcdZhzQQpEmmlhrsiIizVOGtuaPvvf77HY7VJIghOTundtIpZBCst6suX33FkoJmgouz2uyNCOJJNkk5fhQce9uiROCP/t/f8LhPEfpjJOjI+pdAKu6rqFrOwYzgPAURcFkMmFXNTjv2O0q1K/92q9/R0qPNQ58xPXllouLmq5PGK3i/OqG3/veH3G9vME5T1N3/OQnn/HqxQuKPCZWEq1A4JmUE+IoZbPa8Yd/8Cdcnm+pdz3VuuL4aEGepxyfHNH2HUmWYp3l8uqK+WLOW28+ZDbJ+dL773D33m3Kac6dOwvuPTghzXLqtqPeNdzcLEnTDCV0QL4ECDHS1GvObh2TJhodSS7Or7i8vEYrQZpGnN065mBeslgckuUFL1++4uLiirpuGPoRgeAr791BW+NwUuBdxMWra66vGppWU3cdVXvDZrNhNIG2xCus83gHH3/8mGfPz7l9esLpySLwrEQoIpbXK6r1jsn0ANMNnCwOOD0qeetLj5gdLdhWNY+fvOLiYs3R6RmPHr1B29WkiaYocpwQODsyP5xSTgpObpVM5xOePn7B558/5eXLV1g3sN2sWRzlvP/+A7RK2e0GoihmNpny5fcfcfd2y2gMoxnJMkUcz1Eqpq4HvOt4+WrJODguL24Yh4FhGNBm9LSt4wff/5imNnhS2l6z3lT0pg9ArJTgA3X5WiHgiNi1js+fX9N2gmlRsLx6SZGmnMwPmd++S1ZEzI8OeO/9t0iSkcFblssr/uAP/5TPPnuOcxprBU8eP6XpasahI8kyDg7nHJ0ccbiYgwdrGw4OFN3ZjKY54vr6mjwrOD5acHPzio8++pTF0YK6cSwWc9q2piwTJmUG0iMDYokUiihKEEJx63bB0+cbfvCDT3HnQQPjHegsPeLV8wvOzt7CWslHH33MZlcR+r6APsk9ECuEJ4xqoQudlCXOOS4urnkxvKLIY2bTnMXJDC0lRZmiI8XLFxd8/Fc/ZrtraDpD3fUYK7A+0BebbUUUJXsUXLGrdswPJuAMaSTJygKtY7KkRErPnXtHWOMwpqYsc6bTHKkUXdPyeLtlV21JkoTTswWnZ0ckqUJIj0civEBKxXRyxNHRBCV6plnE0DkmkwS9XgpWNwNeSJquR+oIqQLzLl5zNnseBNwew4yYlhOGfmBX1XsOWFE3A588fsLF8oYyzyjTHOkFkQrwonUWi8cLgRSaJE2ROmI0BiklaRQxn88oioQ4iqk2W6zpODo6ou17yknO/bsLdKxxYzgKSirKScmublheb1ku11TbLXfunDItJ5hhxIwd5aQgiiKauuPm5hIzjETK840PH/KLP/dl/sHLhP/qKwaVRO9+Z7XestluvwBeTs9OkULRNAHpDpkrhJ2OIs5OT1nerBg6i/AaKWRAxKXCy4h+sNS7jq7tyZI0SLX8Pg9JAUKhVCCN7H7SFUqhI40FhrbDjpauH1Fori+vqLYbhBTcunXK0WHJ8VHBYl6SFwllWSClpG0N1xdrtpuKtm2RwKefPKGqGpIkZhgtr15ds1pXPHt2zo//8gmr5Yb5fMp/9obm3/txjJZKIlFESU7fd8S5ZrsO8JyWmmrX0XV9CNksJ45TXjy93idQtec0HE7smTAPQY4FUsUImeBMhxMWiQyUp4DROCIZI5FcXlwEUc0wkKYpWEccaSZ1y1C35EXE4fEBt8/OyOIY6T1KCFQSgVAslxtubiqq9Y6mbtluas5fXfH0p+ccn5xxc90wmUzIypG+GwLnowu87nnyYs1nT/4F82nGP/uPfyPoQypjEN6TJjk6ShBSf7G4KM6QUjKOA23j2K46IpHvFQIiMGDC7rfG79VImqOjQ7q24fxqhbMWrRVJGjOfz1BK048jWZ4z2vEL2Vask9AYZgmRUmzWFU3dMJmlyEhwc7Okqja0bcMbb9wiyRVNYzk/v6batCxvapbLG3Z1ixkdIkqC2M87Lq9uOHQHeBRaR0ynM/J8ijGei4srHt2d8u0fRuijxQFHR1PyLCcvS1Z7TqXvDUJoPIKqqgO73lucVjg34pFhAzxBaSQCvSgllOWEoTMMnQcfAxI7QmsEQ7fj9OwY4QXLmw3O9xgzfqEHMVJhXxPUWuOcpK4sL56tePXie9y5c5thGBh6z8M3T1mtNtRVR99brq5v6LqONx89ZLvZ8eTJC+KbGz786pcocs1u13JwMCeKEg7ni/AynedgVvLflw/5R7fXqN/823//O3kesTieUU4yijKlqjaBLHYuUEZ2RAhIk5iySPHeoqVGKYVWEVEUE2lFkaccTOdYYzGDQ4kELRO0Sol0hpZJqAZtg3eeNIkZ+g5rBryzQXGADUI7PM4ZrA2oV9+PeC9p24Eo0lg3kucFxnq6zrCtWoTSSBHGex1p8jRhs9nQNA1ZFnFyesJ0MiHLY8oyJUklQhg8lm9sX7KYF+jpJEfIbM9xBszz7bffCqq+Tc16u+NwfoB3jmq9ZRhG7t19kxcvLukGgxkAr4jjkihWId/IGJ1lBHrutfB1L7UQBkQfyGoZMysXtF2NsQNIi/ED3ot9cQ+/09mc27fv8OzpU+IkYnF0yNmtQ9qmQyeKNIspbUHXDSDgyZMnVFVFGsfcf3Cfk5MDTs6mTCaaBw+PMXbEjANCK6RMGIYRKXPKSYY2JkgoXw93eMFkUuKsZexHRpOihKJpWpy3eAzL1TlJKsmKAq00pleYQTH2hkQ5hJaA5jVfGVQ8ABrnO7y0lMWUvh8ZekMez4ljSVpKbtbnjM5jncULx/37d0mShKOTQ6JUc3V1xdXVDVLAwzdPKIqIfuxZLO6ABzP2aHXAvbu3yLOUJFW88+5dTm/N6YYW5xt0JJFS0PVDQPP2agLnHdoOBussbdeQJClSaRoP3jmMGdmul3TNgPVB62X23KpA4vqOSTnl+PiA9bIh0jEQ4b3c9y5BioKwQPhVkabIb9G1I1aBzpN95EjGduBofpvNboNh5OjokMXikKLIePr0CaMZyYuMPE+ZH+QUpeTtt++DlDx7cc7hIqYfUj784ENm04IXL59xdHTMdDal7zu61vL45iXlpCSKI6z3OL/njFRgCPRqtSaKIqSQ9O1AN+yw1iGFpu9GjheHRKdB0TcaR103XF1cE0cpSRweRkWGOw9Kmt1IXQmslfDFpgiEcHjRoGNDFMUMbega0zTZb1j4e0QKzjCfRESp4O6DM9q+pm0rDhclxhlm8xkP793hnbfvk+QeoTxSwdFiQpZoDg9LdDzQjZbDoymXV+d8/vgxZgRcRDHJ8VgODjKcH/E4lJSoVAWyu2sH2qZHac04jKFV39OBQ9tRTHIknqzISRKJNYYkSRBekiYpWkuKPEZIz2QWI+UASJra44wE4RDSkhcTnOvp+xGlBUrpvdwzbJwQYV7y6P2w2VNtN/Sm5eR0zsNHd7He4HA8uHeHKJLUu4ZhHJBSIqQgimJ0FCGlxDnP0I8kSUq1bdBao6Ti1q0jklwTRYK6DtVNBPVxiJDlcoXWEeNoKMuS0Rqm0wneWaIopm97SGwQnxiHMZDGKc54dlVFHCu8H5FastlsENJRllPeePQ2jx8/x+M4PJwz9Jahj1Eiwaug8MEHzZ8QKiT1PRHupEXFjpubK4Ry+OMDvIPZ7IDedHz22edMsoK6bRnGnnJasDiaURQZCE+e5QghcN6QFwmHi2lQCuiIvPSoyCEklJOMYbAMo8O5oELSaZp9oUltm45xHLi+uEYpjZQSHUlym5MmKdZC1/QMfVABpFnCaCzdssV7T9d3TKcldjDc3Dzn/r05znl2VcvYeRKdBLGsS0K+hX107DVtzuOlxfia5fU1TliKImW1XKG1JEojEJ7z83NwkuOTEx48usXx6YQ8z3DWUVUVZVmitcRaSNOYqtphjEEIMCZGyRAtUayJpMC7hqqtsWOG1koHLWjdBjWfC5C91kGoa52h2m6RSjEOIbc44xiNpe12WGe+KKlJHDOOhkgbqmrLdrMO7X6SMTvI6FqD9zHORjjs/v+CaBhlkNpTNVtenj/DC0teZCRpQp4XjKPFek9eZLz56J0ppL4AAAvFSURBVI3w4JOUosiRIlQ0j8HYga7tiZMIawx101BVDdWmwjpHHFXMZlOyLCYvcuIkYTJNUNqhlEfPDqZf1HtnPZvN/0+27T1NU2NGQxRpnPUIFBIFgJPhf4QMapzRDIxjT68kaZqyWq24urrCA/ODOaendxEEibZwYchzViLUiIphtb3hp59/hooURZkzm065dfsWSnq8t0ipSJME7xx919MPPVIryrJgMslIsoCOrVcbdlUPQnBxecnLFy8ZR0Pf9ThjObt1xv37xxweH5BmOdPZhDRNKMoc7bwhKxLKyYSq2uE9XF1dMww13nvkvokYR4v0Qc8Y+hGPtXsDgJBfbGKapqRJwuXlJVJKprMJTdvy4uULnr94zvvvfUCRHzBaEXw3OERkuFmf8+LV8zAECoGxI1JBlqZ4b2jamnY74Cy0bce2Ck6HrnvF8ckCZw2LuOTgYIa1HcvlitVNza7e0VSC9aYJAyeSbidpK08VGa6vrjg+ccwXs9AppbmmrgwCj7OWly9e0Pc9SmkOZjOSNDDmbRMGpp/9hG5SBOqO18JW7yFJUg5mB1TVlrqucdaFh3SWj370F8wPDjk5OaOczIgTycuLF1wvr5hOphSTgjjTlJOCw9kBUSwZB4kUMUoa2rrBWs9ifkSWp0Fw6v3+5WnqtkcIxWRa4JynmMTcunPMpCzx1tE2XZBeDZblzRYdKTbrmtFYjmYx+q237vPsyRU//eQpXduRxAldGxj2PM84OztFCMXHH/8V22EXpHp7jbjcD3huvyCldEiiu4aqqqmbGqUFeRZoya4LCbSudzx7/pi8KJCxZjCGyaRkPp8zm88opjlFmRFrtR8cLYujU6z1LJcrmrolTWO8t1hriZ3CDCOb1ZZsSCjLGbfvLJjOIsbBBtoVhbWOg1lJ13VU1Y5xNCgh6dseZwxjb9Eff/yXtJXg4uIKrRRSSrIsJYo03ltenb8iy0qmBwc0/biXcAvwnjhNUVLQ9y3T6YQ4TknTLIiAvUMrTZJo7t2/RVnOWN5saJqWTbUlL1KKScHB/JDzi0uscyRJjI4Uk0lOkmqq7QalZOgkfeCMIy1RWoRhcJ/njBnpe4XUmqpq2BUdJydzijymFT110zH2LgBVTtL3Pe3+5XsvMKMB70Mx+fPvf8zQsW+iBFGsmE4noXlkfxEkOkk5uXVGFEX73Q26LumhnJRkSUIcBQOPkIIHDx9wdfWKxVHJdFbgnWM+n6C05/Ck4PhswWw+JctLjk9nrNdbLi6W7HY7yjJDEpEkmjRNGYeRalOx3W4ZRsc4GBrZkOU5WZ4ikVgDXTPghaOpW1ZLRRLHAaWVis4MmHHEjp6+72nqlrbtKPIU8FhjWC8P0Fk8RQvPYC2R1qRpzPxwGujAYcT54KLSSYKSijTLQhc7DEgR1MQ6ChzJ0A90bYuQEcb2HJ8sWCwmRJHCmhBZSTZjMi+JE4XWHudaTs6mzBcFbduxvNnx/Olz7tw95vTWAoli7Ax11dB1A9aFdsC7Aa0kSaQRWqKl3EdPvK+IEmskbdthraGpO/p+QAlNrGOmpWIwA9a4QNSZ4BHSs2lON3h0nDAMPXGkybOcOIthUuKdJ4kTkjzG2YEH9x+SZglN06IjTV034Yg4T101bLYVeZrjXFAcezfQdw11HZRCeZYRqYQ8SUEJXr485+hoysHhIbPZlO0m8CPDMBBHIQesrldcXVwSRTHT2RRZKJq6xo5hjI/KDCUFcaSJ05QkSbDW0PcDzsEwGLquZxxG0kSRZjl4R92ElgEf420g67QQgiRW6FiTZTEyUqhEo2NFmgWHlY4lWZ4Ed2Vucb4mSizO96QTGMdQcuM0ZXqQYEZLU3c0dYUxI3awaBHEslEc0fcdKhLoOEIqgdCS5XLJZrvGO0OkddDDLtdoGSOlIopilFI4E6btvCgQQJplxHFMlqcILfDeYJ3ca0Tc3sw4YE3QuQWIYAyeYw/OONzefVUUBdq5EWMB4SnTCUmeIrXA2gEzOobIkZcTlBZh14cO7wJ2MBgT0HMlgiVDaSqzo2kqrA2I19D1jIPFjIbVeoNXjtNbJ1jhEK1A6ojVumVX1Qz9iFIB3W/qjhdPLvAC4khRlhlDPwacxDl0pMny0MmqWOGVR6pgc+m6Du/B2WANkVKitA7mQwGjNZjR4KzFWRO0aSJ0zDrLMuw+rIwZUaMiVgk6UsRxzKTIybMUL4OJr64brLE4L3ASYg1SCZwJPUlTtwg8WRoTaY0ZLUNvwoJ8sBdstltkFNzhTTfQDwYlFGmaIulxLvQzTd3jsKTHc4osZTQj42BACpI0RikRjAtaBW+MFygRSnvYCBWwG+FwLkSx0voLOwgiuEs9PlRYLdFpmoezE3nqtkElmkTHqDhGxYooiUnSFOeDVbyzA10/kCYp3jh6M6C1ZHQDfdPjnSNOIg4ODqjrjl3dYKwj3R8XJ/wXHuB+MHtbrCSJIoRQbL1n7Icg51SQpgV5lhJlMYlIf/ZgUfAAvo4IOrtnCcLwJhA4Z3HOYozBOUOWBnYwmIgixr4PVKeUJGmElALddW1YlBSBIog0kQqqG6UV4ziwrSoARmNx3hNFEdZ5oigO8KMLJj7rPFmSMJmWZFnwxcRxRJrmKB2RZClCCPpxwOPJCoeQct9sesZhJIo1zllwEq0i0izZH88xqAuSGCUVxlj6vsdYx9hbEA6lLVI6vLR4H8rrMASHppShrQhjBgjCs0ilUJEkThPiJEYPY/CvZXlGHGtkpCmLgiSL0bHC2IG6bvZ+mvBRhChLMdZ+8S2AsW0YxiCsz8qMOI3wIlhG0jzF7302Mg6qQ+GDE9wZxzgG0axUEuEkRVkEi4dxWGsxwoM1TOKUJEtQUfR6RsYPfj9ty31UBCLMWoO1lnEcv8ghURShtQb/s87aORc2RIemziPQUgrkPpEhwggPntGMDCZYzK0NdvU0TVFKYc24H+rACkOSaCItODyaE0caAQxdD1JgCYvWXiC82WNAAUTuh4CjRKlCKA0GlJZYp3AyrEkIiJMowJXe45zFOsdoDA5PFEcIJFpHe0yXQF0Yux8nFEJItJYoJQIg5cN9sjwNuUQKpFIhlxwdLTBm3J+z4LP3G9BpAiJcXClJlmVflDGAOItJshQpw4RbFhkqEhg7MA6W9WZD047BEq80SiuUkhhr97RlyB9RpMjzNKBmxjJYECLYSCMdURQ5cayJkwgpwzxizLiXjIcEqrVGK72fKPz+yxUCrRTO+733OABeAZQKG6m9xjsPMlDOeI8+Opqy2zWsVlvqpgnf2QDMZhta+UhxcDDDOUHb9GgtyYuM+eEcY4bgmJLh6xLSwmgt4zDStD1eKNIiDZkdwrc6vKMde5QWZFkaXE8iCHxtol8fBmKS4J6Q4YG9kCBCG/76oawIvjkpZODQhQ/U/Ou8hEMruc87MuhqfcC0tdD/mtlZ7TUwOisj+jGEkzUj3TAGXgSBVBKl8mAt7XukEhwsFhwdzxnNyHa7RSJom4bS5OSTwKTt6o7eGJIkDpGh5Rc3jmLJZJqRZwkHB1OUVPTDyG7bIKUgTiNkpPZ9AXtZ+N6ZvS+pWimstXjpcS44SOXeWhuqaZinsKCVDq5NH1yngUIJVlUlNc6Hr2C8vocenWW724GEclLg6wZpgqxV6p8BP1EimM4K5osJQsHYjUFLgsCOA70xiLZjU+3o+oHRejCGwRriJNpPw1GgP7WkyEJ73XUdXTvSD/0XWV/vYQT2b9+5fTVCgg/dqPN2/00CgfAh8l77j4dhDMSbUq/NloGclxJrbdhApfYfR2A/MRvAI503vPvBI/63f+c/oZhMODw65PadM07PjpkfTDk+PuTsbMHtu0csTqZ4MTKMAZ57DfkHMzG0TYcZLd4JjPX044DxhulsyqQsws2dxxrLaAzDOPBfR1/j5OQAD7z56A7/8NZfD1+hkUFYK6T4YtGvDcnDONKPJvQzAoSSAaLZH4nRWoyze9u924PowZsccOIAdBkTulUhBP/d4hvM5yX/HwkRnwMR/L/+AAAAAElFTkSuQmCC;" vertex="1" parent="DAmpRFK_-s57hyBg2NIy-13">
          <mxGeometry x="0.8450704225352113" y="260.41420118343194" width="57.46478873239437" height="57.46478873239437" as="geometry" />
        </mxCell>
        <mxCell id="DAmpRFK_-s57hyBg2NIy-15" style="edgeStyle=orthogonalEdgeStyle;rounded=0;orthogonalLoop=1;jettySize=auto;html=1;exitX=1;exitY=0.5;exitDx=0;exitDy=0;entryX=0.04;entryY=0.088;entryDx=0;entryDy=0;entryPerimeter=0;" edge="1" parent="DAmpRFK_-s57hyBg2NIy-119" source="DAmpRFK_-s57hyBg2NIy-6" target="DAmpRFK_-s57hyBg2NIy-11">
          <mxGeometry relative="1" as="geometry" />
        </mxCell>
        <mxCell id="DAmpRFK_-s57hyBg2NIy-19" style="edgeStyle=orthogonalEdgeStyle;rounded=0;orthogonalLoop=1;jettySize=auto;html=1;exitX=1;exitY=0.5;exitDx=0;exitDy=0;" edge="1" parent="DAmpRFK_-s57hyBg2NIy-119" source="DAmpRFK_-s57hyBg2NIy-8">
          <mxGeometry relative="1" as="geometry">
            <mxPoint x="351" y="228" as="targetPoint" />
          </mxGeometry>
        </mxCell>
        <mxCell id="DAmpRFK_-s57hyBg2NIy-20" style="edgeStyle=orthogonalEdgeStyle;rounded=0;orthogonalLoop=1;jettySize=auto;html=1;exitX=1;exitY=0.5;exitDx=0;exitDy=0;" edge="1" parent="DAmpRFK_-s57hyBg2NIy-119" source="DAmpRFK_-s57hyBg2NIy-9">
          <mxGeometry relative="1" as="geometry">
            <mxPoint x="351" y="315" as="targetPoint" />
          </mxGeometry>
        </mxCell>
        <mxCell id="DAmpRFK_-s57hyBg2NIy-23" style="edgeStyle=orthogonalEdgeStyle;rounded=0;orthogonalLoop=1;jettySize=auto;html=1;exitX=1;exitY=0.5;exitDx=0;exitDy=0;entryX=0;entryY=0.35;entryDx=0;entryDy=0;entryPerimeter=0;" edge="1" parent="DAmpRFK_-s57hyBg2NIy-119" source="DAmpRFK_-s57hyBg2NIy-7" target="DAmpRFK_-s57hyBg2NIy-11">
          <mxGeometry relative="1" as="geometry" />
        </mxCell>
        <mxCell id="DAmpRFK_-s57hyBg2NIy-50" value="" style="group" vertex="1" connectable="0" parent="DAmpRFK_-s57hyBg2NIy-119">
          <mxGeometry x="559" y="68" width="351" height="237" as="geometry" />
        </mxCell>
        <mxCell id="DAmpRFK_-s57hyBg2NIy-24" value="Transformer Encoder" style="shape=trapezoid;perimeter=trapezoidPerimeter;whiteSpace=wrap;html=1;fixedSize=1;direction=south;fillColor=#fff2cc;strokeColor=#d6b656;shadow=1;" vertex="1" parent="DAmpRFK_-s57hyBg2NIy-50">
          <mxGeometry x="71" y="47.5" width="80" height="150" as="geometry" />
        </mxCell>
        <mxCell id="DAmpRFK_-s57hyBg2NIy-28" value="" style="shape=flexArrow;endArrow=classic;html=1;rounded=0;fillColor=#f5f5f5;strokeColor=#666666;" edge="1" parent="DAmpRFK_-s57hyBg2NIy-50">
          <mxGeometry width="50" height="50" relative="1" as="geometry">
            <mxPoint y="125.5" as="sourcePoint" />
            <mxPoint x="61" y="125.5" as="targetPoint" />
          </mxGeometry>
        </mxCell>
        <mxCell id="DAmpRFK_-s57hyBg2NIy-29" value="MLP" style="rounded=1;whiteSpace=wrap;html=1;fillColor=#f8cecc;strokeColor=#b85450;shadow=1;glass=1;horizontal=1;verticalAlign=middle;" vertex="1" parent="DAmpRFK_-s57hyBg2NIy-50">
          <mxGeometry x="211" y="82.5" width="40" height="80" as="geometry" />
        </mxCell>
        <mxCell id="DAmpRFK_-s57hyBg2NIy-30" value="" style="shape=flexArrow;endArrow=classic;html=1;rounded=0;fillColor=#f5f5f5;strokeColor=#666666;" edge="1" parent="DAmpRFK_-s57hyBg2NIy-50">
          <mxGeometry width="50" height="50" relative="1" as="geometry">
            <mxPoint x="161" y="125.5" as="sourcePoint" />
            <mxPoint x="201" y="125.5" as="targetPoint" />
          </mxGeometry>
        </mxCell>
        <mxCell id="DAmpRFK_-s57hyBg2NIy-44" value="特征向量" style="rounded=1;whiteSpace=wrap;html=1;horizontal=1;align=center;verticalAlign=middle;labelBackgroundColor=none;" vertex="1" parent="DAmpRFK_-s57hyBg2NIy-50">
          <mxGeometry x="321" width="30" height="237" as="geometry" />
        </mxCell>
        <mxCell id="DAmpRFK_-s57hyBg2NIy-45" value="" style="shape=flexArrow;endArrow=classic;html=1;rounded=0;fillColor=#f5f5f5;strokeColor=#666666;" edge="1" parent="DAmpRFK_-s57hyBg2NIy-50">
          <mxGeometry width="50" height="50" relative="1" as="geometry">
            <mxPoint x="261" y="122" as="sourcePoint" />
            <mxPoint x="301" y="122" as="targetPoint" />
          </mxGeometry>
        </mxCell>
        <mxCell id="DAmpRFK_-s57hyBg2NIy-51" value="&lt;p class=&quot;MsoNormal&quot;&gt;positional encoding&lt;/p&gt;" style="rounded=1;whiteSpace=wrap;html=1;fillColor=#d5e8d4;strokeColor=#82b366;" vertex="1" parent="DAmpRFK_-s57hyBg2NIy-119">
          <mxGeometry x="469" y="156" width="81" height="70" as="geometry" />
        </mxCell>
        <mxCell id="DAmpRFK_-s57hyBg2NIy-52" value="" style="shape=flexArrow;endArrow=classic;html=1;rounded=0;fillColor=#f5f5f5;strokeColor=#666666;" edge="1" parent="DAmpRFK_-s57hyBg2NIy-119">
          <mxGeometry width="50" height="50" relative="1" as="geometry">
            <mxPoint x="417" y="193" as="sourcePoint" />
            <mxPoint x="463.2506781186547" y="193" as="targetPoint" />
          </mxGeometry>
        </mxCell>
        <mxCell id="DAmpRFK_-s57hyBg2NIy-144" value="" style="group" vertex="1" connectable="0" parent="1">
          <mxGeometry x="238" y="29" width="362" height="397" as="geometry" />
        </mxCell>
        <mxCell id="DAmpRFK_-s57hyBg2NIy-120" value="" style="rounded=1;whiteSpace=wrap;html=1;shadow=1;glass=1;" vertex="1" parent="DAmpRFK_-s57hyBg2NIy-144">
          <mxGeometry x="106" y="64" width="256" height="268" as="geometry" />
        </mxCell>
        <mxCell id="DAmpRFK_-s57hyBg2NIy-121" value="self-attention" style="rounded=1;whiteSpace=wrap;html=1;fillColor=#fff2cc;strokeColor=#d6b656;" vertex="1" parent="DAmpRFK_-s57hyBg2NIy-144">
          <mxGeometry x="187" y="265" width="120" height="39" as="geometry" />
        </mxCell>
        <mxCell id="DAmpRFK_-s57hyBg2NIy-122" value="cross-attention" style="rounded=1;whiteSpace=wrap;html=1;fillColor=#f8cecc;strokeColor=#b85450;" vertex="1" parent="DAmpRFK_-s57hyBg2NIy-144">
          <mxGeometry x="185" y="187" width="120" height="39" as="geometry" />
        </mxCell>
        <mxCell id="DAmpRFK_-s57hyBg2NIy-127" style="edgeStyle=orthogonalEdgeStyle;rounded=0;orthogonalLoop=1;jettySize=auto;html=1;exitX=0.5;exitY=0;exitDx=0;exitDy=0;entryX=0.5;entryY=1;entryDx=0;entryDy=0;" edge="1" parent="DAmpRFK_-s57hyBg2NIy-144" source="DAmpRFK_-s57hyBg2NIy-121" target="DAmpRFK_-s57hyBg2NIy-122">
          <mxGeometry relative="1" as="geometry" />
        </mxCell>
        <mxCell id="DAmpRFK_-s57hyBg2NIy-123" value="feed forward" style="rounded=1;whiteSpace=wrap;html=1;fillColor=#d5e8d4;strokeColor=#82b366;" vertex="1" parent="DAmpRFK_-s57hyBg2NIy-144">
          <mxGeometry x="185" y="101" width="120" height="39" as="geometry" />
        </mxCell>
        <mxCell id="DAmpRFK_-s57hyBg2NIy-128" style="edgeStyle=orthogonalEdgeStyle;rounded=0;orthogonalLoop=1;jettySize=auto;html=1;exitX=0.5;exitY=0;exitDx=0;exitDy=0;entryX=0.5;entryY=1;entryDx=0;entryDy=0;" edge="1" parent="DAmpRFK_-s57hyBg2NIy-144" source="DAmpRFK_-s57hyBg2NIy-122" target="DAmpRFK_-s57hyBg2NIy-123">
          <mxGeometry relative="1" as="geometry" />
        </mxCell>
        <mxCell id="DAmpRFK_-s57hyBg2NIy-133" style="edgeStyle=orthogonalEdgeStyle;rounded=0;orthogonalLoop=1;jettySize=auto;html=1;exitX=0.5;exitY=0;exitDx=0;exitDy=0;entryX=0.5;entryY=1;entryDx=0;entryDy=0;" edge="1" parent="DAmpRFK_-s57hyBg2NIy-144" source="DAmpRFK_-s57hyBg2NIy-129" target="DAmpRFK_-s57hyBg2NIy-121">
          <mxGeometry relative="1" as="geometry" />
        </mxCell>
        <mxCell id="DAmpRFK_-s57hyBg2NIy-129" value="文本特征" style="rounded=1;whiteSpace=wrap;html=1;fillColor=#ffe6cc;strokeColor=#d79b00;" vertex="1" parent="DAmpRFK_-s57hyBg2NIy-144">
          <mxGeometry x="229" y="353" width="36" height="44" as="geometry" />
        </mxCell>
        <mxCell id="DAmpRFK_-s57hyBg2NIy-132" style="edgeStyle=orthogonalEdgeStyle;rounded=0;orthogonalLoop=1;jettySize=auto;html=1;exitX=1;exitY=0.5;exitDx=0;exitDy=0;entryX=0;entryY=0.5;entryDx=0;entryDy=0;" edge="1" parent="DAmpRFK_-s57hyBg2NIy-144" source="DAmpRFK_-s57hyBg2NIy-130" target="DAmpRFK_-s57hyBg2NIy-122">
          <mxGeometry relative="1" as="geometry" />
        </mxCell>
        <mxCell id="DAmpRFK_-s57hyBg2NIy-130" value="图像特征" style="rounded=1;whiteSpace=wrap;html=1;fillColor=#ffe6cc;strokeColor=#d79b00;" vertex="1" parent="DAmpRFK_-s57hyBg2NIy-144">
          <mxGeometry y="184.5" width="36" height="44" as="geometry" />
        </mxCell>
        <mxCell id="DAmpRFK_-s57hyBg2NIy-135" value="特征向量" style="rounded=1;whiteSpace=wrap;html=1;fillColor=#dae8fc;strokeColor=#6c8ebf;" vertex="1" parent="DAmpRFK_-s57hyBg2NIy-144">
          <mxGeometry x="174" width="142" height="31" as="geometry" />
        </mxCell>
        <mxCell id="DAmpRFK_-s57hyBg2NIy-136" style="edgeStyle=orthogonalEdgeStyle;rounded=0;orthogonalLoop=1;jettySize=auto;html=1;exitX=0.5;exitY=0;exitDx=0;exitDy=0;entryX=0.5;entryY=1;entryDx=0;entryDy=0;" edge="1" parent="DAmpRFK_-s57hyBg2NIy-144" source="DAmpRFK_-s57hyBg2NIy-123" target="DAmpRFK_-s57hyBg2NIy-135">
          <mxGeometry relative="1" as="geometry" />
        </mxCell>
        <mxCell id="DAmpRFK_-s57hyBg2NIy-140" value="" style="edgeStyle=elbowEdgeStyle;elbow=horizontal;endArrow=classic;html=1;curved=0;rounded=0;endSize=8;startSize=8;" edge="1" parent="DAmpRFK_-s57hyBg2NIy-144">
          <mxGeometry width="50" height="50" relative="1" as="geometry">
            <mxPoint x="245" y="241" as="sourcePoint" />
            <mxPoint x="245" y="174" as="targetPoint" />
            <Array as="points">
              <mxPoint x="164" y="169" />
            </Array>
          </mxGeometry>
        </mxCell>
        <mxCell id="DAmpRFK_-s57hyBg2NIy-141" value="" style="edgeStyle=elbowEdgeStyle;elbow=horizontal;endArrow=classic;html=1;curved=0;rounded=0;endSize=8;startSize=8;" edge="1" parent="DAmpRFK_-s57hyBg2NIy-144">
          <mxGeometry width="50" height="50" relative="1" as="geometry">
            <mxPoint x="246" y="317" as="sourcePoint" />
            <mxPoint x="246" y="253" as="targetPoint" />
            <Array as="points">
              <mxPoint x="165" y="248" />
            </Array>
          </mxGeometry>
        </mxCell>
        <mxCell id="DAmpRFK_-s57hyBg2NIy-142" value="" style="edgeStyle=elbowEdgeStyle;elbow=horizontal;endArrow=classic;html=1;curved=0;rounded=0;endSize=8;startSize=8;" edge="1" parent="DAmpRFK_-s57hyBg2NIy-144">
          <mxGeometry width="50" height="50" relative="1" as="geometry">
            <mxPoint x="244" y="154" as="sourcePoint" />
            <mxPoint x="244" y="87" as="targetPoint" />
            <Array as="points">
              <mxPoint x="163" y="82" />
            </Array>
          </mxGeometry>
        </mxCell>
      </root>
    </mxGraphModel>
  </diagram>
</mxfile>
